%TF.GenerationSoftware,KiCad,Pcbnew,7.0.6-7.0.6~ubuntu23.04.1*%
%TF.CreationDate,2023-08-08T21:58:14-04:00*%
%TF.ProjectId,EnviroPuck,456e7669-726f-4507-9563-6b2e6b696361,rev?*%
%TF.SameCoordinates,Original*%
%TF.FileFunction,Legend,Bot*%
%TF.FilePolarity,Positive*%
%FSLAX46Y46*%
G04 Gerber Fmt 4.6, Leading zero omitted, Abs format (unit mm)*
G04 Created by KiCad (PCBNEW 7.0.6-7.0.6~ubuntu23.04.1) date 2023-08-08 21:58:14*
%MOMM*%
%LPD*%
G01*
G04 APERTURE LIST*
%ADD10C,0.120000*%
%ADD11C,0.500000*%
%ADD12C,0.990600*%
%ADD13R,5.000000X5.000000*%
%ADD14R,4.000000X4.000000*%
G04 APERTURE END LIST*
D10*
%TO.C,BT1*%
X15750000Y-2800000D02*
X15750000Y2800000D01*
X15750000Y-2800000D02*
X10680000Y-2800000D01*
X15750000Y2800000D02*
X10680000Y2800000D01*
X10680000Y-4250000D02*
X3800000Y-10630000D01*
X10680000Y-2800000D02*
X10680000Y-4250000D01*
X10680000Y2800000D02*
X10680000Y6280000D01*
X-3800000Y-10630000D02*
X3800000Y-10630000D01*
X-10680000Y-4250000D02*
X-3800000Y-10630000D01*
X-10680000Y-2800000D02*
X-10680000Y-4250000D01*
X-10680000Y-2800000D02*
X-15750000Y-2800000D01*
X-10680000Y2800000D02*
X-10680000Y6350000D01*
X-15750000Y-2800000D02*
X-15750000Y2800000D01*
X-15750000Y2800000D02*
X-10680000Y2800000D01*
X10677058Y6300000D02*
G75*
G03*
X5180001Y8339999I-3127058J-1D01*
G01*
X-5306421Y8467393D02*
G75*
G03*
X5169998Y8330002I5306421J5132608D01*
G01*
X-5316452Y8492753D02*
G75*
G03*
X-10680000Y6300000I-2233548J-2192753D01*
G01*
%TD*%
%LPC*%
D11*
%TO.C,REF\u002A\u002A*%
X-16800000Y-1850000D03*
X-16800000Y-1110000D03*
X-16800000Y-370000D03*
X-16800000Y370000D03*
X-16800000Y1110000D03*
X-16800000Y1850000D03*
%TD*%
%TO.C,REF\u002A\u002A*%
X16800000Y1110003D03*
X16800000Y-1849997D03*
X16800000Y370003D03*
X16800000Y-369997D03*
X16800000Y1850003D03*
X16800000Y-1109997D03*
%TD*%
D12*
%TO.C,J1*%
X-8922369Y-11514472D03*
X-7485528Y-10077631D03*
X-11796051Y-7203949D03*
%TD*%
D13*
%TO.C,BT1*%
X12950000Y0D03*
X-12950000Y0D03*
D14*
X0Y0D03*
%TD*%
%LPD*%
M02*
