%TF.GenerationSoftware,KiCad,Pcbnew,7.0.6-7.0.6~ubuntu23.04.1*%
%TF.CreationDate,2023-08-08T21:58:14-04:00*%
%TF.ProjectId,EnviroPuck,456e7669-726f-4507-9563-6b2e6b696361,rev?*%
%TF.SameCoordinates,Original*%
%TF.FileFunction,Soldermask,Top*%
%TF.FilePolarity,Negative*%
%FSLAX46Y46*%
G04 Gerber Fmt 4.6, Leading zero omitted, Abs format (unit mm)*
G04 Created by KiCad (PCBNEW 7.0.6-7.0.6~ubuntu23.04.1) date 2023-08-08 21:58:14*
%MOMM*%
%LPD*%
G01*
G04 APERTURE LIST*
G04 Aperture macros list*
%AMRoundRect*
0 Rectangle with rounded corners*
0 $1 Rounding radius*
0 $2 $3 $4 $5 $6 $7 $8 $9 X,Y pos of 4 corners*
0 Add a 4 corners polygon primitive as box body*
4,1,4,$2,$3,$4,$5,$6,$7,$8,$9,$2,$3,0*
0 Add four circle primitives for the rounded corners*
1,1,$1+$1,$2,$3*
1,1,$1+$1,$4,$5*
1,1,$1+$1,$6,$7*
1,1,$1+$1,$8,$9*
0 Add four rect primitives between the rounded corners*
20,1,$1+$1,$2,$3,$4,$5,0*
20,1,$1+$1,$4,$5,$6,$7,0*
20,1,$1+$1,$6,$7,$8,$9,0*
20,1,$1+$1,$8,$9,$2,$3,0*%
G04 Aperture macros list end*
%ADD10C,1.000000*%
%ADD11C,0.500000*%
%ADD12R,1.000000X1.800000*%
%ADD13RoundRect,0.250000X0.262500X0.450000X-0.262500X0.450000X-0.262500X-0.450000X0.262500X-0.450000X0*%
%ADD14RoundRect,0.150000X0.587500X0.150000X-0.587500X0.150000X-0.587500X-0.150000X0.587500X-0.150000X0*%
%ADD15RoundRect,0.140000X0.170000X-0.140000X0.170000X0.140000X-0.170000X0.140000X-0.170000X-0.140000X0*%
%ADD16RoundRect,0.100000X0.100000X-0.130000X0.100000X0.130000X-0.100000X0.130000X-0.100000X-0.130000X0*%
%ADD17RoundRect,0.250000X0.250000X0.475000X-0.250000X0.475000X-0.250000X-0.475000X0.250000X-0.475000X0*%
%ADD18RoundRect,0.140000X0.140000X0.170000X-0.140000X0.170000X-0.140000X-0.170000X0.140000X-0.170000X0*%
%ADD19RoundRect,0.140000X-0.140000X-0.170000X0.140000X-0.170000X0.140000X0.170000X-0.140000X0.170000X0*%
%ADD20RoundRect,0.112500X0.112500X0.112500X-0.112500X0.112500X-0.112500X-0.112500X0.112500X-0.112500X0*%
%ADD21R,0.600000X0.400000*%
%ADD22R,0.400000X0.600000*%
%ADD23R,0.400000X0.650000*%
%ADD24C,0.990600*%
%ADD25C,0.787400*%
%ADD26RoundRect,0.125000X0.125000X0.137500X-0.125000X0.137500X-0.125000X-0.137500X0.125000X-0.137500X0*%
G04 APERTURE END LIST*
D10*
%TO.C,REF\u002A\u002A*%
X-20500000Y-20500000D03*
%TD*%
%TO.C,REF\u002A\u002A*%
X-20500000Y20500000D03*
%TD*%
%TO.C,REF\u002A\u002A*%
X20500000Y20500000D03*
%TD*%
D11*
%TO.C,REF\u002A\u002A*%
X-16800000Y-1850000D03*
X-16800000Y-1110000D03*
X-16800000Y-370000D03*
X-16800000Y370000D03*
X-16800000Y1110000D03*
X-16800000Y1850000D03*
%TD*%
%TO.C,REF\u002A\u002A*%
X16800000Y1110003D03*
X16800000Y-1849997D03*
X16800000Y370003D03*
X16800000Y-369997D03*
X16800000Y1850003D03*
X16800000Y-1109997D03*
%TD*%
D12*
%TO.C,Y1*%
X1550000Y2600000D03*
X4050000Y2600000D03*
%TD*%
D13*
%TO.C,R5*%
X8612500Y-7150000D03*
X6787500Y-7150000D03*
%TD*%
%TO.C,R4*%
X8612500Y-5150000D03*
X6787500Y-5150000D03*
%TD*%
%TO.C,R3*%
X8612500Y-3150000D03*
X6787500Y-3150000D03*
%TD*%
D14*
%TO.C,Q1*%
X-8937500Y5250000D03*
X-7062500Y6200000D03*
X-7062500Y4300000D03*
%TD*%
D15*
%TO.C,C6*%
X1300000Y7745000D03*
X1300000Y8705000D03*
%TD*%
D16*
%TO.C,C5*%
X1550000Y4280000D03*
X1550000Y4920000D03*
%TD*%
D17*
%TO.C,C4*%
X-3050000Y1300000D03*
X-4950000Y1300000D03*
%TD*%
D16*
%TO.C,C3*%
X4050000Y4280000D03*
X4050000Y4920000D03*
%TD*%
D18*
%TO.C,C2*%
X8805000Y10300000D03*
X7845000Y10300000D03*
%TD*%
D19*
%TO.C,C1*%
X7195000Y5925000D03*
X8155000Y5925000D03*
%TD*%
D20*
%TO.C,D1*%
X11425000Y-425000D03*
X10575000Y-425000D03*
X10575000Y425000D03*
X11425000Y425000D03*
%TD*%
D21*
%TO.C,U3*%
X4650000Y-11850000D03*
X4650000Y-10750000D03*
X4650000Y-9950000D03*
X4650000Y-8350000D03*
X3750000Y-7950000D03*
X4650000Y-7550000D03*
X3750000Y-7150000D03*
X4650000Y-6750000D03*
X3750000Y-6350000D03*
X4650000Y-5950000D03*
X3750000Y-5550000D03*
X4650000Y-5150000D03*
X3750000Y-4750000D03*
X4650000Y-4350000D03*
D22*
X4800000Y-950000D03*
X4000000Y-950000D03*
X3200000Y-950000D03*
X2400000Y-950000D03*
X2000000Y-1850000D03*
X1600000Y-950000D03*
X1200000Y-1850000D03*
X800000Y-950000D03*
X400000Y-1850000D03*
X0Y-950000D03*
X-400000Y-1850000D03*
X-800000Y-950000D03*
X-1200000Y-1850000D03*
X-1600000Y-950000D03*
X-2000000Y-1850000D03*
X-2400000Y-950000D03*
X-3200000Y-950000D03*
X-4000000Y-950000D03*
X-4800000Y-950000D03*
D21*
X-4650000Y-1950000D03*
X-4650000Y-2750000D03*
X-3750000Y-3150000D03*
X-4650000Y-3550000D03*
X-3750000Y-3950000D03*
X-4650000Y-4350000D03*
X-3750000Y-4750000D03*
X-4650000Y-5150000D03*
X-3750000Y-5550000D03*
X-3750000Y-6350000D03*
X-4650000Y-6750000D03*
X-3750000Y-7150000D03*
X-4650000Y-7550000D03*
X-3750000Y-7950000D03*
X-4650000Y-8350000D03*
X-3750000Y-8750000D03*
X-3750000Y-9550000D03*
X-4650000Y-9950000D03*
X-3750000Y-10350000D03*
X-4650000Y-10750000D03*
X-3750000Y-11150000D03*
X-4650000Y-11850000D03*
D22*
X2000000Y-7550000D03*
X1200000Y-7550000D03*
X400000Y-7550000D03*
X-400000Y-7550000D03*
X-1200000Y-7550000D03*
X-2000000Y-7550000D03*
%TD*%
D23*
%TO.C,U1*%
X8650000Y9050000D03*
X8000000Y9050000D03*
X7350000Y9050000D03*
X7350000Y7150000D03*
X8000000Y7150000D03*
X8650000Y7150000D03*
%TD*%
D24*
%TO.C,J1*%
X-8922369Y-11514472D03*
X-7485528Y-10077631D03*
X-11796051Y-7203949D03*
D25*
X-11347038Y-8550987D03*
X-10449013Y-7652962D03*
X-10449013Y-9449013D03*
X-9550987Y-8550987D03*
X-9550987Y-10347038D03*
X-8652962Y-9449013D03*
%TD*%
D26*
%TO.C,U2*%
X1200000Y12187500D03*
X400000Y12187500D03*
X-400000Y12187500D03*
X-1200000Y12187500D03*
X-1200000Y9812500D03*
X-400000Y9812500D03*
X400000Y9812500D03*
X1200000Y9812500D03*
%TD*%
M02*
