%TF.GenerationSoftware,KiCad,Pcbnew,7.0.6-7.0.6~ubuntu23.04.1*%
%TF.CreationDate,2023-08-08T21:58:14-04:00*%
%TF.ProjectId,EnviroPuck,456e7669-726f-4507-9563-6b2e6b696361,rev?*%
%TF.SameCoordinates,Original*%
%TF.FileFunction,Copper,L4,Bot*%
%TF.FilePolarity,Positive*%
%FSLAX46Y46*%
G04 Gerber Fmt 4.6, Leading zero omitted, Abs format (unit mm)*
G04 Created by KiCad (PCBNEW 7.0.6-7.0.6~ubuntu23.04.1) date 2023-08-08 21:58:14*
%MOMM*%
%LPD*%
G01*
G04 APERTURE LIST*
%TA.AperFunction,SMDPad,CuDef*%
%ADD10R,5.000000X5.000000*%
%TD*%
%TA.AperFunction,SMDPad,CuDef*%
%ADD11R,4.000000X4.000000*%
%TD*%
%TA.AperFunction,ViaPad*%
%ADD12C,0.500000*%
%TD*%
%TA.AperFunction,Conductor*%
%ADD13C,0.150000*%
%TD*%
%TA.AperFunction,Conductor*%
%ADD14C,0.300000*%
%TD*%
%TA.AperFunction,Conductor*%
%ADD15C,0.550000*%
%TD*%
G04 APERTURE END LIST*
D10*
%TO.P,BT1,1,+*%
%TO.N,Net-(BT1-+)*%
X12950000Y0D03*
X-12950000Y0D03*
D11*
%TO.P,BT1,2,-*%
%TO.N,GND*%
X0Y0D03*
%TD*%
D12*
%TO.N,GND*%
X-13000000Y-5000000D03*
X13000000Y-5000000D03*
X13000000Y5000000D03*
%TO.N,/~{RST}*%
X-11200000Y-10250000D03*
X-2950000Y-4750000D03*
%TO.N,GND*%
X-10250000Y-11050000D03*
%TO.N,+BATT*%
X-12100000Y-9300000D03*
%TO.N,GND*%
X4050000Y5650000D03*
X1550000Y5650000D03*
%TO.N,/VDD_BME680*%
X9800000Y9050000D03*
%TO.N,GND*%
X8150000Y5150000D03*
%TO.N,+BATT*%
X7200000Y5150000D03*
%TO.N,GND*%
X7850000Y11100000D03*
X2200000Y8700000D03*
%TO.N,/VDD_BME680*%
X1300000Y6950000D03*
X1200000Y10750000D03*
X-400000Y10750000D03*
%TO.N,GND*%
X400000Y11400000D03*
%TO.N,/MISO*%
X-1200000Y11400000D03*
X-1550000Y7150000D03*
%TO.N,+BATT*%
X2900000Y-5550000D03*
%TO.N,GND*%
X6050000Y-950000D03*
X-5800000Y-950000D03*
%TO.N,+BATT*%
X10000498Y1600000D03*
%TO.N,GND*%
X6150000Y-10750000D03*
X6150000Y-11550000D03*
X-5750000Y-11550000D03*
%TO.N,+BATT*%
X-3050000Y2700000D03*
%TO.N,GND*%
X-6000000Y1300000D03*
%TO.N,+BATT*%
X-5800000Y6200000D03*
%TO.N,GND*%
X-5800000Y4300000D03*
%TO.N,Net-(BT1-+)*%
X-13000000Y4000000D03*
X-14000000Y4000000D03*
X-15000000Y4000000D03*
X-15000000Y5000000D03*
X-11000000Y5000000D03*
X-11000000Y4000000D03*
X-12000000Y4000000D03*
X-12000000Y5000000D03*
X-13000000Y5000000D03*
X-14000000Y5000000D03*
%TO.N,*%
X1500000Y-2750000D03*
X750000Y-2750000D03*
X0Y-2750000D03*
X-750000Y-2750000D03*
X-1500000Y-2750000D03*
%TD*%
D13*
%TO.N,/MISO*%
X-1550000Y7150000D02*
X-850000Y7850000D01*
X-1200000Y10700000D02*
X-1200000Y11400000D01*
X-850000Y7850000D02*
X-850000Y10350000D01*
X-850000Y10350000D02*
X-1200000Y10700000D01*
%TO.N,/~{RST}*%
X-5700000Y-4750000D02*
X-11200000Y-10250000D01*
X-2950000Y-4750000D02*
X-5700000Y-4750000D01*
D14*
%TO.N,/VDD_BME680*%
X9800000Y9050000D02*
X7700000Y6950000D01*
X7700000Y6950000D02*
X1300000Y6950000D01*
X200000Y10750000D02*
X1200000Y10750000D01*
X100000Y10750000D02*
X-400000Y10250000D01*
X-400000Y10750000D02*
X200000Y10750000D01*
X-400000Y8650000D02*
X-400000Y10250000D01*
X-400000Y10250000D02*
X-400000Y10750000D01*
X200000Y10750000D02*
X100000Y10750000D01*
X1300000Y6950000D02*
X-400000Y8650000D01*
D15*
%TO.N,Net-(BT1-+)*%
X-12950000Y0D02*
X-12950000Y-3550000D01*
X-12950000Y-3550000D02*
X-12500000Y-4000000D01*
X12950000Y-3300000D02*
X12950000Y0D01*
X-12500000Y-4000000D02*
X12250000Y-4000000D01*
X12250000Y-4000000D02*
X12950000Y-3300000D01*
%TD*%
%TA.AperFunction,Conductor*%
%TO.N,Net-(BT1-+)*%
G36*
X-10426434Y5582687D02*
G01*
X-10401124Y5538850D01*
X-10400000Y5526000D01*
X-10400000Y3074000D01*
X-10417313Y3026434D01*
X-10461150Y3001124D01*
X-10474000Y3000000D01*
X-12700000Y3000000D01*
X-12700000Y0D01*
X-13200000Y0D01*
X-13200000Y3000000D01*
X-15426000Y3000000D01*
X-15473566Y3017313D01*
X-15498876Y3061150D01*
X-15500000Y3074000D01*
X-15500000Y5526000D01*
X-15482687Y5573566D01*
X-15438850Y5598876D01*
X-15426000Y5600000D01*
X-10474000Y5600000D01*
X-10426434Y5582687D01*
G37*
%TD.AperFunction*%
%TD*%
%TA.AperFunction,Conductor*%
%TO.N,GND*%
G36*
X408031Y16844493D02*
G01*
X1219603Y16805238D01*
X1221378Y16805110D01*
X1470365Y16780966D01*
X2030106Y16726689D01*
X2031840Y16726479D01*
X2835880Y16609072D01*
X2837590Y16608780D01*
X3635007Y16452666D01*
X3636679Y16452296D01*
X4425644Y16257834D01*
X4427307Y16257381D01*
X5147077Y16042597D01*
X5205913Y16025040D01*
X5207591Y16024496D01*
X5974071Y15754807D01*
X5975703Y15754188D01*
X6728253Y15447785D01*
X6729851Y15447089D01*
X7098302Y15275880D01*
X7466732Y15104680D01*
X7468335Y15103887D01*
X8187765Y14726302D01*
X8189328Y14725433D01*
X8889682Y14313525D01*
X8891189Y14312590D01*
X9570832Y13867323D01*
X9572281Y13866323D01*
X10229653Y13388715D01*
X10231033Y13387660D01*
X10649971Y13051195D01*
X10649978Y13051188D01*
X10654392Y13047644D01*
X10654393Y13047642D01*
X10672466Y13033129D01*
X10674263Y13031685D01*
X10679556Y13027433D01*
X10682627Y13024671D01*
X10730278Y12976736D01*
X10740539Y12963801D01*
X10773064Y12911788D01*
X10780201Y12896899D01*
X10800381Y12838976D01*
X10804040Y12822877D01*
X10811587Y12755583D01*
X10811817Y12751453D01*
X10811813Y12710721D01*
X10811818Y12710678D01*
X10811818Y11471471D01*
X10811863Y11470772D01*
X10811858Y11420089D01*
X10844458Y11277184D01*
X10844462Y11277173D01*
X10908051Y11145101D01*
X10908053Y11145097D01*
X10979071Y11056033D01*
X10999441Y11030487D01*
X11114045Y10939086D01*
X11114050Y10939084D01*
X11114051Y10939083D01*
X11246108Y10875485D01*
X11246112Y10875484D01*
X11246116Y10875482D01*
X11389029Y10842865D01*
X11462323Y10842867D01*
X12727073Y10842867D01*
X12731111Y10842647D01*
X12796705Y10835446D01*
X12812416Y10831960D01*
X12869154Y10812689D01*
X12883741Y10805885D01*
X12934960Y10774797D01*
X12947734Y10764993D01*
X12961024Y10752270D01*
X12991026Y10723547D01*
X12995726Y10719048D01*
X12998486Y10716100D01*
X13136421Y10551690D01*
X13137475Y10550374D01*
X13630947Y9904580D01*
X13631998Y9903133D01*
X14093552Y9234457D01*
X14094532Y9232961D01*
X14523243Y8542766D01*
X14524150Y8541224D01*
X14919016Y7831114D01*
X14919847Y7829531D01*
X15279944Y7101178D01*
X15280698Y7099556D01*
X15605184Y6354657D01*
X15605858Y6353001D01*
X15893975Y5593298D01*
X15894569Y5591611D01*
X15926296Y5493966D01*
X16117943Y4904135D01*
X16145641Y4818891D01*
X16146150Y4817185D01*
X16359981Y4031825D01*
X16585751Y3043247D01*
X16597646Y2991165D01*
X16599503Y2974689D01*
X16599503Y2899342D01*
X16634459Y2701093D01*
X16700464Y2519747D01*
X16703312Y2511922D01*
X16713891Y2493598D01*
X16739363Y2449480D01*
X16748153Y2399630D01*
X16722843Y2355793D01*
X16685810Y2339233D01*
X16657544Y2335169D01*
X16526626Y2275380D01*
X16417860Y2181135D01*
X16417855Y2181128D01*
X16340047Y2060058D01*
X16340046Y2060054D01*
X16299500Y1921968D01*
X16299500Y1778039D01*
X16340046Y1639953D01*
X16340047Y1639949D01*
X16417127Y1520011D01*
X16428279Y1470636D01*
X16417127Y1439997D01*
X16340048Y1320058D01*
X16340046Y1320054D01*
X16299500Y1181968D01*
X16299500Y1038039D01*
X16340046Y899953D01*
X16340047Y899950D01*
X16340048Y899949D01*
X16417127Y780010D01*
X16428279Y730635D01*
X16417127Y699996D01*
X16340048Y580058D01*
X16340046Y580054D01*
X16299500Y441968D01*
X16299500Y298039D01*
X16313606Y250000D01*
X16340047Y159950D01*
X16340048Y159949D01*
X16417127Y40010D01*
X16428279Y-9365D01*
X16417127Y-40004D01*
X16340048Y-159942D01*
X16340046Y-159946D01*
X16299500Y-298032D01*
X16299500Y-441961D01*
X16340046Y-580047D01*
X16340047Y-580050D01*
X16340048Y-580051D01*
X16417127Y-699990D01*
X16428279Y-749365D01*
X16417127Y-780004D01*
X16340048Y-899942D01*
X16340046Y-899946D01*
X16299500Y-1038032D01*
X16299500Y-1181961D01*
X16340046Y-1320047D01*
X16340047Y-1320051D01*
X16417127Y-1439989D01*
X16428279Y-1489364D01*
X16417127Y-1520003D01*
X16340048Y-1639942D01*
X16340046Y-1639946D01*
X16299500Y-1778032D01*
X16299500Y-1921961D01*
X16340046Y-2060047D01*
X16340047Y-2060051D01*
X16381260Y-2124179D01*
X16417857Y-2181125D01*
X16417859Y-2181126D01*
X16417860Y-2181128D01*
X16488211Y-2242087D01*
X16526627Y-2275374D01*
X16657543Y-2335162D01*
X16676804Y-2337931D01*
X16685808Y-2339226D01*
X16730426Y-2363132D01*
X16749240Y-2410125D01*
X16739363Y-2449473D01*
X16703308Y-2511922D01*
X16634457Y-2701089D01*
X16599500Y-2899337D01*
X16599499Y-2899345D01*
X16599499Y-2974686D01*
X16597642Y-2991160D01*
X16359982Y-4031821D01*
X16146153Y-4817175D01*
X16145641Y-4818889D01*
X15894569Y-5591609D01*
X15893975Y-5593296D01*
X15605858Y-6352999D01*
X15605184Y-6354655D01*
X15280698Y-7099554D01*
X15279944Y-7101176D01*
X14919847Y-7829529D01*
X14919016Y-7831112D01*
X14524150Y-8541222D01*
X14523243Y-8542764D01*
X14094532Y-9232959D01*
X14093552Y-9234455D01*
X13631998Y-9903131D01*
X13630947Y-9904578D01*
X13137631Y-10550167D01*
X13136511Y-10551562D01*
X12612584Y-11172562D01*
X12611398Y-11173900D01*
X12058057Y-11768884D01*
X12056808Y-11770164D01*
X11475392Y-12337698D01*
X11474082Y-12338916D01*
X10865902Y-12877716D01*
X10864535Y-12878869D01*
X10231044Y-13387650D01*
X10229622Y-13388736D01*
X9572304Y-13866305D01*
X9570832Y-13867321D01*
X8891201Y-14312580D01*
X8889682Y-14313523D01*
X8189328Y-14725431D01*
X8187765Y-14726300D01*
X7468335Y-15103885D01*
X7466732Y-15104678D01*
X6729872Y-15447078D01*
X6728232Y-15447792D01*
X6301905Y-15621373D01*
X6251322Y-15623275D01*
X6211350Y-15592218D01*
X6200000Y-15552836D01*
X6200000Y-12100000D01*
X-6200000Y-12100000D01*
X-6200000Y-15552835D01*
X-6217313Y-15600401D01*
X-6261150Y-15625711D01*
X-6301905Y-15621372D01*
X-6728240Y-15447789D01*
X-6729880Y-15447075D01*
X-7466734Y-15104678D01*
X-7468337Y-15103885D01*
X-8187753Y-14726307D01*
X-8189316Y-14725438D01*
X-8889676Y-14313529D01*
X-8891195Y-14312586D01*
X-9570844Y-13867315D01*
X-9572307Y-13866305D01*
X-10229638Y-13388726D01*
X-10231034Y-13387658D01*
X-10864538Y-12878869D01*
X-10865905Y-12877716D01*
X-11474084Y-12338916D01*
X-11475381Y-12337710D01*
X-12056817Y-11770157D01*
X-12058059Y-11768884D01*
X-12254060Y-11558133D01*
X-9671976Y-11558133D01*
X-9641701Y-11729826D01*
X-9572649Y-11889909D01*
X-9572648Y-11889910D01*
X-9468537Y-12029755D01*
X-9397125Y-12089677D01*
X-9334986Y-12141819D01*
X-9334985Y-12141819D01*
X-9334983Y-12141821D01*
X-9179184Y-12220066D01*
X-9009540Y-12260272D01*
X-8878933Y-12260272D01*
X-8749205Y-12245109D01*
X-8585376Y-12185480D01*
X-8439715Y-12089677D01*
X-8320073Y-11962865D01*
X-8232902Y-11811879D01*
X-8182900Y-11644860D01*
X-8172762Y-11470812D01*
X-8203037Y-11299118D01*
X-8272090Y-11139034D01*
X-8375595Y-11000003D01*
X7844571Y-11000003D01*
X7864242Y-11212303D01*
X7864243Y-11212309D01*
X7922593Y-11417383D01*
X7922596Y-11417393D01*
X8017632Y-11608252D01*
X8017636Y-11608258D01*
X8062813Y-11668082D01*
X8146128Y-11778407D01*
X8303698Y-11922052D01*
X8484981Y-12034298D01*
X8683802Y-12111321D01*
X8893390Y-12150500D01*
X9106610Y-12150500D01*
X9316198Y-12111321D01*
X9515019Y-12034298D01*
X9696302Y-11922052D01*
X9853872Y-11778407D01*
X9982366Y-11608255D01*
X10077405Y-11417389D01*
X10135756Y-11212310D01*
X10142547Y-11139030D01*
X10155429Y-11000003D01*
X10155429Y-10999996D01*
X10135757Y-10787696D01*
X10135756Y-10787690D01*
X10117553Y-10723713D01*
X10077405Y-10582611D01*
X10061945Y-10551563D01*
X9982367Y-10391747D01*
X9982363Y-10391741D01*
X9969746Y-10375034D01*
X9853872Y-10221593D01*
X9696302Y-10077948D01*
X9515019Y-9965702D01*
X9360989Y-9906031D01*
X9316201Y-9888680D01*
X9316200Y-9888679D01*
X9316198Y-9888679D01*
X9224150Y-9871472D01*
X9106613Y-9849500D01*
X9106610Y-9849500D01*
X8893390Y-9849500D01*
X8893386Y-9849500D01*
X8736669Y-9878796D01*
X8683802Y-9888679D01*
X8683800Y-9888679D01*
X8683798Y-9888680D01*
X8532627Y-9947244D01*
X8484981Y-9965702D01*
X8484976Y-9965704D01*
X8484976Y-9965705D01*
X8303700Y-10077946D01*
X8146130Y-10221590D01*
X8017636Y-10391741D01*
X8017632Y-10391747D01*
X7922596Y-10582606D01*
X7922593Y-10582616D01*
X7864243Y-10787690D01*
X7864242Y-10787696D01*
X7844571Y-10999996D01*
X7844571Y-11000003D01*
X-8375595Y-11000003D01*
X-8376201Y-10999189D01*
X-8447615Y-10939265D01*
X-8509753Y-10887124D01*
X-8665554Y-10808878D01*
X-8665558Y-10808877D01*
X-8835198Y-10768672D01*
X-8965805Y-10768672D01*
X-9095534Y-10783835D01*
X-9095538Y-10783836D01*
X-9259360Y-10843462D01*
X-9405022Y-10939265D01*
X-9524666Y-11066080D01*
X-9611836Y-11217064D01*
X-9611838Y-11217068D01*
X-9661837Y-11384077D01*
X-9661838Y-11384083D01*
X-9661838Y-11384084D01*
X-9668550Y-11499324D01*
X-9671976Y-11558133D01*
X-12254060Y-11558133D01*
X-12611400Y-11173900D01*
X-12612565Y-11172585D01*
X-13136524Y-10551550D01*
X-13137633Y-10550168D01*
X-13630956Y-9904567D01*
X-13632007Y-9903121D01*
X-14048313Y-9300000D01*
X-12555133Y-9300000D01*
X-12536698Y-9428223D01*
X-12536698Y-9428224D01*
X-12536697Y-9428226D01*
X-12482882Y-9546063D01*
X-12398049Y-9643967D01*
X-12289069Y-9714004D01*
X-12164772Y-9750500D01*
X-12035228Y-9750500D01*
X-11910931Y-9714004D01*
X-11801951Y-9643967D01*
X-11717118Y-9546063D01*
X-11663303Y-9428226D01*
X-11644867Y-9300000D01*
X-11663303Y-9171774D01*
X-11717118Y-9053937D01*
X-11801951Y-8956033D01*
X-11868968Y-8912964D01*
X-11910932Y-8885995D01*
X-12035228Y-8849500D01*
X-12164772Y-8849500D01*
X-12289069Y-8885995D01*
X-12398046Y-8956031D01*
X-12398050Y-8956034D01*
X-12482881Y-9053935D01*
X-12536698Y-9171776D01*
X-12555133Y-9300000D01*
X-14048313Y-9300000D01*
X-14093558Y-9234451D01*
X-14094538Y-9232955D01*
X-14132540Y-9171774D01*
X-14523244Y-8542764D01*
X-14524147Y-8541229D01*
X-14919022Y-7831105D01*
X-14919853Y-7829522D01*
X-15207550Y-7247610D01*
X-12545658Y-7247610D01*
X-12515383Y-7419303D01*
X-12446331Y-7579386D01*
X-12446330Y-7579387D01*
X-12342219Y-7719232D01*
X-12270807Y-7779154D01*
X-12208668Y-7831296D01*
X-12208667Y-7831296D01*
X-12208665Y-7831298D01*
X-12052866Y-7909543D01*
X-11883222Y-7949749D01*
X-11752615Y-7949749D01*
X-11622887Y-7934586D01*
X-11459058Y-7874957D01*
X-11313397Y-7779154D01*
X-11193755Y-7652342D01*
X-11106584Y-7501356D01*
X-11056582Y-7334337D01*
X-11046444Y-7160289D01*
X-11076719Y-6988595D01*
X-11145772Y-6828511D01*
X-11249883Y-6688666D01*
X-11321297Y-6628742D01*
X-11383435Y-6576601D01*
X-11539236Y-6498355D01*
X-11539240Y-6498354D01*
X-11708880Y-6458149D01*
X-11839487Y-6458149D01*
X-11969216Y-6473312D01*
X-11969220Y-6473313D01*
X-12133042Y-6532939D01*
X-12278704Y-6628742D01*
X-12398348Y-6755557D01*
X-12485518Y-6906541D01*
X-12485520Y-6906545D01*
X-12535519Y-7073554D01*
X-12535520Y-7073560D01*
X-12535520Y-7073561D01*
X-12537128Y-7101176D01*
X-12545658Y-7247610D01*
X-15207550Y-7247610D01*
X-15279946Y-7101177D01*
X-15280700Y-7099555D01*
X-15329035Y-6988595D01*
X-15605192Y-6354639D01*
X-15605855Y-6353012D01*
X-15893977Y-5593296D01*
X-15894565Y-5591628D01*
X-16145651Y-4818863D01*
X-16146144Y-4817214D01*
X-16359978Y-4031840D01*
X-16475843Y-3524500D01*
X-16597643Y-2991173D01*
X-16599500Y-2974697D01*
X-16599500Y-2899345D01*
X-16599501Y-2899337D01*
X-16634458Y-2701088D01*
X-16638906Y-2688867D01*
X-16703311Y-2511918D01*
X-16739364Y-2449473D01*
X-16748153Y-2399625D01*
X-16722843Y-2355788D01*
X-16685808Y-2339228D01*
X-16657543Y-2335165D01*
X-16526627Y-2275377D01*
X-16417857Y-2181128D01*
X-16340047Y-2060053D01*
X-16299501Y-1921963D01*
X-16299500Y-1921963D01*
X-16299500Y-1778036D01*
X-16299501Y-1778035D01*
X-16308789Y-1746403D01*
X-16340047Y-1639947D01*
X-16417128Y-1520006D01*
X-16428280Y-1470631D01*
X-16417131Y-1439997D01*
X-16340047Y-1320053D01*
X-16299501Y-1181963D01*
X-16299500Y-1181963D01*
X-16299500Y-1038036D01*
X-16299501Y-1038035D01*
X-16308789Y-1006403D01*
X-16340047Y-899947D01*
X-16417129Y-780005D01*
X-16428280Y-730632D01*
X-16417128Y-699993D01*
X-16340048Y-580054D01*
X-16340049Y-580054D01*
X-16340047Y-580053D01*
X-16299501Y-441963D01*
X-16299500Y-441963D01*
X-16299500Y-298036D01*
X-16299501Y-298035D01*
X-16313605Y-250000D01*
X-16340047Y-159947D01*
X-16417129Y-40005D01*
X-16428280Y9368D01*
X-16417128Y40007D01*
X-16340048Y159946D01*
X-16340049Y159946D01*
X-16340047Y159947D01*
X-16299501Y298037D01*
X-16299500Y298037D01*
X-16299500Y441964D01*
X-16299501Y441965D01*
X-16308789Y473597D01*
X-16340047Y580053D01*
X-16417129Y699995D01*
X-16428280Y749368D01*
X-16417128Y780007D01*
X-16340048Y899946D01*
X-16340049Y899946D01*
X-16340047Y899947D01*
X-16299501Y1038037D01*
X-16299500Y1038037D01*
X-16299500Y1181964D01*
X-16299501Y1181965D01*
X-16321250Y1256035D01*
X-16340047Y1320053D01*
X-16417128Y1439994D01*
X-16428280Y1489369D01*
X-16417131Y1520003D01*
X-16340047Y1639947D01*
X-16299501Y1778037D01*
X-16299500Y1778037D01*
X-16299500Y1921964D01*
X-16299501Y1921965D01*
X-16326526Y2014004D01*
X-16340047Y2060053D01*
X-16417857Y2181128D01*
X-16417860Y2181131D01*
X-16417861Y2181132D01*
X-16526627Y2275377D01*
X-16566676Y2293667D01*
X-16657543Y2335165D01*
X-16657545Y2335166D01*
X-16657546Y2335166D01*
X-16685808Y2339229D01*
X-16730426Y2363135D01*
X-16749240Y2410128D01*
X-16739363Y2449475D01*
X-16703309Y2511921D01*
X-16634457Y2701092D01*
X-16599500Y2899344D01*
X-16599500Y2974690D01*
X-16597643Y2991165D01*
X-16585750Y3043239D01*
X-16579749Y3069518D01*
X-15705500Y3069518D01*
X-15705109Y3060559D01*
X-15703595Y3043247D01*
X-15703593Y3043239D01*
X-15676843Y2958398D01*
X-15676842Y2958396D01*
X-15651531Y2914558D01*
X-15620681Y2873829D01*
X-15620680Y2873829D01*
X-15620678Y2873826D01*
X-15543853Y2824207D01*
X-15539835Y2822745D01*
X-15501056Y2790210D01*
X-15492263Y2740361D01*
X-15517570Y2696522D01*
X-15524026Y2691678D01*
X-15594552Y2644552D01*
X-15594553Y2644551D01*
X-15638867Y2578233D01*
X-15650500Y2519747D01*
X-15650500Y-2519746D01*
X-15638867Y-2578232D01*
X-15621154Y-2604740D01*
X-15594552Y-2644552D01*
X-15550440Y-2674027D01*
X-15528233Y-2688866D01*
X-15528232Y-2688866D01*
X-15528231Y-2688867D01*
X-15469748Y-2700500D01*
X-13499500Y-2700500D01*
X-13451934Y-2717813D01*
X-13426624Y-2761650D01*
X-13425500Y-2774500D01*
X-13425500Y-3490915D01*
X-13427191Y-3506644D01*
X-13429167Y-3515724D01*
X-13429167Y-3515729D01*
X-13425594Y-3565687D01*
X-13425500Y-3568309D01*
X-13425500Y-3584012D01*
X-13423266Y-3599555D01*
X-13422984Y-3602179D01*
X-13419412Y-3652112D01*
X-13419412Y-3652113D01*
X-13416166Y-3660816D01*
X-13412255Y-3676138D01*
X-13410932Y-3685337D01*
X-13410929Y-3685349D01*
X-13390132Y-3730888D01*
X-13389121Y-3733328D01*
X-13371630Y-3780225D01*
X-13371629Y-3780226D01*
X-13366058Y-3787669D01*
X-13357989Y-3801268D01*
X-13354130Y-3809718D01*
X-13321346Y-3847553D01*
X-13319689Y-3849610D01*
X-13310279Y-3862180D01*
X-13310277Y-3862182D01*
X-13299176Y-3873283D01*
X-13297375Y-3875218D01*
X-13264593Y-3913052D01*
X-13264591Y-3913053D01*
X-13264589Y-3913055D01*
X-13256775Y-3918077D01*
X-13244456Y-3928003D01*
X-12878005Y-4294454D01*
X-12868079Y-4306772D01*
X-12863059Y-4314583D01*
X-12863055Y-4314589D01*
X-12825210Y-4347382D01*
X-12823285Y-4349174D01*
X-12812179Y-4360280D01*
X-12799612Y-4369687D01*
X-12797554Y-4371346D01*
X-12764321Y-4400141D01*
X-12759718Y-4404130D01*
X-12751268Y-4407989D01*
X-12737667Y-4416059D01*
X-12733144Y-4419445D01*
X-12730228Y-4421628D01*
X-12730227Y-4421628D01*
X-12730226Y-4421629D01*
X-12683296Y-4439132D01*
X-12680893Y-4440128D01*
X-12635342Y-4460931D01*
X-12626143Y-4462253D01*
X-12610814Y-4466166D01*
X-12602115Y-4469411D01*
X-12552165Y-4472983D01*
X-12549588Y-4473260D01*
X-12536189Y-4475186D01*
X-12534019Y-4475499D01*
X-12534017Y-4475499D01*
X-12534011Y-4475500D01*
X-12518310Y-4475500D01*
X-12515689Y-4475593D01*
X-12465729Y-4479167D01*
X-12460086Y-4477939D01*
X-12456645Y-4477191D01*
X-12440915Y-4475500D01*
X-5993769Y-4475500D01*
X-5946203Y-4492813D01*
X-5920893Y-4536650D01*
X-5929683Y-4586500D01*
X-5941443Y-4601826D01*
X-11117442Y-9777826D01*
X-11163318Y-9799218D01*
X-11169768Y-9799500D01*
X-11264772Y-9799500D01*
X-11389069Y-9835995D01*
X-11498046Y-9906031D01*
X-11498050Y-9906034D01*
X-11582881Y-10003935D01*
X-11636698Y-10121776D01*
X-11655133Y-10250000D01*
X-11636698Y-10378223D01*
X-11636698Y-10378224D01*
X-11636697Y-10378226D01*
X-11582882Y-10496063D01*
X-11498049Y-10593967D01*
X-11389069Y-10664004D01*
X-11264772Y-10700500D01*
X-11135228Y-10700500D01*
X-11010931Y-10664004D01*
X-10901951Y-10593967D01*
X-10817118Y-10496063D01*
X-10763303Y-10378226D01*
X-10744867Y-10250000D01*
X-10747832Y-10229381D01*
X-10737465Y-10179837D01*
X-10726915Y-10166529D01*
X-10681678Y-10121292D01*
X-8235135Y-10121292D01*
X-8204860Y-10292985D01*
X-8135808Y-10453068D01*
X-8135807Y-10453069D01*
X-8031696Y-10592914D01*
X-7960284Y-10652836D01*
X-7898145Y-10704978D01*
X-7898144Y-10704978D01*
X-7898142Y-10704980D01*
X-7742343Y-10783225D01*
X-7572699Y-10823431D01*
X-7442092Y-10823431D01*
X-7312364Y-10808268D01*
X-7148535Y-10748639D01*
X-7002874Y-10652836D01*
X-6883232Y-10526024D01*
X-6796061Y-10375038D01*
X-6746059Y-10208019D01*
X-6735921Y-10033971D01*
X-6766196Y-9862277D01*
X-6835249Y-9702193D01*
X-6939360Y-9562348D01*
X-7010774Y-9502424D01*
X-7072912Y-9450283D01*
X-7228713Y-9372037D01*
X-7228717Y-9372036D01*
X-7398357Y-9331831D01*
X-7528964Y-9331831D01*
X-7658693Y-9346994D01*
X-7658697Y-9346995D01*
X-7822519Y-9406621D01*
X-7968181Y-9502424D01*
X-8087825Y-9629239D01*
X-8174995Y-9780223D01*
X-8174997Y-9780227D01*
X-8224996Y-9947236D01*
X-8224997Y-9947244D01*
X-8235135Y-10121292D01*
X-10681678Y-10121292D01*
X-6110384Y-5549999D01*
X2444867Y-5549999D01*
X2463302Y-5678223D01*
X2463302Y-5678224D01*
X2463303Y-5678226D01*
X2517118Y-5796063D01*
X2601951Y-5893967D01*
X2710931Y-5964004D01*
X2835228Y-6000500D01*
X2964772Y-6000500D01*
X3089069Y-5964004D01*
X3198049Y-5893967D01*
X3282882Y-5796063D01*
X3336697Y-5678226D01*
X3355133Y-5550000D01*
X3336697Y-5421774D01*
X3282882Y-5303937D01*
X3198049Y-5206033D01*
X3131032Y-5162964D01*
X3089068Y-5135995D01*
X2964772Y-5099500D01*
X2835228Y-5099500D01*
X2710931Y-5135995D01*
X2601954Y-5206031D01*
X2601950Y-5206034D01*
X2517119Y-5303935D01*
X2463302Y-5421776D01*
X2444867Y-5549999D01*
X-6110384Y-5549999D01*
X-5607559Y-5047174D01*
X-5561682Y-5025782D01*
X-5555232Y-5025500D01*
X-3341170Y-5025500D01*
X-3293604Y-5042813D01*
X-3285244Y-5051041D01*
X-3248053Y-5093963D01*
X-3248052Y-5093964D01*
X-3248049Y-5093967D01*
X-3139069Y-5164004D01*
X-3014772Y-5200500D01*
X-2885228Y-5200500D01*
X-2760931Y-5164004D01*
X-2651951Y-5093967D01*
X-2567118Y-4996063D01*
X-2513303Y-4878226D01*
X-2494867Y-4750000D01*
X-2513303Y-4621774D01*
X-2532272Y-4580240D01*
X-2536282Y-4529781D01*
X-2506920Y-4488548D01*
X-2464958Y-4475500D01*
X12190915Y-4475500D01*
X12206645Y-4477191D01*
X12212275Y-4478415D01*
X12215729Y-4479167D01*
X12265688Y-4475593D01*
X12268310Y-4475500D01*
X12284007Y-4475500D01*
X12284011Y-4475500D01*
X12299583Y-4473260D01*
X12302166Y-4472983D01*
X12352115Y-4469411D01*
X12360819Y-4466164D01*
X12376142Y-4462253D01*
X12385342Y-4460931D01*
X12430889Y-4440129D01*
X12433306Y-4439127D01*
X12480226Y-4421629D01*
X12487668Y-4416057D01*
X12501266Y-4407989D01*
X12509718Y-4404130D01*
X12547567Y-4371332D01*
X12549588Y-4369704D01*
X12562180Y-4360279D01*
X12573296Y-4349161D01*
X12575206Y-4347383D01*
X12613055Y-4314589D01*
X12618078Y-4306771D01*
X12628000Y-4294457D01*
X13244453Y-3678003D01*
X13256772Y-3668078D01*
X13264589Y-3663055D01*
X13297401Y-3625185D01*
X13299167Y-3623289D01*
X13310278Y-3612180D01*
X13319703Y-3599588D01*
X13321319Y-3597583D01*
X13354130Y-3559718D01*
X13357988Y-3551268D01*
X13366059Y-3537664D01*
X13371628Y-3530227D01*
X13389126Y-3483309D01*
X13390126Y-3480896D01*
X13410931Y-3435342D01*
X13412253Y-3426141D01*
X13416167Y-3410810D01*
X13419411Y-3402115D01*
X13422982Y-3352172D01*
X13423264Y-3349556D01*
X13425500Y-3334011D01*
X13425500Y-3318299D01*
X13425593Y-3315681D01*
X13429166Y-3265730D01*
X13427190Y-3256646D01*
X13425500Y-3240930D01*
X13425500Y-2774500D01*
X13442813Y-2726934D01*
X13486650Y-2701624D01*
X13499500Y-2700500D01*
X15469746Y-2700500D01*
X15469748Y-2700500D01*
X15528231Y-2688867D01*
X15594552Y-2644552D01*
X15638867Y-2578231D01*
X15650500Y-2519748D01*
X15650500Y2519748D01*
X15638867Y2578231D01*
X15594552Y2644552D01*
X15572343Y2659392D01*
X15528232Y2688867D01*
X15528233Y2688867D01*
X15498989Y2694684D01*
X15469748Y2700500D01*
X10430252Y2700500D01*
X10401010Y2694684D01*
X10371767Y2688867D01*
X10305449Y2644553D01*
X10305447Y2644551D01*
X10261133Y2578233D01*
X10249499Y2519747D01*
X10249500Y2095259D01*
X10232187Y2047693D01*
X10188350Y2022383D01*
X10154652Y2024256D01*
X10065270Y2050500D01*
X9935726Y2050500D01*
X9811429Y2014005D01*
X9702452Y1943969D01*
X9702448Y1943966D01*
X9617617Y1846065D01*
X9563800Y1728224D01*
X9545365Y1600000D01*
X9563800Y1471777D01*
X9563800Y1471776D01*
X9563801Y1471774D01*
X9617616Y1353937D01*
X9702449Y1256033D01*
X9811429Y1185996D01*
X9935726Y1149500D01*
X10065273Y1149500D01*
X10065273Y1149501D01*
X10154652Y1175744D01*
X10205169Y1172534D01*
X10241804Y1137603D01*
X10249500Y1104742D01*
X10249500Y-2519746D01*
X10261133Y-2578232D01*
X10278846Y-2604740D01*
X10305448Y-2644552D01*
X10349560Y-2674027D01*
X10371767Y-2688866D01*
X10371768Y-2688866D01*
X10371769Y-2688867D01*
X10430252Y-2700500D01*
X12400500Y-2700500D01*
X12448066Y-2717813D01*
X12473376Y-2761650D01*
X12474500Y-2774500D01*
X12474500Y-3072388D01*
X12457187Y-3119954D01*
X12452826Y-3124714D01*
X12074715Y-3502826D01*
X12028839Y-3524218D01*
X12022389Y-3524500D01*
X-12272389Y-3524500D01*
X-12319955Y-3507187D01*
X-12324715Y-3502826D01*
X-12452827Y-3374714D01*
X-12474219Y-3328838D01*
X-12474501Y-3322388D01*
X-12474500Y-2774500D01*
X-12457187Y-2726934D01*
X-12413350Y-2701624D01*
X-12400500Y-2700500D01*
X-10430254Y-2700500D01*
X-10430252Y-2700500D01*
X-10371769Y-2688867D01*
X-10305448Y-2644552D01*
X-10261133Y-2578231D01*
X-10249500Y-2519748D01*
X-10249500Y-250000D01*
X-2500000Y-250000D01*
X-2500000Y-2047828D01*
X-2493598Y-2107375D01*
X-2493597Y-2107380D01*
X-2443355Y-2242087D01*
X-2443354Y-2242088D01*
X-2357189Y-2357188D01*
X-2242089Y-2443353D01*
X-2242088Y-2443354D01*
X-2107381Y-2493596D01*
X-2107376Y-2493597D01*
X-2047829Y-2500000D01*
X-1996231Y-2500000D01*
X-1948665Y-2517313D01*
X-1923355Y-2561150D01*
X-1928918Y-2604740D01*
X-1936698Y-2621774D01*
X-1955133Y-2749999D01*
X-1936698Y-2878223D01*
X-1936698Y-2878224D01*
X-1936697Y-2878226D01*
X-1882882Y-2996063D01*
X-1798049Y-3093967D01*
X-1689069Y-3164004D01*
X-1564772Y-3200500D01*
X-1435228Y-3200500D01*
X-1310931Y-3164004D01*
X-1201951Y-3093967D01*
X-1180926Y-3069701D01*
X-1136696Y-3045091D01*
X-1086991Y-3054669D01*
X-1069076Y-3069701D01*
X-1048054Y-3093962D01*
X-1048053Y-3093963D01*
X-1048049Y-3093967D01*
X-939069Y-3164004D01*
X-814772Y-3200500D01*
X-685228Y-3200500D01*
X-560931Y-3164004D01*
X-451951Y-3093967D01*
X-430926Y-3069701D01*
X-386696Y-3045091D01*
X-336991Y-3054669D01*
X-319076Y-3069701D01*
X-298054Y-3093962D01*
X-298053Y-3093963D01*
X-298049Y-3093967D01*
X-189069Y-3164004D01*
X-64772Y-3200500D01*
X64772Y-3200500D01*
X189069Y-3164004D01*
X298049Y-3093967D01*
X319074Y-3069701D01*
X363304Y-3045091D01*
X413009Y-3054669D01*
X430924Y-3069701D01*
X451946Y-3093962D01*
X451947Y-3093963D01*
X451951Y-3093967D01*
X560931Y-3164004D01*
X685228Y-3200500D01*
X814772Y-3200500D01*
X939069Y-3164004D01*
X1048049Y-3093967D01*
X1069074Y-3069701D01*
X1113304Y-3045091D01*
X1163009Y-3054669D01*
X1180924Y-3069701D01*
X1201946Y-3093962D01*
X1201947Y-3093963D01*
X1201951Y-3093967D01*
X1310931Y-3164004D01*
X1435228Y-3200500D01*
X1564772Y-3200500D01*
X1689069Y-3164004D01*
X1798049Y-3093967D01*
X1882882Y-2996063D01*
X1936697Y-2878226D01*
X1955133Y-2750000D01*
X1936697Y-2621774D01*
X1928918Y-2604740D01*
X1924907Y-2554280D01*
X1954269Y-2513048D01*
X1996231Y-2500000D01*
X2047829Y-2500000D01*
X2107375Y-2493597D01*
X2107380Y-2493596D01*
X2242087Y-2443354D01*
X2242088Y-2443353D01*
X2357188Y-2357188D01*
X2443353Y-2242088D01*
X2443354Y-2242087D01*
X2493596Y-2107380D01*
X2493597Y-2107375D01*
X2500000Y-2047828D01*
X2500000Y-250000D01*
X-2500000Y-250000D01*
X-10249500Y-250000D01*
X-10249500Y250000D01*
X-2500000Y250000D01*
X-250000Y250000D01*
X-250000Y2500000D01*
X250000Y2500000D01*
X250000Y250000D01*
X2500000Y250000D01*
X2500000Y2047829D01*
X2493597Y2107376D01*
X2493596Y2107381D01*
X2443354Y2242088D01*
X2443353Y2242089D01*
X2357188Y2357189D01*
X2242088Y2443354D01*
X2242087Y2443355D01*
X2107380Y2493597D01*
X2107375Y2493598D01*
X2047829Y2500000D01*
X250000Y2500000D01*
X-250000Y2500000D01*
X-2047829Y2500000D01*
X-2107376Y2493598D01*
X-2107381Y2493597D01*
X-2242088Y2443355D01*
X-2242089Y2443354D01*
X-2357189Y2357189D01*
X-2443354Y2242089D01*
X-2443355Y2242088D01*
X-2493597Y2107381D01*
X-2493598Y2107376D01*
X-2500000Y2047829D01*
X-2500000Y250000D01*
X-10249500Y250000D01*
X-10249500Y2519748D01*
X-10261133Y2578231D01*
X-10305448Y2644552D01*
X-10305794Y2644783D01*
X-10375753Y2691530D01*
X-10381964Y2700001D01*
X-3505133Y2700001D01*
X-3486698Y2571777D01*
X-3486698Y2571776D01*
X-3486697Y2571774D01*
X-3432882Y2453937D01*
X-3348049Y2356033D01*
X-3239069Y2285996D01*
X-3114772Y2249500D01*
X-2985228Y2249500D01*
X-2860931Y2285996D01*
X-2751951Y2356033D01*
X-2667118Y2453937D01*
X-2613303Y2571774D01*
X-2594867Y2700000D01*
X-2613303Y2828226D01*
X-2667118Y2946063D01*
X-2751951Y3043967D01*
X-2818968Y3087036D01*
X-2860932Y3114005D01*
X-2985228Y3150500D01*
X-3114772Y3150500D01*
X-3239069Y3114005D01*
X-3348046Y3043969D01*
X-3348050Y3043966D01*
X-3432881Y2946065D01*
X-3486698Y2828224D01*
X-3505133Y2700001D01*
X-10381964Y2700001D01*
X-10405684Y2732352D01*
X-10402372Y2782863D01*
X-10367368Y2819427D01*
X-10361776Y2821672D01*
X-10358407Y2823155D01*
X-10358398Y2823157D01*
X-10314561Y2848467D01*
X-10273826Y2879322D01*
X-10224207Y2956147D01*
X-10206894Y3003713D01*
X-10194500Y3074000D01*
X-10194500Y5150000D01*
X6744867Y5150000D01*
X6763302Y5021777D01*
X6763302Y5021776D01*
X6763303Y5021774D01*
X6817118Y4903937D01*
X6901951Y4806033D01*
X7010931Y4735996D01*
X7135228Y4699500D01*
X7264772Y4699500D01*
X7389069Y4735996D01*
X7498049Y4806033D01*
X7582882Y4903937D01*
X7636697Y5021774D01*
X7655133Y5150000D01*
X7636697Y5278226D01*
X7582882Y5396063D01*
X7498049Y5493967D01*
X7427290Y5539441D01*
X7389068Y5564005D01*
X7264772Y5600500D01*
X7135228Y5600500D01*
X7010931Y5564005D01*
X6901954Y5493969D01*
X6901950Y5493966D01*
X6817119Y5396065D01*
X6763302Y5278224D01*
X6744867Y5150000D01*
X-10194500Y5150000D01*
X-10194500Y5530483D01*
X-10194891Y5539441D01*
X-10196406Y5556757D01*
X-10223157Y5641602D01*
X-10248467Y5685439D01*
X-10275159Y5720678D01*
X-10279320Y5726172D01*
X-10279321Y5726173D01*
X-10279322Y5726174D01*
X-10356147Y5775793D01*
X-10356150Y5775794D01*
X-10356151Y5775795D01*
X-10403714Y5793107D01*
X-10473997Y5805500D01*
X-10474000Y5805500D01*
X-15430483Y5805500D01*
X-15439441Y5805109D01*
X-15456754Y5803595D01*
X-15456762Y5803593D01*
X-15541603Y5776843D01*
X-15541605Y5776842D01*
X-15585443Y5751531D01*
X-15626172Y5720681D01*
X-15626174Y5720679D01*
X-15626174Y5720678D01*
X-15634501Y5707785D01*
X-15675795Y5643850D01*
X-15675795Y5643849D01*
X-15693107Y5596287D01*
X-15705500Y5526004D01*
X-15705500Y3069518D01*
X-16579749Y3069518D01*
X-16359979Y4031837D01*
X-16146141Y4817227D01*
X-16145655Y4818853D01*
X-15894561Y5591643D01*
X-15893977Y5593298D01*
X-15892843Y5596287D01*
X-15663885Y6200000D01*
X-6255133Y6200000D01*
X-6236698Y6071777D01*
X-6236698Y6071776D01*
X-6236697Y6071774D01*
X-6182882Y5953937D01*
X-6098049Y5856033D01*
X-5989069Y5785996D01*
X-5864772Y5749500D01*
X-5735228Y5749500D01*
X-5610931Y5785996D01*
X-5501951Y5856033D01*
X-5417118Y5953937D01*
X-5363303Y6071774D01*
X-5344867Y6200000D01*
X-5363303Y6328226D01*
X-5417118Y6446063D01*
X-5501951Y6543967D01*
X-5581295Y6594958D01*
X-5610932Y6614005D01*
X-5735228Y6650500D01*
X-5864772Y6650500D01*
X-5989069Y6614005D01*
X-6098046Y6543969D01*
X-6098050Y6543966D01*
X-6182881Y6446065D01*
X-6236698Y6328224D01*
X-6255133Y6200000D01*
X-15663885Y6200000D01*
X-15605849Y6353028D01*
X-15605199Y6354627D01*
X-15280690Y7099580D01*
X-15279946Y7101179D01*
X-15255809Y7149999D01*
X-15255808Y7150001D01*
X-2005133Y7150001D01*
X-1986698Y7021777D01*
X-1986698Y7021776D01*
X-1986697Y7021774D01*
X-1932882Y6903937D01*
X-1848049Y6806033D01*
X-1739069Y6735996D01*
X-1614772Y6699500D01*
X-1485228Y6699500D01*
X-1360931Y6735996D01*
X-1251951Y6806033D01*
X-1167118Y6903937D01*
X-1113303Y7021774D01*
X-1094867Y7150000D01*
X-1097832Y7170619D01*
X-1087465Y7220163D01*
X-1076915Y7233471D01*
X-679530Y7630857D01*
X-668327Y7640051D01*
X-651376Y7651376D01*
X-590485Y7742505D01*
X-574500Y7822867D01*
X-574500Y7822872D01*
X-569104Y7850000D01*
X-573081Y7869993D01*
X-574500Y7884406D01*
X-574500Y8150166D01*
X-557187Y8197732D01*
X-513350Y8223042D01*
X-463500Y8214252D01*
X-448174Y8202492D01*
X834260Y6920058D01*
X855181Y6878263D01*
X863302Y6821777D01*
X863302Y6821776D01*
X863303Y6821774D01*
X917118Y6703937D01*
X1001951Y6606033D01*
X1110931Y6535996D01*
X1235228Y6499500D01*
X1364772Y6499500D01*
X1489069Y6535996D01*
X1569605Y6587754D01*
X1609611Y6599500D01*
X7655975Y6599500D01*
X7671159Y6597926D01*
X7685315Y6594957D01*
X7719481Y6599217D01*
X7724061Y6599500D01*
X7729035Y6599500D01*
X7729040Y6599500D01*
X7750540Y6603088D01*
X7801393Y6609427D01*
X7801401Y6609432D01*
X7807268Y6611177D01*
X7807371Y6610830D01*
X7809696Y6611575D01*
X7809579Y6611916D01*
X7815379Y6613908D01*
X7815381Y6613908D01*
X7837912Y6626102D01*
X7860445Y6638296D01*
X7906484Y6660802D01*
X7911476Y6664366D01*
X7911684Y6664074D01*
X7913640Y6665532D01*
X7913419Y6665816D01*
X7918253Y6669580D01*
X7918258Y6669582D01*
X7952957Y6707276D01*
X9824477Y8578796D01*
X9860100Y8596624D01*
X9859694Y8598009D01*
X9864772Y8599500D01*
X9989069Y8635996D01*
X10098049Y8706033D01*
X10182882Y8803937D01*
X10236697Y8921774D01*
X10255133Y9050000D01*
X10236697Y9178226D01*
X10182882Y9296063D01*
X10098049Y9393967D01*
X9991551Y9462409D01*
X9989068Y9464005D01*
X9864772Y9500500D01*
X9735228Y9500500D01*
X9610931Y9464005D01*
X9501954Y9393969D01*
X9501950Y9393966D01*
X9417119Y9296065D01*
X9363302Y9178224D01*
X9355181Y9121739D01*
X9334260Y9079944D01*
X7576492Y7322174D01*
X7530616Y7300782D01*
X7524166Y7300500D01*
X1609611Y7300500D01*
X1569605Y7312247D01*
X1489069Y7364004D01*
X1364772Y7400500D01*
X1359694Y7401991D01*
X1360099Y7403373D01*
X1324476Y7421206D01*
X-27826Y8773508D01*
X-49218Y8819384D01*
X-49500Y8825834D01*
X-49500Y10074168D01*
X-32187Y10121734D01*
X-27837Y10126483D01*
X223506Y10377826D01*
X269384Y10399218D01*
X275833Y10399500D01*
X890389Y10399500D01*
X930394Y10387754D01*
X1010931Y10335996D01*
X1135228Y10299500D01*
X1264772Y10299500D01*
X1389069Y10335996D01*
X1498049Y10406033D01*
X1582882Y10503937D01*
X1636697Y10621774D01*
X1655133Y10750000D01*
X1636697Y10878226D01*
X1582882Y10996063D01*
X1498049Y11093967D01*
X1418478Y11145104D01*
X1389068Y11164005D01*
X1264772Y11200500D01*
X1135228Y11200500D01*
X1010933Y11164005D01*
X1010931Y11164005D01*
X1010931Y11164004D01*
X930394Y11112247D01*
X890389Y11100500D01*
X144025Y11100500D01*
X128840Y11102075D01*
X114685Y11105043D01*
X80518Y11100784D01*
X75939Y11100500D01*
X-90389Y11100500D01*
X-130395Y11112247D01*
X-210931Y11164004D01*
X-335228Y11200500D01*
X-464772Y11200500D01*
X-589069Y11164005D01*
X-693333Y11096998D01*
X-742708Y11085846D01*
X-787700Y11109041D01*
X-807256Y11155730D01*
X-800652Y11189992D01*
X-763303Y11271774D01*
X-762525Y11277184D01*
X-744867Y11400000D01*
X-763303Y11528226D01*
X-817118Y11646063D01*
X-901951Y11743967D01*
X-968968Y11787036D01*
X-1010932Y11814005D01*
X-1135228Y11850500D01*
X-1264772Y11850500D01*
X-1389069Y11814005D01*
X-1498046Y11743969D01*
X-1498050Y11743966D01*
X-1582881Y11646065D01*
X-1636698Y11528224D01*
X-1655133Y11400000D01*
X-1636698Y11271777D01*
X-1636698Y11271776D01*
X-1636697Y11271774D01*
X-1582882Y11153937D01*
X-1498049Y11056033D01*
X-1498048Y11056032D01*
X-1494583Y11052034D01*
X-1496468Y11050402D01*
X-1476432Y11014405D01*
X-1475500Y11002700D01*
X-1475500Y10734421D01*
X-1476922Y10719985D01*
X-1480897Y10700001D01*
X-1480898Y10700000D01*
X-1479245Y10691693D01*
X-1475500Y10672868D01*
X-1475500Y10672867D01*
X-1459515Y10592505D01*
X-1400335Y10503936D01*
X-1398623Y10501375D01*
X-1381686Y10490058D01*
X-1370471Y10480855D01*
X-1147174Y10257558D01*
X-1125782Y10211682D01*
X-1125500Y10205232D01*
X-1125500Y7994768D01*
X-1142813Y7947202D01*
X-1147174Y7942442D01*
X-1467442Y7622174D01*
X-1513318Y7600782D01*
X-1519768Y7600500D01*
X-1614772Y7600500D01*
X-1739069Y7564005D01*
X-1848046Y7493969D01*
X-1848050Y7493966D01*
X-1932881Y7396065D01*
X-1986698Y7278224D01*
X-2005133Y7150001D01*
X-15255808Y7150001D01*
X-14919845Y7829541D01*
X-14919022Y7831107D01*
X-14889379Y7884416D01*
X-14524138Y8541247D01*
X-14523244Y8542766D01*
X-14094525Y9232978D01*
X-14093571Y9234435D01*
X-13753779Y9726706D01*
X-4150500Y9726706D01*
X-4132316Y9647037D01*
X-4117882Y9583796D01*
X-4117880Y9583792D01*
X-4054281Y9451726D01*
X-4054280Y9451725D01*
X-4054279Y9451723D01*
X-3962883Y9337117D01*
X-3848277Y9245721D01*
X-3716206Y9182119D01*
X-3573294Y9149500D01*
X-3573291Y9149500D01*
X-2426709Y9149500D01*
X-2426706Y9149500D01*
X-2283794Y9182119D01*
X-2151723Y9245721D01*
X-2037117Y9337117D01*
X-1945721Y9451723D01*
X-1882119Y9583794D01*
X-1849500Y9726706D01*
X-1849500Y9800000D01*
X-1849500Y9834351D01*
X-1849501Y12497573D01*
X-1849183Y12502408D01*
X-1839851Y12573294D01*
X-1838862Y12580805D01*
X-1833865Y12599455D01*
X-1806402Y12665757D01*
X-1796753Y12682470D01*
X-1753061Y12739411D01*
X-1739411Y12753061D01*
X-1682470Y12796753D01*
X-1665757Y12806402D01*
X-1599455Y12833865D01*
X-1580803Y12838863D01*
X-1528319Y12845772D01*
X-1502406Y12849183D01*
X-1497571Y12849500D01*
X-1465649Y12849500D01*
X1465649Y12849500D01*
X1497571Y12849500D01*
X1502406Y12849183D01*
X1528318Y12845772D01*
X1580802Y12838863D01*
X1599455Y12833864D01*
X1665753Y12806403D01*
X1682472Y12796751D01*
X1738636Y12753655D01*
X1739405Y12753065D01*
X1753063Y12739407D01*
X1796748Y12682475D01*
X1806404Y12665750D01*
X1833862Y12599459D01*
X1838862Y12580801D01*
X1849183Y12502408D01*
X1849500Y12497573D01*
X1849500Y9834352D01*
X1849500Y9834351D01*
X1849500Y9800000D01*
X1849500Y9726706D01*
X1867684Y9647037D01*
X1882118Y9583796D01*
X1882120Y9583792D01*
X1945719Y9451726D01*
X1945720Y9451725D01*
X1945721Y9451723D01*
X2037117Y9337117D01*
X2151723Y9245721D01*
X2283794Y9182119D01*
X2426706Y9149500D01*
X2426709Y9149500D01*
X3573291Y9149500D01*
X3573294Y9149500D01*
X3716206Y9182119D01*
X3848277Y9245721D01*
X3962883Y9337117D01*
X4054279Y9451723D01*
X4117881Y9583794D01*
X4150500Y9726706D01*
X4150500Y9800000D01*
X4150500Y9834351D01*
X4150500Y14019814D01*
X4150500Y14073294D01*
X4117881Y14216206D01*
X4054279Y14348277D01*
X3962883Y14462883D01*
X3848277Y14554279D01*
X3848275Y14554280D01*
X3848274Y14554281D01*
X3716208Y14617880D01*
X3716204Y14617882D01*
X3652963Y14632316D01*
X3573294Y14650500D01*
X3519814Y14650500D01*
X-3465649Y14650500D01*
X-3500000Y14650500D01*
X-3573294Y14650500D01*
X-3640479Y14635166D01*
X-3716205Y14617882D01*
X-3716209Y14617880D01*
X-3848275Y14554281D01*
X-3848276Y14554280D01*
X-3962879Y14462887D01*
X-3962887Y14462879D01*
X-4054280Y14348276D01*
X-4054281Y14348275D01*
X-4117880Y14216209D01*
X-4117882Y14216205D01*
X-4138378Y14126408D01*
X-4150500Y14073294D01*
X-4150500Y14019814D01*
X-4150500Y9834351D01*
X-4150500Y9800000D01*
X-4150500Y9726706D01*
X-13753779Y9726706D01*
X-13632000Y9903133D01*
X-13630956Y9904569D01*
X-13508691Y10064574D01*
X-13137466Y10550389D01*
X-13136438Y10551672D01*
X-13026084Y10683208D01*
X-13026064Y10683224D01*
X-13018959Y10691695D01*
X-13018957Y10691695D01*
X-12998454Y10716139D01*
X-12998180Y10716466D01*
X-12995442Y10719391D01*
X-12947757Y10765055D01*
X-12934988Y10774855D01*
X-12883777Y10805940D01*
X-12869181Y10812749D01*
X-12812452Y10832014D01*
X-12796731Y10835500D01*
X-12731522Y10842648D01*
X-12727501Y10842867D01*
X-11440433Y10842867D01*
X-11439675Y10842918D01*
X-11389033Y10842915D01*
X-11306933Y10861651D01*
X-11246133Y10875525D01*
X-11246131Y10875527D01*
X-11246126Y10875527D01*
X-11114059Y10939120D01*
X-10999453Y11030506D01*
X-10908055Y11145102D01*
X-10844449Y11277163D01*
X-10811823Y11420067D01*
X-10811821Y11466489D01*
X-10811818Y11466508D01*
X-10811818Y11493387D01*
X-10811818Y11493388D01*
X-10811816Y11527708D01*
X-10811818Y11527711D01*
X-10811817Y11534754D01*
X-10811818Y11534776D01*
X-10811818Y12751555D01*
X-10811587Y12755687D01*
X-10809589Y12773479D01*
X-10804044Y12822867D01*
X-10800387Y12838950D01*
X-10780190Y12896911D01*
X-10773062Y12911777D01*
X-10740522Y12963819D01*
X-10730276Y12976738D01*
X-10682681Y13024633D01*
X-10679628Y13027378D01*
X-10231016Y13387676D01*
X-10229675Y13388701D01*
X-9572274Y13866331D01*
X-9570869Y13867301D01*
X-8891165Y14312607D01*
X-8889693Y14313521D01*
X-8189313Y14725442D01*
X-8187753Y14726309D01*
X-7468337Y15103887D01*
X-7466734Y15104680D01*
X-7385212Y15142562D01*
X-6729844Y15447093D01*
X-6728277Y15447776D01*
X-5975702Y15754190D01*
X-5974098Y15754798D01*
X-5207582Y16024500D01*
X-5205927Y16025037D01*
X-4427311Y16257380D01*
X-4425669Y16257828D01*
X-3636671Y16452299D01*
X-3635016Y16452665D01*
X-2837585Y16608782D01*
X-2835889Y16609071D01*
X-2031837Y16726480D01*
X-2030108Y16726689D01*
X-1588745Y16769488D01*
X-1221378Y16805110D01*
X-1219606Y16805238D01*
X-408031Y16844493D01*
X-406243Y16844536D01*
X406243Y16844536D01*
X408031Y16844493D01*
G37*
%TD.AperFunction*%
%TD*%
M02*
