M48
; DRILL file {KiCad 7.0.6-7.0.6~ubuntu23.04.1} date Tue 08 Aug 2023 09:58:14 PM EDT
; FORMAT={-:-/ absolute / inch / decimal}
; #@! TF.CreationDate,2023-08-08T21:58:14-04:00
; #@! TF.GenerationSoftware,Kicad,Pcbnew,7.0.6-7.0.6~ubuntu23.04.1
; #@! TF.FileFunction,Plated,1,4,PTH
FMAT,2
INCH
; #@! TA.AperFunction,Plated,PTH,ViaDrill
T1C0.0118
%
G90
G05
T1
X-0.5906Y0.1969
X-0.5906Y0.1575
X-0.5512Y0.1969
X-0.5512Y0.1575
X-0.5118Y0.1969
X-0.5118Y0.1575
X-0.5118Y-0.1969
X-0.4764Y-0.3661
X-0.4724Y0.1969
X-0.4724Y0.1575
X-0.4409Y-0.4035
X-0.4331Y0.1969
X-0.4331Y0.1575
X-0.4035Y-0.435
X-0.2362Y0.0512
X-0.2283Y0.2441
X-0.2283Y0.1693
X-0.2283Y-0.0374
X-0.2264Y-0.4547
X-0.1201Y0.1063
X-0.1161Y-0.187
X-0.061Y0.2815
X-0.0591Y-0.1083
X-0.0472Y0.4488
X-0.0295Y-0.1083
X-0.0157Y0.4232
X0.0Y-0.1083
X0.0157Y0.4488
X0.0295Y-0.1083
X0.0472Y0.4232
X0.0512Y0.2736
X0.0591Y-0.1083
X0.061Y0.2224
X0.0866Y0.3425
X0.1142Y-0.2185
X0.1594Y0.2224
X0.2382Y-0.0374
X0.2421Y-0.4232
X0.2421Y-0.4547
X0.2835Y0.2028
X0.3091Y0.437
X0.3209Y0.2028
X0.3858Y0.3563
X0.3937Y0.063
X0.5118Y0.1969
X0.5118Y-0.1969
T0
M30
