%TF.GenerationSoftware,KiCad,Pcbnew,7.0.6-7.0.6~ubuntu23.04.1*%
%TF.CreationDate,2023-08-08T21:58:14-04:00*%
%TF.ProjectId,EnviroPuck,456e7669-726f-4507-9563-6b2e6b696361,rev?*%
%TF.SameCoordinates,Original*%
%TF.FileFunction,Copper,L1,Top*%
%TF.FilePolarity,Positive*%
%FSLAX46Y46*%
G04 Gerber Fmt 4.6, Leading zero omitted, Abs format (unit mm)*
G04 Created by KiCad (PCBNEW 7.0.6-7.0.6~ubuntu23.04.1) date 2023-08-08 21:58:14*
%MOMM*%
%LPD*%
G01*
G04 APERTURE LIST*
G04 Aperture macros list*
%AMRoundRect*
0 Rectangle with rounded corners*
0 $1 Rounding radius*
0 $2 $3 $4 $5 $6 $7 $8 $9 X,Y pos of 4 corners*
0 Add a 4 corners polygon primitive as box body*
4,1,4,$2,$3,$4,$5,$6,$7,$8,$9,$2,$3,0*
0 Add four circle primitives for the rounded corners*
1,1,$1+$1,$2,$3*
1,1,$1+$1,$4,$5*
1,1,$1+$1,$6,$7*
1,1,$1+$1,$8,$9*
0 Add four rect primitives between the rounded corners*
20,1,$1+$1,$2,$3,$4,$5,0*
20,1,$1+$1,$4,$5,$6,$7,0*
20,1,$1+$1,$6,$7,$8,$9,0*
20,1,$1+$1,$8,$9,$2,$3,0*%
G04 Aperture macros list end*
%TA.AperFunction,SMDPad,CuDef*%
%ADD10C,0.500000*%
%TD*%
%TA.AperFunction,SMDPad,CuDef*%
%ADD11R,1.000000X1.800000*%
%TD*%
%TA.AperFunction,SMDPad,CuDef*%
%ADD12RoundRect,0.250000X0.262500X0.450000X-0.262500X0.450000X-0.262500X-0.450000X0.262500X-0.450000X0*%
%TD*%
%TA.AperFunction,SMDPad,CuDef*%
%ADD13RoundRect,0.150000X0.587500X0.150000X-0.587500X0.150000X-0.587500X-0.150000X0.587500X-0.150000X0*%
%TD*%
%TA.AperFunction,SMDPad,CuDef*%
%ADD14RoundRect,0.140000X0.170000X-0.140000X0.170000X0.140000X-0.170000X0.140000X-0.170000X-0.140000X0*%
%TD*%
%TA.AperFunction,SMDPad,CuDef*%
%ADD15RoundRect,0.100000X0.100000X-0.130000X0.100000X0.130000X-0.100000X0.130000X-0.100000X-0.130000X0*%
%TD*%
%TA.AperFunction,SMDPad,CuDef*%
%ADD16RoundRect,0.250000X0.250000X0.475000X-0.250000X0.475000X-0.250000X-0.475000X0.250000X-0.475000X0*%
%TD*%
%TA.AperFunction,SMDPad,CuDef*%
%ADD17RoundRect,0.140000X0.140000X0.170000X-0.140000X0.170000X-0.140000X-0.170000X0.140000X-0.170000X0*%
%TD*%
%TA.AperFunction,SMDPad,CuDef*%
%ADD18RoundRect,0.140000X-0.140000X-0.170000X0.140000X-0.170000X0.140000X0.170000X-0.140000X0.170000X0*%
%TD*%
%TA.AperFunction,SMDPad,CuDef*%
%ADD19RoundRect,0.112500X0.112500X0.112500X-0.112500X0.112500X-0.112500X-0.112500X0.112500X-0.112500X0*%
%TD*%
%TA.AperFunction,SMDPad,CuDef*%
%ADD20R,0.600000X0.400000*%
%TD*%
%TA.AperFunction,SMDPad,CuDef*%
%ADD21R,0.400000X0.600000*%
%TD*%
%TA.AperFunction,SMDPad,CuDef*%
%ADD22R,0.400000X0.650000*%
%TD*%
%TA.AperFunction,ConnectorPad*%
%ADD23C,0.787400*%
%TD*%
%TA.AperFunction,SMDPad,CuDef*%
%ADD24RoundRect,0.125000X0.125000X0.137500X-0.125000X0.137500X-0.125000X-0.137500X0.125000X-0.137500X0*%
%TD*%
%TA.AperFunction,ViaPad*%
%ADD25C,0.500000*%
%TD*%
%TA.AperFunction,Conductor*%
%ADD26C,0.500000*%
%TD*%
%TA.AperFunction,Conductor*%
%ADD27C,0.150000*%
%TD*%
%TA.AperFunction,Conductor*%
%ADD28C,0.300000*%
%TD*%
%TA.AperFunction,Conductor*%
%ADD29C,0.250000*%
%TD*%
%TA.AperFunction,Conductor*%
%ADD30C,0.200000*%
%TD*%
%TA.AperFunction,Conductor*%
%ADD31C,0.550000*%
%TD*%
G04 APERTURE END LIST*
D10*
%TO.P,REF\u002A\u002A,*%
%TO.N,*%
X-20500000Y-20500000D03*
%TD*%
%TO.P,REF\u002A\u002A,*%
%TO.N,*%
X-20500000Y20500000D03*
%TD*%
%TO.P,REF\u002A\u002A,*%
%TO.N,*%
X20500000Y20500000D03*
%TD*%
D11*
%TO.P,Y1,1,1*%
%TO.N,Net-(U3-XL2{slash}P0.01)*%
X1550000Y2600000D03*
%TO.P,Y1,2,2*%
%TO.N,Net-(U3-XL1{slash}P0.00)*%
X4050000Y2600000D03*
%TD*%
D12*
%TO.P,R5,1*%
%TO.N,Net-(D1-RK)*%
X8612500Y-7150000D03*
%TO.P,R5,2*%
%TO.N,/R*%
X6787500Y-7150000D03*
%TD*%
%TO.P,R4,1*%
%TO.N,Net-(D1-GK)*%
X8612500Y-5150000D03*
%TO.P,R4,2*%
%TO.N,/G*%
X6787500Y-5150000D03*
%TD*%
%TO.P,R3,1*%
%TO.N,Net-(D1-BK)*%
X8612500Y-3150000D03*
%TO.P,R3,2*%
%TO.N,/B*%
X6787500Y-3150000D03*
%TD*%
D13*
%TO.P,Q1,3,D*%
%TO.N,Net-(BT1-+)*%
X-8937500Y5250000D03*
%TO.P,Q1,2,S*%
%TO.N,+BATT*%
X-7062500Y6200000D03*
%TO.P,Q1,1,G*%
%TO.N,GND*%
X-7062500Y4300000D03*
%TD*%
D14*
%TO.P,C6,1*%
%TO.N,/VDD_BME680*%
X1300000Y7745000D03*
%TO.P,C6,2*%
%TO.N,GND*%
X1300000Y8705000D03*
%TD*%
D15*
%TO.P,C5,1*%
%TO.N,Net-(U3-XL2{slash}P0.01)*%
X1550000Y4280000D03*
%TO.P,C5,2*%
%TO.N,GND*%
X1550000Y4920000D03*
%TD*%
D16*
%TO.P,C4,1*%
%TO.N,+BATT*%
X-3050000Y1300000D03*
%TO.P,C4,2*%
%TO.N,GND*%
X-4950000Y1300000D03*
%TD*%
D15*
%TO.P,C3,1*%
%TO.N,Net-(U3-XL1{slash}P0.00)*%
X4050000Y4280000D03*
%TO.P,C3,2*%
%TO.N,GND*%
X4050000Y4920000D03*
%TD*%
D17*
%TO.P,C2,1*%
%TO.N,/VDD_BME680*%
X8805000Y10300000D03*
%TO.P,C2,2*%
%TO.N,GND*%
X7845000Y10300000D03*
%TD*%
D18*
%TO.P,C1,1*%
%TO.N,+BATT*%
X7195000Y5925000D03*
%TO.P,C1,2*%
%TO.N,GND*%
X8155000Y5925000D03*
%TD*%
D19*
%TO.P,D1,1,RK*%
%TO.N,Net-(D1-RK)*%
X11425000Y-425000D03*
%TO.P,D1,2,GK*%
%TO.N,Net-(D1-GK)*%
X10575000Y-425000D03*
%TO.P,D1,3,BK*%
%TO.N,Net-(D1-BK)*%
X10575000Y425000D03*
%TO.P,D1,4,A*%
%TO.N,+BATT*%
X11425000Y425000D03*
%TD*%
D20*
%TO.P,U3,1,GND*%
%TO.N,GND*%
X4650000Y-11850000D03*
%TO.P,U3,2,GND*%
X4650000Y-10750000D03*
%TO.P,U3,3,P1.10*%
%TO.N,unconnected-(U3-P1.10-Pad3)*%
X4650000Y-9950000D03*
%TO.P,U3,4,P1.11*%
%TO.N,unconnected-(U3-P1.11-Pad4)*%
X4650000Y-8350000D03*
%TO.P,U3,5,P1.12*%
%TO.N,unconnected-(U3-P1.12-Pad5)*%
X3750000Y-7950000D03*
%TO.P,U3,6,P1.13*%
%TO.N,unconnected-(U3-P1.13-Pad6)*%
X4650000Y-7550000D03*
%TO.P,U3,7,P1.14*%
%TO.N,unconnected-(U3-P1.14-Pad7)*%
X3750000Y-7150000D03*
%TO.P,U3,8,P1.15*%
%TO.N,unconnected-(U3-P1.15-Pad8)*%
X4650000Y-6750000D03*
%TO.P,U3,9,P0.03/AIN1*%
%TO.N,unconnected-(U3-P0.03{slash}AIN1-Pad9)*%
X3750000Y-6350000D03*
%TO.P,U3,10,P0.29/AIN5*%
%TO.N,/R*%
X4650000Y-5950000D03*
%TO.P,U3,11,P0.02/AIN0*%
%TO.N,+BATT*%
X3750000Y-5550000D03*
%TO.P,U3,12,P0.31/AIN7*%
%TO.N,/G*%
X4650000Y-5150000D03*
%TO.P,U3,13,P0.28/AIN4*%
%TO.N,unconnected-(U3-P0.28{slash}AIN4-Pad13)*%
X3750000Y-4750000D03*
%TO.P,U3,14,P0.30/AIN6*%
%TO.N,/B*%
X4650000Y-4350000D03*
D21*
%TO.P,U3,15,GND*%
%TO.N,GND*%
X4800000Y-950000D03*
%TO.P,U3,16,P0.27*%
%TO.N,/BME680_EN*%
X4000000Y-950000D03*
%TO.P,U3,17,XL1/P0.00*%
%TO.N,Net-(U3-XL1{slash}P0.00)*%
X3200000Y-950000D03*
%TO.P,U3,18,XL2/P0.01*%
%TO.N,Net-(U3-XL2{slash}P0.01)*%
X2400000Y-950000D03*
%TO.P,U3,19,P0.26*%
%TO.N,unconnected-(U3-P0.26-Pad19)*%
X2000000Y-1850000D03*
%TO.P,U3,20,P0.04/AIN2*%
%TO.N,/~{CS}*%
X1600000Y-950000D03*
%TO.P,U3,21,P0.05/AIN3*%
%TO.N,unconnected-(U3-P0.05{slash}AIN3-Pad21)*%
X1200000Y-1850000D03*
%TO.P,U3,22,P0.06*%
%TO.N,/MOSI*%
X800000Y-950000D03*
%TO.P,U3,23,TRACECLK/P0.07*%
%TO.N,unconnected-(U3-TRACECLK{slash}P0.07-Pad23)*%
X400000Y-1850000D03*
%TO.P,U3,24,P0.08*%
%TO.N,/SCK*%
X0Y-950000D03*
%TO.P,U3,25,P1.08*%
%TO.N,unconnected-(U3-P1.08-Pad25)*%
X-400000Y-1850000D03*
%TO.P,U3,26,TRACEDATA3/P1.09*%
%TO.N,/MISO*%
X-800000Y-950000D03*
%TO.P,U3,27,TRACEDATA2/P0.11*%
%TO.N,unconnected-(U3-TRACEDATA2{slash}P0.11-Pad27)*%
X-1200000Y-1850000D03*
%TO.P,U3,28,VDD*%
%TO.N,+BATT*%
X-1600000Y-950000D03*
%TO.P,U3,29,TRACEDATA1/P0.12*%
%TO.N,unconnected-(U3-TRACEDATA1{slash}P0.12-Pad29)*%
X-2000000Y-1850000D03*
%TO.P,U3,30,VDDH*%
%TO.N,+BATT*%
X-2400000Y-950000D03*
%TO.P,U3,31,DCCH*%
%TO.N,unconnected-(U3-DCCH-Pad31)*%
X-3200000Y-950000D03*
%TO.P,U3,32,VBUS*%
%TO.N,unconnected-(U3-VBUS-Pad32)*%
X-4000000Y-950000D03*
%TO.P,U3,33,GND*%
%TO.N,GND*%
X-4800000Y-950000D03*
D20*
%TO.P,U3,34,D-*%
%TO.N,unconnected-(U3-D--Pad34)*%
X-4650000Y-1950000D03*
%TO.P,U3,35,D+*%
%TO.N,unconnected-(U3-D+-Pad35)*%
X-4650000Y-2750000D03*
%TO.P,U3,36,P0.14*%
%TO.N,unconnected-(U3-P0.14-Pad36)*%
X-3750000Y-3150000D03*
%TO.P,U3,37,P0.13*%
%TO.N,unconnected-(U3-P0.13-Pad37)*%
X-4650000Y-3550000D03*
%TO.P,U3,38,P0.16*%
%TO.N,unconnected-(U3-P0.16-Pad38)*%
X-3750000Y-3950000D03*
%TO.P,U3,39,P0.15*%
%TO.N,unconnected-(U3-P0.15-Pad39)*%
X-4650000Y-4350000D03*
%TO.P,U3,40,~{RESET}/P0.18*%
%TO.N,/~{RST}*%
X-3750000Y-4750000D03*
%TO.P,U3,41,P0.17*%
%TO.N,unconnected-(U3-P0.17-Pad41)*%
X-4650000Y-5150000D03*
%TO.P,U3,42,P0.19*%
%TO.N,unconnected-(U3-P0.19-Pad42)*%
X-3750000Y-5550000D03*
%TO.P,U3,43,P0.21*%
%TO.N,unconnected-(U3-P0.21-Pad43)*%
X-3750000Y-6350000D03*
%TO.P,U3,44,P0.20*%
%TO.N,unconnected-(U3-P0.20-Pad44)*%
X-4650000Y-6750000D03*
%TO.P,U3,45,P0.23*%
%TO.N,unconnected-(U3-P0.23-Pad45)*%
X-3750000Y-7150000D03*
%TO.P,U3,46,P0.22*%
%TO.N,unconnected-(U3-P0.22-Pad46)*%
X-4650000Y-7550000D03*
%TO.P,U3,47,TRACEDATA0/P1.00*%
%TO.N,unconnected-(U3-TRACEDATA0{slash}P1.00-Pad47)*%
X-3750000Y-7950000D03*
%TO.P,U3,48,P0.24*%
%TO.N,unconnected-(U3-P0.24-Pad48)*%
X-4650000Y-8350000D03*
%TO.P,U3,49,P0.25*%
%TO.N,unconnected-(U3-P0.25-Pad49)*%
X-3750000Y-8750000D03*
%TO.P,U3,50,P1.02*%
%TO.N,unconnected-(U3-P1.02-Pad50)*%
X-3750000Y-9550000D03*
%TO.P,U3,51,SWDIO*%
%TO.N,/SWDIO*%
X-4650000Y-9950000D03*
%TO.P,U3,52,P0.09/NFC1*%
%TO.N,unconnected-(U3-P0.09{slash}NFC1-Pad52)*%
X-3750000Y-10350000D03*
%TO.P,U3,53,SWDCLK*%
%TO.N,/SWCLK*%
X-4650000Y-10750000D03*
%TO.P,U3,54,P0.10/NFC2*%
%TO.N,unconnected-(U3-P0.10{slash}NFC2-Pad54)*%
X-3750000Y-11150000D03*
%TO.P,U3,55,GND*%
%TO.N,GND*%
X-4650000Y-11850000D03*
D21*
%TO.P,U3,56,P1.04*%
%TO.N,unconnected-(U3-P1.04-Pad56)*%
X2000000Y-7550000D03*
%TO.P,U3,57,P1.06*%
%TO.N,unconnected-(U3-P1.06-Pad57)*%
X1200000Y-7550000D03*
%TO.P,U3,58,P1.07*%
%TO.N,unconnected-(U3-P1.07-Pad58)*%
X400000Y-7550000D03*
%TO.P,U3,59,P1.05*%
%TO.N,unconnected-(U3-P1.05-Pad59)*%
X-400000Y-7550000D03*
%TO.P,U3,60,P1.03*%
%TO.N,unconnected-(U3-P1.03-Pad60)*%
X-1200000Y-7550000D03*
%TO.P,U3,61,P1.01*%
%TO.N,unconnected-(U3-P1.01-Pad61)*%
X-2000000Y-7550000D03*
%TD*%
D22*
%TO.P,U1,1,OUT*%
%TO.N,/VDD_BME680*%
X8650000Y9050000D03*
%TO.P,U1,2,GND*%
%TO.N,GND*%
X8000000Y9050000D03*
%TO.P,U1,3,ON*%
%TO.N,/BME680_EN*%
X7350000Y9050000D03*
%TO.P,U1,4,IN*%
%TO.N,+BATT*%
X7350000Y7150000D03*
%TO.P,U1,5,GND*%
%TO.N,GND*%
X8000000Y7150000D03*
%TO.P,U1,6,NC*%
%TO.N,unconnected-(U1-NC-Pad6)*%
X8650000Y7150000D03*
%TD*%
D23*
%TO.P,J1,1,VCC*%
%TO.N,+BATT*%
X-11347038Y-8550987D03*
%TO.P,J1,2,SWDIO*%
%TO.N,/SWDIO*%
X-10449013Y-7652962D03*
%TO.P,J1,3,~{RESET}*%
%TO.N,/~{RST}*%
X-10449013Y-9449013D03*
%TO.P,J1,4,SWCLK*%
%TO.N,/SWCLK*%
X-9550987Y-8550987D03*
%TO.P,J1,5,GND*%
%TO.N,GND*%
X-9550987Y-10347038D03*
%TO.P,J1,6,SWO*%
%TO.N,unconnected-(J1-SWO-Pad6)*%
X-8652962Y-9449013D03*
%TD*%
D24*
%TO.P,U2,8,VDD*%
%TO.N,/VDD_BME680*%
X1200000Y12187500D03*
%TO.P,U2,7,GND*%
%TO.N,GND*%
X400000Y12187500D03*
%TO.P,U2,6,VDDIO*%
%TO.N,/VDD_BME680*%
X-400000Y12187500D03*
%TO.P,U2,5,SDO*%
%TO.N,/MISO*%
X-1200000Y12187500D03*
%TO.P,U2,4,SCK*%
%TO.N,/SCK*%
X-1200000Y9812500D03*
%TO.P,U2,3,SDI*%
%TO.N,/MOSI*%
X-400000Y9812500D03*
%TO.P,U2,2,CSB*%
%TO.N,/~{CS}*%
X400000Y9812500D03*
%TO.P,U2,1,GND*%
%TO.N,GND*%
X1200000Y9812500D03*
%TD*%
D25*
%TO.N,GND*%
X-13000000Y-5000000D03*
X13000000Y-5000000D03*
X13000000Y5000000D03*
%TO.N,/~{RST}*%
X-11200000Y-10250000D03*
X-2950000Y-4750000D03*
%TO.N,GND*%
X-10250000Y-11050000D03*
%TO.N,+BATT*%
X-12100000Y-9300000D03*
%TO.N,GND*%
X4050000Y5650000D03*
X1550000Y5650000D03*
%TO.N,/VDD_BME680*%
X9800000Y9050000D03*
%TO.N,GND*%
X8150000Y5150000D03*
%TO.N,+BATT*%
X7200000Y5150000D03*
%TO.N,GND*%
X7850000Y11100000D03*
X2200000Y8700000D03*
%TO.N,/VDD_BME680*%
X1300000Y6950000D03*
X1200000Y10750000D03*
X-400000Y10750000D03*
%TO.N,GND*%
X400000Y11400000D03*
%TO.N,/MISO*%
X-1200000Y11400000D03*
X-1550000Y7150000D03*
%TO.N,+BATT*%
X2900000Y-5550000D03*
%TO.N,GND*%
X6050000Y-950000D03*
X-5800000Y-950000D03*
%TO.N,+BATT*%
X10000498Y1600000D03*
%TO.N,GND*%
X6150000Y-10750000D03*
X6150000Y-11550000D03*
X-5750000Y-11550000D03*
%TO.N,+BATT*%
X-3050000Y2700000D03*
%TO.N,GND*%
X-6000000Y1300000D03*
%TO.N,+BATT*%
X-5800000Y6200000D03*
%TO.N,GND*%
X-5800000Y4300000D03*
%TO.N,Net-(BT1-+)*%
X-13000000Y4000000D03*
X-14000000Y4000000D03*
X-15000000Y4000000D03*
X-15000000Y5000000D03*
X-11000000Y5000000D03*
X-11000000Y4000000D03*
X-12000000Y4000000D03*
X-12000000Y5000000D03*
X-13000000Y5000000D03*
X-14000000Y5000000D03*
%TO.N,*%
X1500000Y-2750000D03*
X750000Y-2750000D03*
X0Y-2750000D03*
X-750000Y-2750000D03*
X-1500000Y-2750000D03*
%TD*%
D26*
%TO.N,+BATT*%
X10850000Y1600000D02*
X10000498Y1600000D01*
X11050000Y1400000D02*
X10850000Y1600000D01*
X11425000Y1025000D02*
X11050000Y1400000D01*
X11425000Y425000D02*
X11425000Y1025000D01*
D27*
%TO.N,/~{RST}*%
X-11200000Y-10200000D02*
X-10449013Y-9449013D01*
X-3750000Y-4750000D02*
X-2950000Y-4750000D01*
X-11200000Y-10250000D02*
X-11200000Y-10200000D01*
%TO.N,/SWCLK*%
X-9550987Y-8550987D02*
X-7249013Y-8550987D01*
X-7249013Y-8550987D02*
X-5050000Y-10750000D01*
X-5050000Y-10750000D02*
X-4650000Y-10750000D01*
%TO.N,/SWDIO*%
X-10449013Y-7652962D02*
X-7347038Y-7652962D01*
X-7347038Y-7652962D02*
X-5050000Y-9950000D01*
X-5050000Y-9950000D02*
X-4650000Y-9950000D01*
D28*
%TO.N,GND*%
X-9550987Y-10350987D02*
X-10250000Y-11050000D01*
X-9550987Y-10347038D02*
X-9550987Y-10350987D01*
%TO.N,+BATT*%
X-11350987Y-8550987D02*
X-12100000Y-9300000D01*
X-11347038Y-8550987D02*
X-11350987Y-8550987D01*
%TO.N,GND*%
X4050000Y4920000D02*
X4050000Y5650000D01*
X1550000Y4920000D02*
X1550000Y5650000D01*
D27*
%TO.N,Net-(U3-XL2{slash}P0.01)*%
X1550000Y2600000D02*
X1550000Y4280000D01*
%TO.N,Net-(U3-XL1{slash}P0.00)*%
X4050000Y2600000D02*
X4050000Y4280000D01*
X3200000Y-950000D02*
X3200000Y-150000D01*
X3200000Y-150000D02*
X4050000Y700000D01*
X4050000Y700000D02*
X4050000Y2600000D01*
%TO.N,Net-(U3-XL2{slash}P0.01)*%
X2400000Y-950000D02*
X2400000Y-150000D01*
X2400000Y-150000D02*
X1550000Y700000D01*
X1550000Y700000D02*
X1550000Y2600000D01*
%TO.N,/BME680_EN*%
X7350000Y9050000D02*
X6700000Y9050000D01*
X6700000Y9050000D02*
X5850000Y8200000D01*
X5850000Y8200000D02*
X5850000Y1700000D01*
X5850000Y1700000D02*
X4000000Y-150000D01*
X4000000Y-150000D02*
X4000000Y-950000D01*
D28*
%TO.N,/VDD_BME680*%
X8650000Y9050000D02*
X9800000Y9050000D01*
%TO.N,GND*%
X8000000Y7150000D02*
X8000000Y6600000D01*
X8155000Y6445000D02*
X8155000Y5925000D01*
X8000000Y6600000D02*
X8155000Y6445000D01*
X8155000Y5155000D02*
X8150000Y5150000D01*
X8155000Y5925000D02*
X8155000Y5155000D01*
%TO.N,+BATT*%
X7195000Y5155000D02*
X7200000Y5150000D01*
X7195000Y5925000D02*
X7195000Y5155000D01*
X7350000Y7150000D02*
X7350000Y6650000D01*
X7350000Y6650000D02*
X7195000Y6495000D01*
X7195000Y6495000D02*
X7195000Y5925000D01*
%TO.N,/VDD_BME680*%
X8805000Y10300000D02*
X8805000Y9855000D01*
X8805000Y9855000D02*
X8650000Y9700000D01*
X8650000Y9700000D02*
X8650000Y9050000D01*
%TO.N,GND*%
X7845000Y11095000D02*
X7850000Y11100000D01*
X7845000Y10300000D02*
X7845000Y11095000D01*
X7845000Y10300000D02*
X7845000Y9855000D01*
X7845000Y9855000D02*
X8000000Y9700000D01*
X8000000Y9700000D02*
X8000000Y9050000D01*
X2195000Y8705000D02*
X2200000Y8700000D01*
X1300000Y8705000D02*
X2195000Y8705000D01*
X1200000Y9350000D02*
X1300000Y9250000D01*
X1200000Y9812500D02*
X1200000Y9350000D01*
X1300000Y9250000D02*
X1300000Y8705000D01*
%TO.N,/VDD_BME680*%
X1300000Y7745000D02*
X1300000Y6950000D01*
X-400000Y12187500D02*
X-400000Y10750000D01*
X1200000Y12187500D02*
X1200000Y10750000D01*
%TO.N,GND*%
X400000Y12187500D02*
X400000Y11400000D01*
D27*
%TO.N,/~{CS}*%
X1600000Y-950000D02*
X1600000Y-350000D01*
X1600000Y-350000D02*
X1400000Y-150000D01*
X1400000Y-150000D02*
X1000000Y-150000D01*
X1000000Y-150000D02*
X400000Y450000D01*
X400000Y450000D02*
X400000Y9812500D01*
%TO.N,/MOSI*%
X-400000Y9812500D02*
X-400000Y7400000D01*
X800000Y-500000D02*
X800000Y-950000D01*
X-400000Y7400000D02*
X0Y7000000D01*
X0Y7000000D02*
X0Y300000D01*
X0Y300000D02*
X800000Y-500000D01*
%TO.N,/SCK*%
X0Y-950000D02*
X0Y-250000D01*
X0Y-250000D02*
X-400000Y150000D01*
X-400000Y150000D02*
X-400000Y6850000D01*
X-400000Y6850000D02*
X-1200000Y7650000D01*
X-1200000Y7650000D02*
X-1200000Y9812500D01*
%TO.N,/MISO*%
X-800000Y-950000D02*
X-800000Y6400000D01*
X-1200000Y11400000D02*
X-1200000Y12187500D01*
X-800000Y6400000D02*
X-1550000Y7150000D01*
D26*
%TO.N,+BATT*%
X3750000Y-5550000D02*
X2900000Y-5550000D01*
%TO.N,GND*%
X4800000Y-950000D02*
X6050000Y-950000D01*
X-4800000Y-950000D02*
X-5800000Y-950000D01*
%TO.N,+BATT*%
X-2400000Y-950000D02*
X-1600000Y-950000D01*
X-3050000Y1300000D02*
X-2050000Y1300000D01*
X-2050000Y1300000D02*
X-1600000Y850000D01*
X-1600000Y850000D02*
X-1600000Y-950000D01*
D29*
%TO.N,Net-(D1-RK)*%
X8612500Y-7150000D02*
X10000000Y-7150000D01*
X10000000Y-7150000D02*
X11425000Y-5725000D01*
X11425000Y-5725000D02*
X11425000Y-425000D01*
%TO.N,Net-(D1-GK)*%
X8612500Y-5150000D02*
X9550000Y-5150000D01*
X10575000Y-4125000D02*
X10575000Y-425000D01*
X9550000Y-5150000D02*
X10575000Y-4125000D01*
%TO.N,Net-(D1-BK)*%
X8612500Y-3150000D02*
X8612500Y-437500D01*
X8612500Y-437500D02*
X9475000Y425000D01*
X9475000Y425000D02*
X10575000Y425000D01*
%TO.N,/R*%
X4650000Y-5950000D02*
X5150000Y-5950000D01*
X5150000Y-5950000D02*
X5500000Y-6300000D01*
X5500000Y-6300000D02*
X5500000Y-6750000D01*
X5500000Y-6750000D02*
X5900000Y-7150000D01*
X5900000Y-7150000D02*
X6787500Y-7150000D01*
%TO.N,/B*%
X4650000Y-4350000D02*
X5150000Y-4350000D01*
X5150000Y-4350000D02*
X5400000Y-4100000D01*
X5400000Y-4100000D02*
X5400000Y-3550000D01*
X5400000Y-3550000D02*
X5800000Y-3150000D01*
X5800000Y-3150000D02*
X6787500Y-3150000D01*
%TO.N,/G*%
X4650000Y-5150000D02*
X6787500Y-5150000D01*
D30*
%TO.N,GND*%
X4650000Y-10750000D02*
X6150000Y-10750000D01*
X5850000Y-11850000D02*
X6150000Y-11550000D01*
X4650000Y-11850000D02*
X5850000Y-11850000D01*
X-5450000Y-11850000D02*
X-5750000Y-11550000D01*
X-4650000Y-11850000D02*
X-5450000Y-11850000D01*
D31*
%TO.N,+BATT*%
X-3050000Y2700000D02*
X-3050000Y1300000D01*
%TO.N,GND*%
X-4950000Y1300000D02*
X-6000000Y1300000D01*
%TO.N,+BATT*%
X-7062500Y6200000D02*
X-5800000Y6200000D01*
%TO.N,GND*%
X-7062500Y4300000D02*
X-5800000Y4300000D01*
%TD*%
%TA.AperFunction,Conductor*%
%TO.N,Net-(BT1-+)*%
G36*
X-10400000Y4900000D02*
G01*
X-10400000Y3474000D01*
X-10417313Y3426434D01*
X-10461150Y3401124D01*
X-10474000Y3400000D01*
X-15426000Y3400000D01*
X-15473566Y3417313D01*
X-15498876Y3461150D01*
X-15500000Y3474000D01*
X-15500000Y5526000D01*
X-15482687Y5573566D01*
X-15438850Y5598876D01*
X-15426000Y5600000D01*
X-10400000Y5600000D01*
X-10400000Y4900000D01*
G37*
%TD.AperFunction*%
%TD*%
%TA.AperFunction,Conductor*%
%TO.N,Net-(BT1-+)*%
G36*
X-10194764Y5582687D02*
G01*
X-10169454Y5538850D01*
X-10171268Y5505354D01*
X-10172100Y5502492D01*
X-10172296Y5500000D01*
X-8761500Y5500000D01*
X-8713934Y5482687D01*
X-8688624Y5438850D01*
X-8687500Y5426000D01*
X-8687500Y5074000D01*
X-8704813Y5026434D01*
X-8748650Y5001124D01*
X-8761500Y5000000D01*
X-10172296Y5000000D01*
X-10172100Y4997509D01*
X-10171268Y4994646D01*
X-10174623Y4944138D01*
X-10209658Y4907603D01*
X-10242330Y4900000D01*
X-10500000Y4900000D01*
X-10500000Y5600000D01*
X-10242330Y5600000D01*
X-10194764Y5582687D01*
G37*
%TD.AperFunction*%
%TD*%
%TA.AperFunction,Conductor*%
%TO.N,GND*%
G36*
X623566Y12420187D02*
G01*
X648876Y12376350D01*
X650000Y12363500D01*
X650000Y11435475D01*
X754854Y11465938D01*
X805362Y11462583D01*
X841897Y11427548D01*
X849500Y11394876D01*
X849500Y11061035D01*
X832187Y11013469D01*
X831426Y11012576D01*
X817119Y10996066D01*
X817118Y10996064D01*
X763302Y10878224D01*
X744867Y10750000D01*
X763302Y10621775D01*
X782392Y10579974D01*
X786403Y10529514D01*
X757041Y10488282D01*
X752748Y10485539D01*
X688889Y10447773D01*
X577225Y10336109D01*
X562865Y10311828D01*
X523749Y10279701D01*
X499172Y10275500D01*
X236862Y10275500D01*
X189456Y10269260D01*
X189454Y10269259D01*
X85420Y10220747D01*
X52326Y10187652D01*
X6450Y10166260D01*
X-42445Y10179361D01*
X-52326Y10187652D01*
X-85421Y10220747D01*
X-85425Y10220749D01*
X-140408Y10246388D01*
X-176200Y10282180D01*
X-180612Y10332606D01*
X-151578Y10374071D01*
X-149156Y10375697D01*
X-101951Y10406033D01*
X-17118Y10503937D01*
X36697Y10621774D01*
X55133Y10750000D01*
X36697Y10878226D01*
X-17118Y10996063D01*
X-17120Y10996065D01*
X-17120Y10996066D01*
X-31426Y11012576D01*
X-49491Y11059862D01*
X-49500Y11061035D01*
X-49500Y11394876D01*
X-32187Y11442442D01*
X11650Y11467752D01*
X45146Y11465938D01*
X150000Y11435475D01*
X150000Y12363500D01*
X167313Y12411066D01*
X211150Y12436376D01*
X224000Y12437500D01*
X576000Y12437500D01*
X623566Y12420187D01*
G37*
%TD.AperFunction*%
%TA.AperFunction,Conductor*%
G36*
X408031Y16844493D02*
G01*
X1219603Y16805238D01*
X1221378Y16805110D01*
X1470365Y16780966D01*
X2030106Y16726689D01*
X2031840Y16726479D01*
X2835880Y16609072D01*
X2837590Y16608780D01*
X3635007Y16452666D01*
X3636679Y16452296D01*
X4425644Y16257834D01*
X4427307Y16257381D01*
X5147077Y16042597D01*
X5205913Y16025040D01*
X5207591Y16024496D01*
X5974071Y15754807D01*
X5975703Y15754188D01*
X6728253Y15447785D01*
X6729851Y15447089D01*
X7098302Y15275880D01*
X7466732Y15104680D01*
X7468335Y15103887D01*
X8187765Y14726302D01*
X8189328Y14725433D01*
X8889682Y14313525D01*
X8891189Y14312590D01*
X9570832Y13867323D01*
X9572281Y13866323D01*
X10229653Y13388715D01*
X10231033Y13387660D01*
X10649971Y13051195D01*
X10649978Y13051188D01*
X10654392Y13047644D01*
X10654393Y13047642D01*
X10672466Y13033129D01*
X10674263Y13031685D01*
X10679556Y13027433D01*
X10682627Y13024671D01*
X10730278Y12976736D01*
X10740539Y12963801D01*
X10773064Y12911788D01*
X10780201Y12896899D01*
X10800381Y12838976D01*
X10804040Y12822877D01*
X10811587Y12755583D01*
X10811817Y12751453D01*
X10811813Y12710721D01*
X10811818Y12710678D01*
X10811818Y11471471D01*
X10811863Y11470772D01*
X10811858Y11420089D01*
X10844458Y11277184D01*
X10844462Y11277173D01*
X10908051Y11145101D01*
X10908053Y11145097D01*
X10979071Y11056033D01*
X10999441Y11030487D01*
X11114045Y10939086D01*
X11114050Y10939084D01*
X11114051Y10939083D01*
X11246108Y10875485D01*
X11246112Y10875484D01*
X11246116Y10875482D01*
X11389029Y10842865D01*
X11462323Y10842867D01*
X12727073Y10842867D01*
X12731111Y10842647D01*
X12796705Y10835446D01*
X12812416Y10831960D01*
X12869154Y10812689D01*
X12883741Y10805885D01*
X12934960Y10774797D01*
X12947734Y10764993D01*
X12961024Y10752270D01*
X12991026Y10723547D01*
X12995726Y10719048D01*
X12998486Y10716100D01*
X13136421Y10551690D01*
X13137475Y10550374D01*
X13630947Y9904580D01*
X13631998Y9903133D01*
X14093552Y9234457D01*
X14094532Y9232961D01*
X14523243Y8542766D01*
X14524150Y8541224D01*
X14919016Y7831114D01*
X14919847Y7829531D01*
X15279944Y7101178D01*
X15280698Y7099556D01*
X15605184Y6354657D01*
X15605858Y6353001D01*
X15893975Y5593298D01*
X15894569Y5591611D01*
X16019656Y5206633D01*
X16121393Y4893517D01*
X16145641Y4818891D01*
X16146150Y4817185D01*
X16359981Y4031825D01*
X16564345Y3136977D01*
X16597646Y2991165D01*
X16599503Y2974689D01*
X16599503Y2899342D01*
X16634459Y2701093D01*
X16703311Y2511924D01*
X16739363Y2449480D01*
X16748153Y2399630D01*
X16722843Y2355793D01*
X16685810Y2339233D01*
X16657544Y2335169D01*
X16526626Y2275380D01*
X16417860Y2181135D01*
X16417855Y2181128D01*
X16340047Y2060058D01*
X16340046Y2060054D01*
X16299500Y1921968D01*
X16299500Y1778039D01*
X16340046Y1639953D01*
X16340047Y1639949D01*
X16417127Y1520011D01*
X16428279Y1470636D01*
X16417127Y1439997D01*
X16340048Y1320058D01*
X16340046Y1320054D01*
X16299500Y1181968D01*
X16299500Y1038039D01*
X16340046Y899953D01*
X16340047Y899950D01*
X16340048Y899949D01*
X16417127Y780010D01*
X16428279Y730635D01*
X16417127Y699996D01*
X16340048Y580058D01*
X16340046Y580054D01*
X16299500Y441968D01*
X16299500Y298039D01*
X16319408Y230240D01*
X16340047Y159950D01*
X16359279Y130025D01*
X16417127Y40010D01*
X16428279Y-9365D01*
X16417127Y-40004D01*
X16340048Y-159942D01*
X16340046Y-159946D01*
X16299500Y-298032D01*
X16299500Y-441961D01*
X16338323Y-574178D01*
X16340047Y-580050D01*
X16340048Y-580051D01*
X16417127Y-699990D01*
X16428279Y-749365D01*
X16417127Y-780004D01*
X16340048Y-899942D01*
X16340046Y-899946D01*
X16299500Y-1038032D01*
X16299500Y-1181961D01*
X16340046Y-1320047D01*
X16340047Y-1320051D01*
X16417127Y-1439989D01*
X16428279Y-1489364D01*
X16417127Y-1520003D01*
X16340048Y-1639942D01*
X16340046Y-1639946D01*
X16299500Y-1778032D01*
X16299500Y-1921961D01*
X16340046Y-2060047D01*
X16340047Y-2060051D01*
X16381260Y-2124179D01*
X16417857Y-2181125D01*
X16417859Y-2181126D01*
X16417860Y-2181128D01*
X16472222Y-2228232D01*
X16526627Y-2275374D01*
X16657543Y-2335162D01*
X16676804Y-2337931D01*
X16685808Y-2339226D01*
X16730426Y-2363132D01*
X16749240Y-2410125D01*
X16739363Y-2449473D01*
X16703308Y-2511922D01*
X16634457Y-2701089D01*
X16599500Y-2899337D01*
X16599499Y-2899345D01*
X16599499Y-2974686D01*
X16597642Y-2991160D01*
X16359982Y-4031821D01*
X16146153Y-4817175D01*
X16145641Y-4818889D01*
X15894569Y-5591609D01*
X15893975Y-5593296D01*
X15605858Y-6352999D01*
X15605184Y-6354655D01*
X15280698Y-7099554D01*
X15279944Y-7101176D01*
X14919847Y-7829529D01*
X14919016Y-7831112D01*
X14524150Y-8541222D01*
X14523243Y-8542764D01*
X14094532Y-9232959D01*
X14093552Y-9234455D01*
X13631998Y-9903131D01*
X13630947Y-9904578D01*
X13137631Y-10550167D01*
X13136511Y-10551562D01*
X12612584Y-11172562D01*
X12611398Y-11173900D01*
X12058057Y-11768884D01*
X12056808Y-11770164D01*
X11475392Y-12337698D01*
X11474082Y-12338916D01*
X10865902Y-12877716D01*
X10864535Y-12878869D01*
X10231044Y-13387650D01*
X10229622Y-13388736D01*
X9572304Y-13866305D01*
X9570832Y-13867321D01*
X8891201Y-14312580D01*
X8889682Y-14313523D01*
X8189328Y-14725431D01*
X8187765Y-14726300D01*
X7468335Y-15103885D01*
X7466732Y-15104678D01*
X6729872Y-15447078D01*
X6728232Y-15447792D01*
X6301905Y-15621373D01*
X6251322Y-15623275D01*
X6211350Y-15592218D01*
X6200000Y-15552836D01*
X6200000Y-12100000D01*
X5524000Y-12100000D01*
X5476434Y-12082687D01*
X5467891Y-12067891D01*
X5450000Y-12050000D01*
X3850000Y-12050000D01*
X3836265Y-12063734D01*
X3832687Y-12073566D01*
X3788850Y-12098876D01*
X3776000Y-12100000D01*
X2374000Y-12100000D01*
X2326434Y-12082687D01*
X2301124Y-12038850D01*
X2300000Y-12026000D01*
X2300000Y-10950000D01*
X3850000Y-10950000D01*
X3850000Y-10997828D01*
X3856402Y-11057375D01*
X3856403Y-11057380D01*
X3906645Y-11192087D01*
X3906646Y-11192088D01*
X3954230Y-11255652D01*
X3968876Y-11304106D01*
X3954230Y-11344345D01*
X3906648Y-11407907D01*
X3906645Y-11407912D01*
X3856403Y-11542619D01*
X3856402Y-11542624D01*
X3850000Y-11602171D01*
X3850000Y-11650000D01*
X4450000Y-11650000D01*
X4450000Y-10950000D01*
X4850000Y-10950000D01*
X4850000Y-11650000D01*
X5450000Y-11650000D01*
X5450000Y-11602171D01*
X5443597Y-11542624D01*
X5443596Y-11542619D01*
X5393355Y-11407914D01*
X5345768Y-11344347D01*
X5331122Y-11295893D01*
X5345768Y-11255653D01*
X5393355Y-11192085D01*
X5443596Y-11057380D01*
X5443597Y-11057375D01*
X5449766Y-11000003D01*
X7844571Y-11000003D01*
X7864242Y-11212303D01*
X7864243Y-11212309D01*
X7922593Y-11417383D01*
X7922596Y-11417393D01*
X8017632Y-11608252D01*
X8017636Y-11608258D01*
X8049159Y-11650000D01*
X8146128Y-11778407D01*
X8303698Y-11922052D01*
X8484981Y-12034298D01*
X8683802Y-12111321D01*
X8893390Y-12150500D01*
X9106610Y-12150500D01*
X9316198Y-12111321D01*
X9515019Y-12034298D01*
X9696302Y-11922052D01*
X9853872Y-11778407D01*
X9982366Y-11608255D01*
X10077405Y-11417389D01*
X10135756Y-11212310D01*
X10136742Y-11201678D01*
X10155429Y-11000003D01*
X10155429Y-10999996D01*
X10135757Y-10787696D01*
X10135756Y-10787690D01*
X10112955Y-10707555D01*
X10077405Y-10582611D01*
X10071000Y-10569748D01*
X9982367Y-10391747D01*
X9982363Y-10391741D01*
X9965606Y-10369552D01*
X9853872Y-10221593D01*
X9844008Y-10212601D01*
X9753676Y-10130252D01*
X9696302Y-10077948D01*
X9686319Y-10071767D01*
X9625277Y-10033971D01*
X9515019Y-9965702D01*
X9360989Y-9906031D01*
X9316201Y-9888680D01*
X9316200Y-9888679D01*
X9316198Y-9888679D01*
X9224150Y-9871472D01*
X9106613Y-9849500D01*
X9106610Y-9849500D01*
X8893390Y-9849500D01*
X8893386Y-9849500D01*
X8768741Y-9872801D01*
X8683802Y-9888679D01*
X8683800Y-9888679D01*
X8683798Y-9888680D01*
X8508863Y-9956450D01*
X8484981Y-9965702D01*
X8484976Y-9965704D01*
X8484976Y-9965705D01*
X8303700Y-10077946D01*
X8146130Y-10221590D01*
X8017636Y-10391741D01*
X8017632Y-10391747D01*
X7922596Y-10582606D01*
X7922593Y-10582616D01*
X7864243Y-10787690D01*
X7864242Y-10787696D01*
X7844571Y-10999996D01*
X7844571Y-11000003D01*
X5449766Y-11000003D01*
X5450000Y-10997828D01*
X5450000Y-10950000D01*
X4850000Y-10950000D01*
X4450000Y-10950000D01*
X3850000Y-10950000D01*
X2300000Y-10950000D01*
X2300000Y-10850000D01*
X700000Y-10850000D01*
X700000Y-12026000D01*
X682687Y-12073566D01*
X638850Y-12098876D01*
X626000Y-12100000D01*
X-3776000Y-12100000D01*
X-3823566Y-12082687D01*
X-3832109Y-12067891D01*
X-3850000Y-12050000D01*
X-5450000Y-12050000D01*
X-5463735Y-12063734D01*
X-5467313Y-12073566D01*
X-5511150Y-12098876D01*
X-5524000Y-12100000D01*
X-6200000Y-12100000D01*
X-6200000Y-15552835D01*
X-6217313Y-15600401D01*
X-6261150Y-15625711D01*
X-6301905Y-15621372D01*
X-6728240Y-15447789D01*
X-6729880Y-15447075D01*
X-7466734Y-15104678D01*
X-7468337Y-15103885D01*
X-8187753Y-14726307D01*
X-8189316Y-14725438D01*
X-8889676Y-14313529D01*
X-8891195Y-14312586D01*
X-9570844Y-13867315D01*
X-9572307Y-13866305D01*
X-10229638Y-13388726D01*
X-10231034Y-13387658D01*
X-10864538Y-12878869D01*
X-10865905Y-12877716D01*
X-11474084Y-12338916D01*
X-11475381Y-12337710D01*
X-12056817Y-11770157D01*
X-12058059Y-11768884D01*
X-12611400Y-11173900D01*
X-12612565Y-11172585D01*
X-13136524Y-10551550D01*
X-13137633Y-10550168D01*
X-13630956Y-9904567D01*
X-13632007Y-9903121D01*
X-14048313Y-9300000D01*
X-12555133Y-9300000D01*
X-12536698Y-9428223D01*
X-12536698Y-9428224D01*
X-12536697Y-9428226D01*
X-12482882Y-9546063D01*
X-12398049Y-9643967D01*
X-12289069Y-9714004D01*
X-12164772Y-9750500D01*
X-12035228Y-9750500D01*
X-11910931Y-9714004D01*
X-11801951Y-9643967D01*
X-11717118Y-9546063D01*
X-11663303Y-9428226D01*
X-11655182Y-9371736D01*
X-11634263Y-9329943D01*
X-11467919Y-9163599D01*
X-11422044Y-9142208D01*
X-11405940Y-9142558D01*
X-11347038Y-9150314D01*
X-11191921Y-9129892D01*
X-11077002Y-9082290D01*
X-11026433Y-9080083D01*
X-10986274Y-9110898D01*
X-10975318Y-9160317D01*
X-10980318Y-9178976D01*
X-11027918Y-9293893D01*
X-11027919Y-9293897D01*
X-11048340Y-9449012D01*
X-11028706Y-9598145D01*
X-11039662Y-9647564D01*
X-11049747Y-9660130D01*
X-11167442Y-9777826D01*
X-11213318Y-9799218D01*
X-11219768Y-9799500D01*
X-11264772Y-9799500D01*
X-11389069Y-9835995D01*
X-11498046Y-9906031D01*
X-11498050Y-9906034D01*
X-11582881Y-10003935D01*
X-11582882Y-10003936D01*
X-11582882Y-10003937D01*
X-11587238Y-10013475D01*
X-11636698Y-10121776D01*
X-11655133Y-10250000D01*
X-11636698Y-10378223D01*
X-11636698Y-10378224D01*
X-11636697Y-10378226D01*
X-11582882Y-10496063D01*
X-11498049Y-10593967D01*
X-11389069Y-10664004D01*
X-11264772Y-10700500D01*
X-11135228Y-10700500D01*
X-11010931Y-10664004D01*
X-10906730Y-10597038D01*
X-10409450Y-10597038D01*
X-10371921Y-10712539D01*
X-10371922Y-10712539D01*
X-10277991Y-10875231D01*
X-10277988Y-10875236D01*
X-10152281Y-11014847D01*
X-10000306Y-11125264D01*
X-10000299Y-11125268D01*
X-9828679Y-11201678D01*
X-9828677Y-11201679D01*
X-9699011Y-11229240D01*
X-9656083Y-11256064D01*
X-9640441Y-11304205D01*
X-9643505Y-11322846D01*
X-9661837Y-11384077D01*
X-9661838Y-11384083D01*
X-9661838Y-11384084D01*
X-9668550Y-11499324D01*
X-9671976Y-11558133D01*
X-9641701Y-11729826D01*
X-9572649Y-11889909D01*
X-9572648Y-11889910D01*
X-9468537Y-12029755D01*
X-9397125Y-12089677D01*
X-9334986Y-12141819D01*
X-9334985Y-12141819D01*
X-9334983Y-12141821D01*
X-9179184Y-12220066D01*
X-9009540Y-12260272D01*
X-8878933Y-12260272D01*
X-8749205Y-12245109D01*
X-8585376Y-12185480D01*
X-8439715Y-12089677D01*
X-8320073Y-11962865D01*
X-8232902Y-11811879D01*
X-8182900Y-11644860D01*
X-8172762Y-11470812D01*
X-8203037Y-11299118D01*
X-8272090Y-11139034D01*
X-8376201Y-10999189D01*
X-8470014Y-10920470D01*
X-8509753Y-10887124D01*
X-8665553Y-10808878D01*
X-8665555Y-10808877D01*
X-8676385Y-10806311D01*
X-8718676Y-10778495D01*
X-8733193Y-10730002D01*
X-8729696Y-10711439D01*
X-8692524Y-10597038D01*
X-10409450Y-10597038D01*
X-10906730Y-10597038D01*
X-10901951Y-10593967D01*
X-10817118Y-10496063D01*
X-10763303Y-10378226D01*
X-10744867Y-10250000D01*
X-10754117Y-10185666D01*
X-10743750Y-10136121D01*
X-10733200Y-10122814D01*
X-10660131Y-10049745D01*
X-10614256Y-10028354D01*
X-10598154Y-10028704D01*
X-10475907Y-10044799D01*
X-10431009Y-10068171D01*
X-10425701Y-10074669D01*
X-10409449Y-10097038D01*
X-9831639Y-10097038D01*
X-9784073Y-10114351D01*
X-9779313Y-10118712D01*
X-9550987Y-10347038D01*
X-9322662Y-10118712D01*
X-9276785Y-10097320D01*
X-9270335Y-10097038D01*
X-8692526Y-10097038D01*
X-8676275Y-10074670D01*
X-8634311Y-10046363D01*
X-8626084Y-10044801D01*
X-8497845Y-10027918D01*
X-8370919Y-9975344D01*
X-8353302Y-9968047D01*
X-8353302Y-9968046D01*
X-8353298Y-9968045D01*
X-8348595Y-9964435D01*
X-8300323Y-9949211D01*
X-8253555Y-9968578D01*
X-8230178Y-10013475D01*
X-8229669Y-10027443D01*
X-8235135Y-10121291D01*
X-8204860Y-10292985D01*
X-8135808Y-10453068D01*
X-8135807Y-10453069D01*
X-8031696Y-10592914D01*
X-7989607Y-10628231D01*
X-7898145Y-10704978D01*
X-7898144Y-10704978D01*
X-7898142Y-10704980D01*
X-7742343Y-10783225D01*
X-7572699Y-10823431D01*
X-7442092Y-10823431D01*
X-7312364Y-10808268D01*
X-7148535Y-10748639D01*
X-7002874Y-10652836D01*
X-6883232Y-10526024D01*
X-6796061Y-10375038D01*
X-6746059Y-10208019D01*
X-6735921Y-10033971D01*
X-6766196Y-9862277D01*
X-6835249Y-9702193D01*
X-6939360Y-9562348D01*
X-7017593Y-9496702D01*
X-7072912Y-9450283D01*
X-7228713Y-9372037D01*
X-7228717Y-9372036D01*
X-7398357Y-9331831D01*
X-7528964Y-9331831D01*
X-7658693Y-9346994D01*
X-7658697Y-9346995D01*
X-7822520Y-9406622D01*
X-7822522Y-9406622D01*
X-7941732Y-9485028D01*
X-7990986Y-9496702D01*
X-8036221Y-9473984D01*
X-8055762Y-9432862D01*
X-8074057Y-9293896D01*
X-8133930Y-9149350D01*
X-8173582Y-9097674D01*
X-8229170Y-9025229D01*
X-8229175Y-9025224D01*
X-8301473Y-8969748D01*
X-8315227Y-8959194D01*
X-8342424Y-8916503D01*
X-8335817Y-8866317D01*
X-8298496Y-8832120D01*
X-8270178Y-8826487D01*
X-7393781Y-8826487D01*
X-7346215Y-8843800D01*
X-7341455Y-8848161D01*
X-5269146Y-10920470D01*
X-5259944Y-10931683D01*
X-5254877Y-10939267D01*
X-5248624Y-10948624D01*
X-5225624Y-10963992D01*
X-5225622Y-10963994D01*
X-5217010Y-10969748D01*
X-5158674Y-11008727D01*
X-5138260Y-11029140D01*
X-5106014Y-11077398D01*
X-5093982Y-11126565D01*
X-5116369Y-11171965D01*
X-5141681Y-11187845D01*
X-5192089Y-11206646D01*
X-5307189Y-11292811D01*
X-5393354Y-11407911D01*
X-5393355Y-11407912D01*
X-5443597Y-11542619D01*
X-5443598Y-11542624D01*
X-5450000Y-11602171D01*
X-5450000Y-11650000D01*
X-3850000Y-11650000D01*
X-3850000Y-11624500D01*
X-3832687Y-11576934D01*
X-3788850Y-11551624D01*
X-3776000Y-11550500D01*
X-3430254Y-11550500D01*
X-3430252Y-11550500D01*
X-3371769Y-11538867D01*
X-3305448Y-11494552D01*
X-3261133Y-11428231D01*
X-3249500Y-11369748D01*
X-3249500Y-10930252D01*
X-3261133Y-10871769D01*
X-3305448Y-10805448D01*
X-3305452Y-10805445D01*
X-3308571Y-10802326D01*
X-3329963Y-10756450D01*
X-3316862Y-10707555D01*
X-3308571Y-10697674D01*
X-3305455Y-10694556D01*
X-3305448Y-10694552D01*
X-3261133Y-10628231D01*
X-3249500Y-10569748D01*
X-3249500Y-10550000D01*
X3850000Y-10550000D01*
X5450000Y-10550000D01*
X5450000Y-10502171D01*
X5443597Y-10442624D01*
X5443596Y-10442619D01*
X5393354Y-10307912D01*
X5393353Y-10307911D01*
X5307188Y-10192811D01*
X5192087Y-10106646D01*
X5189035Y-10104979D01*
X5155585Y-10066988D01*
X5150500Y-10040031D01*
X5150500Y-9730253D01*
X5147268Y-9714004D01*
X5138867Y-9671769D01*
X5094552Y-9605448D01*
X5040831Y-9569552D01*
X5028232Y-9561133D01*
X5028233Y-9561133D01*
X4998989Y-9555316D01*
X4969748Y-9549500D01*
X4330252Y-9549500D01*
X4301010Y-9555316D01*
X4271767Y-9561133D01*
X4205449Y-9605447D01*
X4205447Y-9605449D01*
X4161133Y-9671767D01*
X4149500Y-9730253D01*
X4149500Y-10040031D01*
X4132187Y-10087597D01*
X4110965Y-10104979D01*
X4107912Y-10106646D01*
X3992811Y-10192811D01*
X3906646Y-10307911D01*
X3906645Y-10307912D01*
X3856403Y-10442619D01*
X3856402Y-10442624D01*
X3850000Y-10502171D01*
X3850000Y-10550000D01*
X-3249500Y-10550000D01*
X-3249500Y-10130252D01*
X-3261133Y-10071769D01*
X-3263663Y-10067983D01*
X-3289908Y-10028705D01*
X-3305448Y-10005448D01*
X-3305452Y-10005445D01*
X-3308571Y-10002326D01*
X-3329963Y-9956450D01*
X-3316862Y-9907555D01*
X-3308571Y-9897674D01*
X-3305455Y-9894556D01*
X-3305448Y-9894552D01*
X-3261133Y-9828231D01*
X-3249500Y-9769748D01*
X-3249500Y-9330252D01*
X-3261133Y-9271769D01*
X-3305448Y-9205448D01*
X-3305452Y-9205445D01*
X-3308571Y-9202326D01*
X-3329963Y-9156450D01*
X-3316862Y-9107555D01*
X-3308571Y-9097674D01*
X-3305455Y-9094556D01*
X-3305448Y-9094552D01*
X-3261133Y-9028231D01*
X-3249500Y-8969748D01*
X-3249500Y-8530252D01*
X-3261133Y-8471769D01*
X-3305448Y-8405448D01*
X-3305452Y-8405445D01*
X-3308571Y-8402326D01*
X-3329963Y-8356450D01*
X-3316862Y-8307555D01*
X-3308571Y-8297674D01*
X-3305455Y-8294556D01*
X-3305448Y-8294552D01*
X-3261133Y-8228231D01*
X-3249500Y-8169748D01*
X-3249500Y-7869748D01*
X-2400500Y-7869748D01*
X-2392980Y-7907555D01*
X-2388867Y-7928232D01*
X-2366882Y-7961133D01*
X-2344552Y-7994552D01*
X-2320087Y-8010899D01*
X-2278233Y-8038866D01*
X-2278232Y-8038866D01*
X-2278231Y-8038867D01*
X-2219748Y-8050500D01*
X-2219746Y-8050500D01*
X-1780254Y-8050500D01*
X-1780252Y-8050500D01*
X-1721769Y-8038867D01*
X-1655448Y-7994552D01*
X-1655444Y-7994545D01*
X-1652326Y-7991429D01*
X-1606450Y-7970037D01*
X-1557555Y-7983138D01*
X-1547674Y-7991429D01*
X-1544555Y-7994548D01*
X-1544552Y-7994552D01*
X-1520087Y-8010899D01*
X-1478233Y-8038866D01*
X-1478232Y-8038866D01*
X-1478231Y-8038867D01*
X-1419748Y-8050500D01*
X-1419746Y-8050500D01*
X-980254Y-8050500D01*
X-980252Y-8050500D01*
X-921769Y-8038867D01*
X-855448Y-7994552D01*
X-855444Y-7994545D01*
X-852326Y-7991429D01*
X-806450Y-7970037D01*
X-757555Y-7983138D01*
X-747674Y-7991429D01*
X-744555Y-7994548D01*
X-744552Y-7994552D01*
X-720087Y-8010899D01*
X-678233Y-8038866D01*
X-678232Y-8038866D01*
X-678231Y-8038867D01*
X-619748Y-8050500D01*
X-619746Y-8050500D01*
X-180254Y-8050500D01*
X-180252Y-8050500D01*
X-121769Y-8038867D01*
X-55448Y-7994552D01*
X-55444Y-7994545D01*
X-52326Y-7991429D01*
X-6450Y-7970037D01*
X42445Y-7983138D01*
X52326Y-7991429D01*
X55445Y-7994548D01*
X55448Y-7994552D01*
X79913Y-8010899D01*
X121767Y-8038866D01*
X121768Y-8038866D01*
X121769Y-8038867D01*
X180252Y-8050500D01*
X180254Y-8050500D01*
X619746Y-8050500D01*
X619748Y-8050500D01*
X678231Y-8038867D01*
X744552Y-7994552D01*
X744556Y-7994545D01*
X747674Y-7991429D01*
X793550Y-7970037D01*
X842445Y-7983138D01*
X852326Y-7991429D01*
X855445Y-7994548D01*
X855448Y-7994552D01*
X879913Y-8010899D01*
X921767Y-8038866D01*
X921768Y-8038866D01*
X921769Y-8038867D01*
X980252Y-8050500D01*
X980254Y-8050500D01*
X1419746Y-8050500D01*
X1419748Y-8050500D01*
X1478231Y-8038867D01*
X1544552Y-7994552D01*
X1544556Y-7994545D01*
X1547674Y-7991429D01*
X1593550Y-7970037D01*
X1642445Y-7983138D01*
X1652326Y-7991429D01*
X1655445Y-7994548D01*
X1655448Y-7994552D01*
X1679913Y-8010899D01*
X1721767Y-8038866D01*
X1721768Y-8038866D01*
X1721769Y-8038867D01*
X1780252Y-8050500D01*
X1780254Y-8050500D01*
X2219746Y-8050500D01*
X2219748Y-8050500D01*
X2278231Y-8038867D01*
X2344552Y-7994552D01*
X2388867Y-7928231D01*
X2400500Y-7869748D01*
X2400500Y-7230252D01*
X2388867Y-7171769D01*
X2344552Y-7105448D01*
X2297573Y-7074057D01*
X2278232Y-7061133D01*
X2278233Y-7061133D01*
X2248989Y-7055316D01*
X2219748Y-7049500D01*
X1780252Y-7049500D01*
X1751010Y-7055316D01*
X1721767Y-7061133D01*
X1655448Y-7105448D01*
X1652323Y-7108573D01*
X1606445Y-7129963D01*
X1557552Y-7116859D01*
X1547677Y-7108573D01*
X1544554Y-7105451D01*
X1544552Y-7105448D01*
X1497573Y-7074057D01*
X1478232Y-7061133D01*
X1478233Y-7061133D01*
X1448989Y-7055316D01*
X1419748Y-7049500D01*
X980252Y-7049500D01*
X951010Y-7055316D01*
X921767Y-7061133D01*
X855448Y-7105448D01*
X852323Y-7108573D01*
X806445Y-7129963D01*
X757552Y-7116859D01*
X747677Y-7108573D01*
X744554Y-7105451D01*
X744552Y-7105448D01*
X697573Y-7074057D01*
X678232Y-7061133D01*
X678233Y-7061133D01*
X648989Y-7055316D01*
X619748Y-7049500D01*
X180252Y-7049500D01*
X151010Y-7055316D01*
X121767Y-7061133D01*
X55448Y-7105448D01*
X52323Y-7108573D01*
X6445Y-7129963D01*
X-42448Y-7116859D01*
X-52323Y-7108573D01*
X-55446Y-7105451D01*
X-55448Y-7105448D01*
X-102427Y-7074057D01*
X-121768Y-7061133D01*
X-121767Y-7061133D01*
X-151011Y-7055316D01*
X-180252Y-7049500D01*
X-619748Y-7049500D01*
X-648990Y-7055316D01*
X-678233Y-7061133D01*
X-744552Y-7105448D01*
X-747677Y-7108573D01*
X-793555Y-7129963D01*
X-842448Y-7116859D01*
X-852323Y-7108573D01*
X-855446Y-7105451D01*
X-855448Y-7105448D01*
X-902427Y-7074057D01*
X-921768Y-7061133D01*
X-921767Y-7061133D01*
X-951011Y-7055316D01*
X-980252Y-7049500D01*
X-1419748Y-7049500D01*
X-1448990Y-7055316D01*
X-1478233Y-7061133D01*
X-1544552Y-7105448D01*
X-1547677Y-7108573D01*
X-1593555Y-7129963D01*
X-1642448Y-7116859D01*
X-1652323Y-7108573D01*
X-1655446Y-7105451D01*
X-1655448Y-7105448D01*
X-1702427Y-7074057D01*
X-1721768Y-7061133D01*
X-1721767Y-7061133D01*
X-1751011Y-7055316D01*
X-1780252Y-7049500D01*
X-2219748Y-7049500D01*
X-2248990Y-7055316D01*
X-2278233Y-7061133D01*
X-2344551Y-7105447D01*
X-2344553Y-7105449D01*
X-2388867Y-7171767D01*
X-2388868Y-7171769D01*
X-2388867Y-7171769D01*
X-2400500Y-7230252D01*
X-2400500Y-7869748D01*
X-3249500Y-7869748D01*
X-3249500Y-7730252D01*
X-3261133Y-7671769D01*
X-3305448Y-7605448D01*
X-3305452Y-7605445D01*
X-3308571Y-7602326D01*
X-3329963Y-7556450D01*
X-3316862Y-7507555D01*
X-3308571Y-7497674D01*
X-3305455Y-7494556D01*
X-3305448Y-7494552D01*
X-3261133Y-7428231D01*
X-3249500Y-7369748D01*
X-3249500Y-6930252D01*
X-3261133Y-6871769D01*
X-3305448Y-6805448D01*
X-3305452Y-6805445D01*
X-3308571Y-6802326D01*
X-3329963Y-6756450D01*
X-3316862Y-6707555D01*
X-3308571Y-6697674D01*
X-3305455Y-6694556D01*
X-3305448Y-6694552D01*
X-3261133Y-6628231D01*
X-3249500Y-6569748D01*
X-3249500Y-6130252D01*
X-3261133Y-6071769D01*
X-3305448Y-6005448D01*
X-3305452Y-6005445D01*
X-3308571Y-6002326D01*
X-3329963Y-5956450D01*
X-3316862Y-5907555D01*
X-3308571Y-5897674D01*
X-3305455Y-5894556D01*
X-3305448Y-5894552D01*
X-3261133Y-5828231D01*
X-3249500Y-5769748D01*
X-3249500Y-5550000D01*
X2444867Y-5550000D01*
X2450971Y-5592463D01*
X2451725Y-5597703D01*
X2451997Y-5600200D01*
X2455834Y-5651378D01*
X2457591Y-5655855D01*
X2458390Y-5657891D01*
X2462751Y-5674388D01*
X2463302Y-5678224D01*
X2463303Y-5678226D01*
X2484701Y-5725083D01*
X2485487Y-5726935D01*
X2505445Y-5777789D01*
X2505451Y-5777799D01*
X2507561Y-5780445D01*
X2517009Y-5795826D01*
X2517114Y-5796057D01*
X2517117Y-5796061D01*
X2517118Y-5796063D01*
X2521978Y-5801672D01*
X2553517Y-5838071D01*
X2590122Y-5883971D01*
X2591248Y-5885016D01*
X2597714Y-5890774D01*
X2597952Y-5890501D01*
X2601945Y-5893961D01*
X2601951Y-5893967D01*
X2613611Y-5901460D01*
X2651294Y-5925678D01*
X2696428Y-5956450D01*
X2702327Y-5960472D01*
X2702718Y-5960592D01*
X2707184Y-5962293D01*
X2710931Y-5964004D01*
X2770134Y-5981387D01*
X2832098Y-6000500D01*
X2835228Y-6000500D01*
X2964772Y-6000500D01*
X3185140Y-6000500D01*
X3232706Y-6017813D01*
X3258016Y-6061650D01*
X3257718Y-6088936D01*
X3249500Y-6130252D01*
X3249500Y-6569748D01*
X3257255Y-6608736D01*
X3261133Y-6628232D01*
X3266889Y-6636846D01*
X3305448Y-6694552D01*
X3305451Y-6694554D01*
X3308573Y-6697677D01*
X3329963Y-6743555D01*
X3316859Y-6792448D01*
X3308573Y-6802323D01*
X3305448Y-6805448D01*
X3261133Y-6871767D01*
X3257569Y-6889684D01*
X3249500Y-6930252D01*
X3249500Y-7369748D01*
X3254214Y-7393447D01*
X3261133Y-7428232D01*
X3277895Y-7453317D01*
X3305448Y-7494552D01*
X3305451Y-7494554D01*
X3308573Y-7497677D01*
X3329963Y-7543555D01*
X3316859Y-7592448D01*
X3308573Y-7602323D01*
X3305448Y-7605448D01*
X3261133Y-7671767D01*
X3261132Y-7671769D01*
X3261133Y-7671769D01*
X3251693Y-7719230D01*
X3249500Y-7730253D01*
X3249500Y-8169746D01*
X3261133Y-8228232D01*
X3289103Y-8270090D01*
X3305448Y-8294552D01*
X3342807Y-8319515D01*
X3371767Y-8338866D01*
X3371768Y-8338866D01*
X3371769Y-8338867D01*
X3430252Y-8350500D01*
X3430254Y-8350500D01*
X4073383Y-8350500D01*
X4073382Y-8351969D01*
X4117263Y-8363203D01*
X4146759Y-8404340D01*
X4149499Y-8424291D01*
X4149499Y-8569746D01*
X4161133Y-8628232D01*
X4177231Y-8652323D01*
X4205448Y-8694552D01*
X4230700Y-8711425D01*
X4271767Y-8738866D01*
X4271768Y-8738866D01*
X4271769Y-8738867D01*
X4330252Y-8750500D01*
X4330254Y-8750500D01*
X4969746Y-8750500D01*
X4969748Y-8750500D01*
X5028231Y-8738867D01*
X5094552Y-8694552D01*
X5138867Y-8628231D01*
X5150500Y-8569748D01*
X5150500Y-8130252D01*
X5138867Y-8071769D01*
X5094552Y-8005448D01*
X5094548Y-8005445D01*
X5091429Y-8002326D01*
X5070037Y-7956450D01*
X5083138Y-7907555D01*
X5091429Y-7897674D01*
X5094545Y-7894556D01*
X5094552Y-7894552D01*
X5138867Y-7828231D01*
X5150500Y-7769748D01*
X5150500Y-7330252D01*
X5138867Y-7271769D01*
X5094552Y-7205448D01*
X5094548Y-7205445D01*
X5091429Y-7202326D01*
X5070037Y-7156450D01*
X5083138Y-7107555D01*
X5091429Y-7097674D01*
X5094545Y-7094556D01*
X5094552Y-7094552D01*
X5138867Y-7028231D01*
X5141131Y-7016847D01*
X5167389Y-6973573D01*
X5215322Y-6957301D01*
X5261275Y-6974596D01*
X5278646Y-6989172D01*
X5281027Y-6991353D01*
X5658652Y-7368979D01*
X5660821Y-7371346D01*
X5687545Y-7403194D01*
X5723550Y-7423981D01*
X5726250Y-7425700D01*
X5760316Y-7449553D01*
X5764949Y-7450794D01*
X5782790Y-7458183D01*
X5786955Y-7460588D01*
X5795717Y-7462133D01*
X5827899Y-7467808D01*
X5831049Y-7468506D01*
X5871193Y-7479263D01*
X5871193Y-7479262D01*
X5871194Y-7479263D01*
X5879006Y-7478579D01*
X5912598Y-7475640D01*
X5915817Y-7475500D01*
X6000500Y-7475500D01*
X6048066Y-7492813D01*
X6073376Y-7536650D01*
X6074500Y-7549500D01*
X6074500Y-7654266D01*
X6077354Y-7684699D01*
X6077354Y-7684701D01*
X6077355Y-7684704D01*
X6122206Y-7812881D01*
X6122207Y-7812883D01*
X6202846Y-7922146D01*
X6202853Y-7922153D01*
X6312116Y-8002792D01*
X6312118Y-8002793D01*
X6440295Y-8047644D01*
X6440301Y-8047646D01*
X6470734Y-8050500D01*
X6470741Y-8050500D01*
X7104258Y-8050500D01*
X7104266Y-8050500D01*
X7134699Y-8047646D01*
X7262882Y-8002793D01*
X7362659Y-7929155D01*
X7372146Y-7922153D01*
X7372146Y-7922152D01*
X7372150Y-7922150D01*
X7452793Y-7812882D01*
X7497646Y-7684699D01*
X7500500Y-7654266D01*
X7899500Y-7654266D01*
X7902354Y-7684699D01*
X7902354Y-7684701D01*
X7902355Y-7684704D01*
X7947206Y-7812881D01*
X7947207Y-7812883D01*
X8027846Y-7922146D01*
X8027853Y-7922153D01*
X8137116Y-8002792D01*
X8137118Y-8002793D01*
X8265295Y-8047644D01*
X8265301Y-8047646D01*
X8295734Y-8050500D01*
X8295741Y-8050500D01*
X8929258Y-8050500D01*
X8929266Y-8050500D01*
X8959699Y-8047646D01*
X9087882Y-8002793D01*
X9187659Y-7929155D01*
X9197146Y-7922153D01*
X9197146Y-7922152D01*
X9197150Y-7922150D01*
X9277793Y-7812882D01*
X9322646Y-7684699D01*
X9325500Y-7654266D01*
X9325500Y-7549499D01*
X9342813Y-7501934D01*
X9386650Y-7476624D01*
X9399500Y-7475500D01*
X9984174Y-7475500D01*
X9987394Y-7475640D01*
X10006794Y-7477338D01*
X10028805Y-7479264D01*
X10028805Y-7479263D01*
X10028807Y-7479264D01*
X10068967Y-7468502D01*
X10072100Y-7467807D01*
X10113045Y-7460588D01*
X10117194Y-7458191D01*
X10135055Y-7450794D01*
X10139684Y-7449554D01*
X10173732Y-7425712D01*
X10176450Y-7423980D01*
X10212455Y-7403194D01*
X10239187Y-7371334D01*
X10241348Y-7368976D01*
X11643989Y-5966336D01*
X11646335Y-5964186D01*
X11678194Y-5937455D01*
X11698984Y-5901443D01*
X11700710Y-5898736D01*
X11724553Y-5864685D01*
X11724554Y-5864684D01*
X11725794Y-5860054D01*
X11733193Y-5842192D01*
X11735588Y-5838045D01*
X11742808Y-5797093D01*
X11743505Y-5793954D01*
X11747835Y-5777794D01*
X11754263Y-5753807D01*
X11750639Y-5712401D01*
X11750499Y-5709179D01*
X11750499Y-3271767D01*
X11750499Y-797798D01*
X11767812Y-750235D01*
X11772163Y-745485D01*
X11797850Y-719799D01*
X11844499Y-619760D01*
X11850500Y-574179D01*
X11850499Y-275822D01*
X11844499Y-230240D01*
X11797850Y-130201D01*
X11719973Y-52324D01*
X11698582Y-6450D01*
X11711682Y42444D01*
X11719968Y52320D01*
X11797850Y130201D01*
X11844499Y230240D01*
X11849738Y270041D01*
X11852390Y282182D01*
X11875500Y357098D01*
X11875499Y997618D01*
X11875732Y1001763D01*
X11877259Y1015320D01*
X11880270Y1042035D01*
X11869211Y1100480D01*
X11860348Y1159287D01*
X11860346Y1159292D01*
X11858713Y1164589D01*
X11858758Y1164603D01*
X11856899Y1170252D01*
X11856854Y1170236D01*
X11855024Y1175467D01*
X11855023Y1175472D01*
X11851593Y1181961D01*
X11827222Y1228073D01*
X11813757Y1256033D01*
X11801425Y1281642D01*
X11801423Y1281644D01*
X11801422Y1281647D01*
X11798300Y1286227D01*
X11798337Y1286253D01*
X11794893Y1291107D01*
X11794856Y1291079D01*
X11791567Y1295535D01*
X11791566Y1295538D01*
X11749505Y1337599D01*
X11709055Y1381194D01*
X11709054Y1381195D01*
X11704720Y1384651D01*
X11704748Y1384687D01*
X11694725Y1392379D01*
X11344678Y1742425D01*
X11187912Y1899191D01*
X11185145Y1902288D01*
X11169450Y1921968D01*
X11159879Y1933970D01*
X11159878Y1933971D01*
X11159877Y1933972D01*
X11110728Y1967481D01*
X11062882Y2002793D01*
X11057981Y2005383D01*
X11058002Y2005425D01*
X11052687Y2008108D01*
X11052668Y2008067D01*
X11047673Y2010473D01*
X10990822Y2028008D01*
X10955061Y2040521D01*
X10934699Y2047646D01*
X10934697Y2047647D01*
X10934695Y2047647D01*
X10929251Y2048677D01*
X10929259Y2048722D01*
X10923391Y2049719D01*
X10923385Y2049674D01*
X10917903Y2050500D01*
X10917902Y2050500D01*
X10858426Y2050500D01*
X10798994Y2052725D01*
X10793481Y2052103D01*
X10793475Y2052150D01*
X10780948Y2050500D01*
X9935726Y2050500D01*
X9905432Y2041607D01*
X9900520Y2040521D01*
X9866211Y2035349D01*
X9866209Y2035348D01*
X9843680Y2024499D01*
X9832424Y2020169D01*
X9811425Y2014003D01*
X9782062Y1995133D01*
X9778111Y1992923D01*
X9743855Y1976425D01*
X9728157Y1961861D01*
X9717840Y1953860D01*
X9702450Y1943969D01*
X9677417Y1915079D01*
X9674619Y1912185D01*
X9644304Y1884056D01*
X9644300Y1884051D01*
X9635390Y1868619D01*
X9627236Y1857167D01*
X9617616Y1846064D01*
X9617615Y1846062D01*
X9600354Y1808269D01*
X9598741Y1805140D01*
X9576400Y1766444D01*
X9573237Y1752583D01*
X9568406Y1738311D01*
X9563802Y1728230D01*
X9563800Y1728225D01*
X9557414Y1683811D01*
X9556863Y1680843D01*
X9546183Y1634051D01*
X9546976Y1623460D01*
X9546430Y1607412D01*
X9545365Y1600000D01*
X9551769Y1555450D01*
X9552223Y1552297D01*
X9552496Y1549797D01*
X9556332Y1498622D01*
X9556333Y1498620D01*
X9558888Y1492109D01*
X9563249Y1475612D01*
X9563800Y1471776D01*
X9563801Y1471774D01*
X9585199Y1424917D01*
X9585985Y1423065D01*
X9605943Y1372211D01*
X9605949Y1372201D01*
X9608059Y1369555D01*
X9617507Y1354174D01*
X9617612Y1353943D01*
X9617617Y1353936D01*
X9654015Y1311929D01*
X9690620Y1266029D01*
X9691746Y1264984D01*
X9698212Y1259226D01*
X9698450Y1259499D01*
X9702443Y1256039D01*
X9702449Y1256033D01*
X9720377Y1244512D01*
X9751792Y1224322D01*
X9802822Y1189530D01*
X9802825Y1189528D01*
X9803216Y1189408D01*
X9807682Y1187707D01*
X9811429Y1185996D01*
X9870632Y1168613D01*
X9932596Y1149500D01*
X9935726Y1149500D01*
X10065270Y1149500D01*
X10632744Y1149500D01*
X10680310Y1132187D01*
X10685070Y1127826D01*
X10828609Y984287D01*
X10845947Y966950D01*
X10867339Y921074D01*
X10854238Y872180D01*
X10812774Y843146D01*
X10772917Y843579D01*
X10769760Y844499D01*
X10767709Y844769D01*
X10724179Y850500D01*
X10724177Y850500D01*
X10425822Y850500D01*
X10380241Y844500D01*
X10380239Y844499D01*
X10280200Y797850D01*
X10254525Y772174D01*
X10208649Y750782D01*
X10202199Y750500D01*
X9490818Y750500D01*
X9487599Y750641D01*
X9477620Y751514D01*
X9446195Y754264D01*
X9446194Y754264D01*
X9406044Y743506D01*
X9402894Y742808D01*
X9361953Y735588D01*
X9361951Y735588D01*
X9357790Y733185D01*
X9339959Y725799D01*
X9335317Y724555D01*
X9335312Y724553D01*
X9301265Y700713D01*
X9298544Y698979D01*
X9262549Y678197D01*
X9262543Y678192D01*
X9235832Y646361D01*
X9233651Y643980D01*
X8393531Y-196141D01*
X8391150Y-198322D01*
X8359308Y-225042D01*
X8359305Y-225045D01*
X8338519Y-261046D01*
X8336785Y-263768D01*
X8312947Y-297812D01*
X8312945Y-297817D01*
X8311701Y-302459D01*
X8304315Y-320290D01*
X8301912Y-324451D01*
X8301912Y-324452D01*
X8294693Y-365384D01*
X8293995Y-368533D01*
X8283235Y-408692D01*
X8283235Y-408694D01*
X8285337Y-432706D01*
X8286806Y-449500D01*
X8286859Y-450098D01*
X8287000Y-453325D01*
X8287000Y-2192254D01*
X8269687Y-2239820D01*
X8237441Y-2262101D01*
X8137118Y-2297206D01*
X8137116Y-2297207D01*
X8027853Y-2377846D01*
X8027846Y-2377853D01*
X7947207Y-2487116D01*
X7947206Y-2487118D01*
X7902355Y-2615295D01*
X7902354Y-2615299D01*
X7902354Y-2615301D01*
X7899500Y-2645734D01*
X7899500Y-3654266D01*
X7902354Y-3684699D01*
X7902354Y-3684701D01*
X7902355Y-3684704D01*
X7947206Y-3812881D01*
X7947207Y-3812883D01*
X8027846Y-3922146D01*
X8027853Y-3922153D01*
X8137116Y-4002792D01*
X8137118Y-4002793D01*
X8265295Y-4047644D01*
X8265301Y-4047646D01*
X8295734Y-4050500D01*
X8295741Y-4050500D01*
X8929258Y-4050500D01*
X8929266Y-4050500D01*
X8959699Y-4047646D01*
X9087882Y-4002793D01*
X9197150Y-3922150D01*
X9277793Y-3812882D01*
X9322646Y-3684699D01*
X9325500Y-3654266D01*
X9325500Y-2645734D01*
X9322646Y-2615301D01*
X9277793Y-2487118D01*
X9267344Y-2472960D01*
X9197153Y-2377853D01*
X9197146Y-2377846D01*
X9087883Y-2297207D01*
X9087881Y-2297206D01*
X8987559Y-2262101D01*
X8948380Y-2230049D01*
X8938000Y-2192254D01*
X8938000Y-602978D01*
X8955313Y-555412D01*
X8959674Y-550652D01*
X9588153Y77826D01*
X9634030Y99218D01*
X9640479Y99500D01*
X10202199Y99500D01*
X10249765Y82187D01*
X10254526Y77825D01*
X10280025Y52325D01*
X10301417Y6448D01*
X10288314Y-42446D01*
X10280024Y-52326D01*
X10202150Y-130200D01*
X10155500Y-230241D01*
X10149500Y-275822D01*
X10149500Y-574177D01*
X10155500Y-619758D01*
X10155501Y-619760D01*
X10202150Y-719799D01*
X10227826Y-745475D01*
X10249218Y-791351D01*
X10249500Y-797801D01*
X10249500Y-3959521D01*
X10232187Y-4007087D01*
X10227826Y-4011847D01*
X9451826Y-4787847D01*
X9405950Y-4809239D01*
X9357055Y-4796138D01*
X9328021Y-4754674D01*
X9325500Y-4735521D01*
X9325500Y-4645740D01*
X9325500Y-4645739D01*
X9325500Y-4645734D01*
X9322646Y-4615301D01*
X9277793Y-4487118D01*
X9277792Y-4487116D01*
X9197153Y-4377853D01*
X9197146Y-4377846D01*
X9087883Y-4297207D01*
X9087881Y-4297206D01*
X8959704Y-4252355D01*
X8959705Y-4252355D01*
X8959700Y-4252354D01*
X8959699Y-4252354D01*
X8929266Y-4249500D01*
X8295734Y-4249500D01*
X8265301Y-4252354D01*
X8265299Y-4252354D01*
X8265295Y-4252355D01*
X8137118Y-4297206D01*
X8137116Y-4297207D01*
X8027853Y-4377846D01*
X8027846Y-4377853D01*
X7947207Y-4487116D01*
X7947206Y-4487118D01*
X7902355Y-4615295D01*
X7902354Y-4615299D01*
X7902354Y-4615301D01*
X7899500Y-4645734D01*
X7899500Y-5654266D01*
X7902354Y-5684699D01*
X7902354Y-5684701D01*
X7902355Y-5684704D01*
X7947206Y-5812881D01*
X7947207Y-5812883D01*
X8027846Y-5922146D01*
X8027853Y-5922153D01*
X8137116Y-6002792D01*
X8137118Y-6002793D01*
X8265295Y-6047644D01*
X8265301Y-6047646D01*
X8295734Y-6050500D01*
X8295741Y-6050500D01*
X8929258Y-6050500D01*
X8929266Y-6050500D01*
X8959699Y-6047646D01*
X9087882Y-6002793D01*
X9197150Y-5922150D01*
X9277793Y-5812882D01*
X9322646Y-5684699D01*
X9325500Y-5654266D01*
X9325500Y-5549499D01*
X9342813Y-5501934D01*
X9386650Y-5476624D01*
X9399500Y-5475500D01*
X9534174Y-5475500D01*
X9537394Y-5475640D01*
X9563546Y-5477928D01*
X9578805Y-5479264D01*
X9578805Y-5479263D01*
X9578807Y-5479264D01*
X9618967Y-5468502D01*
X9622100Y-5467807D01*
X9663045Y-5460588D01*
X9667194Y-5458191D01*
X9685055Y-5450794D01*
X9689684Y-5449554D01*
X9723732Y-5425712D01*
X9726450Y-5423980D01*
X9762455Y-5403194D01*
X9789187Y-5371334D01*
X9791348Y-5368976D01*
X10793983Y-4366341D01*
X10796329Y-4364191D01*
X10828194Y-4337455D01*
X10848980Y-4301450D01*
X10850712Y-4298733D01*
X10874553Y-4264685D01*
X10874554Y-4264684D01*
X10875794Y-4260054D01*
X10883193Y-4242192D01*
X10885588Y-4238045D01*
X10892807Y-4197100D01*
X10893504Y-4193960D01*
X10899992Y-4169748D01*
X10904264Y-4153807D01*
X10900640Y-4112395D01*
X10900500Y-4109173D01*
X10900500Y-797799D01*
X10917813Y-750233D01*
X10922158Y-745490D01*
X10947676Y-719972D01*
X10993549Y-698582D01*
X11042444Y-711683D01*
X11052325Y-719974D01*
X11077826Y-745475D01*
X11099218Y-791351D01*
X11099500Y-797801D01*
X11099500Y-5559521D01*
X11082187Y-5607087D01*
X11077826Y-5611847D01*
X9886848Y-6802826D01*
X9840972Y-6824218D01*
X9834522Y-6824500D01*
X9399500Y-6824500D01*
X9351934Y-6807187D01*
X9326624Y-6763350D01*
X9325500Y-6750500D01*
X9325500Y-6645740D01*
X9325500Y-6645739D01*
X9325500Y-6645734D01*
X9322646Y-6615301D01*
X9277793Y-6487118D01*
X9277792Y-6487116D01*
X9197153Y-6377853D01*
X9197146Y-6377846D01*
X9087883Y-6297207D01*
X9087881Y-6297206D01*
X8959704Y-6252355D01*
X8959705Y-6252355D01*
X8959700Y-6252354D01*
X8959699Y-6252354D01*
X8929266Y-6249500D01*
X8295734Y-6249500D01*
X8265301Y-6252354D01*
X8265299Y-6252354D01*
X8265295Y-6252355D01*
X8137118Y-6297206D01*
X8137116Y-6297207D01*
X8027853Y-6377846D01*
X8027846Y-6377853D01*
X7947207Y-6487116D01*
X7947206Y-6487118D01*
X7902355Y-6615295D01*
X7902354Y-6615299D01*
X7902354Y-6615301D01*
X7899500Y-6645734D01*
X7899500Y-7654266D01*
X7500500Y-7654266D01*
X7500500Y-6645734D01*
X7497646Y-6615301D01*
X7452793Y-6487118D01*
X7452792Y-6487116D01*
X7372153Y-6377853D01*
X7372146Y-6377846D01*
X7262883Y-6297207D01*
X7262881Y-6297206D01*
X7134704Y-6252355D01*
X7134705Y-6252355D01*
X7134700Y-6252354D01*
X7134699Y-6252354D01*
X7104266Y-6249500D01*
X6470734Y-6249500D01*
X6440301Y-6252354D01*
X6440299Y-6252354D01*
X6440295Y-6252355D01*
X6312118Y-6297206D01*
X6312116Y-6297207D01*
X6202853Y-6377846D01*
X6202846Y-6377853D01*
X6122207Y-6487116D01*
X6122206Y-6487118D01*
X6077355Y-6615295D01*
X6077354Y-6615299D01*
X6077354Y-6615301D01*
X6074500Y-6645734D01*
X6074500Y-6645739D01*
X6074500Y-6645740D01*
X6074500Y-6685521D01*
X6057187Y-6733087D01*
X6013350Y-6758397D01*
X5963500Y-6749607D01*
X5948174Y-6737847D01*
X5847173Y-6636846D01*
X5825781Y-6590970D01*
X5825499Y-6584520D01*
X5825499Y-6467369D01*
X5825499Y-6315802D01*
X5825638Y-6312628D01*
X5829264Y-6271193D01*
X5818502Y-6231033D01*
X5817806Y-6227889D01*
X5810589Y-6186958D01*
X5810588Y-6186956D01*
X5810588Y-6186955D01*
X5808186Y-6182795D01*
X5800795Y-6164949D01*
X5799554Y-6160316D01*
X5775715Y-6126270D01*
X5773979Y-6123546D01*
X5753193Y-6087543D01*
X5721347Y-6060821D01*
X5718966Y-6058640D01*
X5391357Y-5731031D01*
X5389176Y-5728651D01*
X5386182Y-5725083D01*
X5362455Y-5696806D01*
X5341486Y-5684699D01*
X5326458Y-5676022D01*
X5323736Y-5674288D01*
X5289685Y-5650446D01*
X5289682Y-5650445D01*
X5285047Y-5649203D01*
X5267200Y-5641811D01*
X5263044Y-5639411D01*
X5222114Y-5632193D01*
X5218964Y-5631495D01*
X5179715Y-5620979D01*
X5138249Y-5591947D01*
X5125146Y-5543053D01*
X5146537Y-5497176D01*
X5192413Y-5475782D01*
X5198865Y-5475500D01*
X6000500Y-5475500D01*
X6048066Y-5492813D01*
X6073376Y-5536650D01*
X6074500Y-5549500D01*
X6074500Y-5654266D01*
X6077354Y-5684699D01*
X6077354Y-5684701D01*
X6077355Y-5684704D01*
X6122206Y-5812881D01*
X6122207Y-5812883D01*
X6202846Y-5922146D01*
X6202853Y-5922153D01*
X6312116Y-6002792D01*
X6312118Y-6002793D01*
X6440295Y-6047644D01*
X6440301Y-6047646D01*
X6470734Y-6050500D01*
X6470741Y-6050500D01*
X7104258Y-6050500D01*
X7104266Y-6050500D01*
X7134699Y-6047646D01*
X7262882Y-6002793D01*
X7372150Y-5922150D01*
X7452793Y-5812882D01*
X7497646Y-5684699D01*
X7500500Y-5654266D01*
X7500500Y-4645734D01*
X7497646Y-4615301D01*
X7452793Y-4487118D01*
X7452792Y-4487116D01*
X7372153Y-4377853D01*
X7372146Y-4377846D01*
X7262883Y-4297207D01*
X7262881Y-4297206D01*
X7134704Y-4252355D01*
X7134705Y-4252355D01*
X7134700Y-4252354D01*
X7134699Y-4252354D01*
X7104266Y-4249500D01*
X6470734Y-4249500D01*
X6440301Y-4252354D01*
X6440299Y-4252354D01*
X6440295Y-4252355D01*
X6312118Y-4297206D01*
X6312116Y-4297207D01*
X6202853Y-4377846D01*
X6202846Y-4377853D01*
X6122207Y-4487116D01*
X6122206Y-4487118D01*
X6077355Y-4615295D01*
X6077354Y-4615299D01*
X6077354Y-4615301D01*
X6074500Y-4645734D01*
X6074500Y-4645739D01*
X6074500Y-4645740D01*
X6074500Y-4750500D01*
X6057187Y-4798066D01*
X6013350Y-4823376D01*
X6000500Y-4824500D01*
X5198865Y-4824500D01*
X5151299Y-4807187D01*
X5125989Y-4763350D01*
X5134779Y-4713500D01*
X5173556Y-4680963D01*
X5179710Y-4679022D01*
X5218967Y-4668502D01*
X5222100Y-4667807D01*
X5263045Y-4660588D01*
X5267194Y-4658191D01*
X5285055Y-4650794D01*
X5289684Y-4649554D01*
X5323758Y-4625693D01*
X5326434Y-4623990D01*
X5362455Y-4603194D01*
X5389182Y-4571341D01*
X5391342Y-4568983D01*
X5618988Y-4341337D01*
X5621347Y-4339176D01*
X5653194Y-4312455D01*
X5673981Y-4276448D01*
X5675711Y-4273733D01*
X5699553Y-4239684D01*
X5700794Y-4235051D01*
X5708188Y-4217200D01*
X5710588Y-4213045D01*
X5717809Y-4172089D01*
X5718506Y-4168949D01*
X5729263Y-4128807D01*
X5728840Y-4123977D01*
X5725641Y-4087407D01*
X5725500Y-4084181D01*
X5725500Y-3715478D01*
X5742813Y-3667912D01*
X5747174Y-3663152D01*
X5913153Y-3497174D01*
X5959030Y-3475782D01*
X5965479Y-3475500D01*
X6000500Y-3475500D01*
X6048066Y-3492813D01*
X6073376Y-3536650D01*
X6074500Y-3549500D01*
X6074500Y-3654266D01*
X6077354Y-3684699D01*
X6077354Y-3684701D01*
X6077355Y-3684704D01*
X6122206Y-3812881D01*
X6122207Y-3812883D01*
X6202846Y-3922146D01*
X6202853Y-3922153D01*
X6312116Y-4002792D01*
X6312118Y-4002793D01*
X6440295Y-4047644D01*
X6440301Y-4047646D01*
X6470734Y-4050500D01*
X6470741Y-4050500D01*
X7104258Y-4050500D01*
X7104266Y-4050500D01*
X7134699Y-4047646D01*
X7262882Y-4002793D01*
X7372150Y-3922150D01*
X7452793Y-3812882D01*
X7497646Y-3684699D01*
X7500500Y-3654266D01*
X7500500Y-2645734D01*
X7497646Y-2615301D01*
X7452793Y-2487118D01*
X7442344Y-2472960D01*
X7372153Y-2377853D01*
X7372146Y-2377846D01*
X7262883Y-2297207D01*
X7262881Y-2297206D01*
X7134704Y-2252355D01*
X7134705Y-2252355D01*
X7134700Y-2252354D01*
X7134699Y-2252354D01*
X7104266Y-2249500D01*
X6470734Y-2249500D01*
X6440301Y-2252354D01*
X6440299Y-2252354D01*
X6440295Y-2252355D01*
X6312118Y-2297206D01*
X6312116Y-2297207D01*
X6202853Y-2377846D01*
X6202846Y-2377853D01*
X6122207Y-2487116D01*
X6122206Y-2487118D01*
X6077355Y-2615295D01*
X6077354Y-2615299D01*
X6077354Y-2615301D01*
X6074500Y-2645734D01*
X6074500Y-2645739D01*
X6074500Y-2645740D01*
X6074500Y-2750500D01*
X6057187Y-2798066D01*
X6013350Y-2823376D01*
X6000500Y-2824500D01*
X5815814Y-2824500D01*
X5812593Y-2824359D01*
X5803597Y-2823572D01*
X5771194Y-2820736D01*
X5771192Y-2820736D01*
X5731045Y-2831493D01*
X5727895Y-2832191D01*
X5686959Y-2839410D01*
X5686953Y-2839412D01*
X5682788Y-2841817D01*
X5664956Y-2849203D01*
X5660315Y-2850447D01*
X5660314Y-2850447D01*
X5626270Y-2874285D01*
X5623547Y-2876020D01*
X5587546Y-2896805D01*
X5587545Y-2896805D01*
X5587545Y-2896806D01*
X5583422Y-2901718D01*
X5560832Y-2928639D01*
X5558651Y-2931019D01*
X5181031Y-3308641D01*
X5178650Y-3310822D01*
X5146808Y-3337542D01*
X5146805Y-3337545D01*
X5126019Y-3373546D01*
X5124285Y-3376268D01*
X5100447Y-3410312D01*
X5100445Y-3410317D01*
X5099201Y-3414959D01*
X5091815Y-3432790D01*
X5089412Y-3436951D01*
X5089412Y-3436952D01*
X5082193Y-3477884D01*
X5081495Y-3481033D01*
X5070735Y-3521192D01*
X5070735Y-3521194D01*
X5074359Y-3562598D01*
X5074500Y-3565825D01*
X5074499Y-3880167D01*
X5057186Y-3927733D01*
X5013349Y-3953043D01*
X4986064Y-3952745D01*
X4969749Y-3949500D01*
X4969748Y-3949500D01*
X4330252Y-3949500D01*
X4301010Y-3955316D01*
X4271767Y-3961133D01*
X4205449Y-4005447D01*
X4205447Y-4005449D01*
X4161133Y-4071767D01*
X4149499Y-4130253D01*
X4149499Y-4275708D01*
X4132186Y-4323275D01*
X4088348Y-4348584D01*
X4073383Y-4349156D01*
X4073383Y-4349500D01*
X4069748Y-4349500D01*
X3430252Y-4349500D01*
X3401010Y-4355316D01*
X3371767Y-4361133D01*
X3305449Y-4405447D01*
X3305447Y-4405449D01*
X3261133Y-4471767D01*
X3249500Y-4530253D01*
X3249500Y-4969747D01*
X3257718Y-5011064D01*
X3250017Y-5061094D01*
X3211960Y-5094469D01*
X3185140Y-5099500D01*
X2835228Y-5099500D01*
X2804934Y-5108393D01*
X2800022Y-5109479D01*
X2765713Y-5114651D01*
X2765711Y-5114652D01*
X2743182Y-5125501D01*
X2731926Y-5129831D01*
X2710927Y-5135997D01*
X2681564Y-5154867D01*
X2677613Y-5157077D01*
X2643357Y-5173575D01*
X2627659Y-5188139D01*
X2617342Y-5196140D01*
X2601952Y-5206031D01*
X2576919Y-5234921D01*
X2574121Y-5237815D01*
X2543806Y-5265944D01*
X2543802Y-5265949D01*
X2534892Y-5281381D01*
X2526738Y-5292833D01*
X2517118Y-5303936D01*
X2517117Y-5303938D01*
X2499856Y-5341731D01*
X2498243Y-5344860D01*
X2475902Y-5383556D01*
X2472739Y-5397417D01*
X2467908Y-5411689D01*
X2463304Y-5421770D01*
X2463302Y-5421775D01*
X2456916Y-5466189D01*
X2456365Y-5469157D01*
X2445685Y-5515949D01*
X2446478Y-5526540D01*
X2445932Y-5542588D01*
X2444867Y-5550000D01*
X-3249500Y-5550000D01*
X-3249500Y-5330252D01*
X-3261133Y-5271769D01*
X-3265025Y-5265945D01*
X-3281735Y-5240936D01*
X-3293767Y-5191768D01*
X-3271380Y-5146369D01*
X-3225048Y-5125982D01*
X-3180201Y-5137570D01*
X-3139069Y-5164004D01*
X-3014772Y-5200500D01*
X-2885228Y-5200500D01*
X-2760931Y-5164004D01*
X-2651951Y-5093967D01*
X-2567118Y-4996063D01*
X-2513303Y-4878226D01*
X-2494867Y-4750000D01*
X-2513303Y-4621774D01*
X-2567118Y-4503937D01*
X-2651951Y-4406033D01*
X-2739918Y-4349500D01*
X-2760932Y-4335995D01*
X-2885228Y-4299500D01*
X-3014772Y-4299500D01*
X-3139069Y-4335995D01*
X-3180199Y-4362428D01*
X-3229575Y-4373580D01*
X-3274566Y-4350384D01*
X-3294122Y-4303695D01*
X-3281735Y-4259062D01*
X-3261133Y-4228231D01*
X-3249500Y-4169748D01*
X-3249500Y-3730252D01*
X-3261133Y-3671769D01*
X-3305448Y-3605448D01*
X-3305452Y-3605445D01*
X-3308571Y-3602326D01*
X-3329963Y-3556450D01*
X-3316862Y-3507555D01*
X-3308571Y-3497674D01*
X-3305455Y-3494556D01*
X-3305448Y-3494552D01*
X-3261133Y-3428231D01*
X-3249500Y-3369748D01*
X-3249500Y-2930252D01*
X-3261133Y-2871769D01*
X-3305448Y-2805448D01*
X-3350501Y-2775344D01*
X-3371768Y-2761133D01*
X-3371767Y-2761133D01*
X-3401011Y-2755316D01*
X-3430252Y-2749500D01*
X-4069748Y-2749500D01*
X-4073383Y-2749500D01*
X-4073383Y-2748039D01*
X-4117295Y-2736775D01*
X-4146770Y-2695622D01*
X-4149500Y-2675708D01*
X-4149500Y-2530253D01*
X-4149500Y-2530252D01*
X-4161133Y-2471769D01*
X-4167995Y-2461500D01*
X-4176031Y-2449473D01*
X-4205448Y-2405448D01*
X-4205452Y-2405445D01*
X-4208571Y-2402326D01*
X-4229963Y-2356450D01*
X-4216862Y-2307555D01*
X-4208571Y-2297674D01*
X-4205455Y-2294556D01*
X-4205448Y-2294552D01*
X-4161133Y-2228231D01*
X-4149500Y-2169748D01*
X-4149500Y-1730252D01*
X-4161133Y-1671769D01*
X-4161134Y-1671767D01*
X-4193362Y-1623535D01*
X-4205394Y-1574367D01*
X-4191073Y-1538074D01*
X-4156647Y-1492087D01*
X-4154976Y-1489029D01*
X-4116981Y-1455582D01*
X-4090031Y-1450500D01*
X-3780254Y-1450500D01*
X-3780252Y-1450500D01*
X-3721769Y-1438867D01*
X-3655448Y-1394552D01*
X-3655444Y-1394545D01*
X-3652326Y-1391429D01*
X-3606450Y-1370037D01*
X-3557555Y-1383138D01*
X-3547674Y-1391429D01*
X-3544555Y-1394548D01*
X-3544552Y-1394552D01*
X-3500440Y-1424027D01*
X-3478233Y-1438866D01*
X-3478232Y-1438866D01*
X-3478231Y-1438867D01*
X-3419748Y-1450500D01*
X-3419746Y-1450500D01*
X-2980254Y-1450500D01*
X-2980252Y-1450500D01*
X-2921769Y-1438867D01*
X-2855448Y-1394552D01*
X-2855444Y-1394545D01*
X-2852326Y-1391429D01*
X-2806450Y-1370037D01*
X-2757555Y-1383138D01*
X-2747674Y-1391429D01*
X-2744555Y-1394548D01*
X-2744552Y-1394552D01*
X-2700440Y-1424027D01*
X-2678233Y-1438866D01*
X-2678232Y-1438866D01*
X-2678231Y-1438867D01*
X-2619748Y-1450500D01*
X-2474291Y-1450500D01*
X-2426725Y-1467813D01*
X-2401415Y-1511650D01*
X-2400845Y-1526617D01*
X-2400500Y-1526617D01*
X-2400500Y-1530251D01*
X-2400500Y-1530252D01*
X-2400500Y-2169748D01*
X-2396023Y-2192254D01*
X-2388867Y-2228232D01*
X-2359392Y-2272343D01*
X-2344552Y-2294552D01*
X-2300440Y-2324027D01*
X-2278233Y-2338866D01*
X-2278232Y-2338866D01*
X-2278231Y-2338867D01*
X-2219748Y-2350500D01*
X-2219746Y-2350500D01*
X-1911966Y-2350500D01*
X-1864400Y-2367813D01*
X-1839090Y-2411650D01*
X-1847880Y-2461500D01*
X-1856041Y-2472960D01*
X-1882879Y-2503932D01*
X-1882881Y-2503934D01*
X-1936698Y-2621776D01*
X-1955133Y-2749999D01*
X-1936698Y-2878223D01*
X-1936698Y-2878224D01*
X-1936697Y-2878226D01*
X-1882882Y-2996063D01*
X-1798049Y-3093967D01*
X-1689069Y-3164004D01*
X-1564772Y-3200500D01*
X-1435228Y-3200500D01*
X-1310931Y-3164004D01*
X-1201951Y-3093967D01*
X-1180926Y-3069701D01*
X-1136696Y-3045091D01*
X-1086991Y-3054669D01*
X-1069076Y-3069701D01*
X-1048054Y-3093962D01*
X-1048053Y-3093963D01*
X-1048049Y-3093967D01*
X-939069Y-3164004D01*
X-814772Y-3200500D01*
X-685228Y-3200500D01*
X-560931Y-3164004D01*
X-451951Y-3093967D01*
X-430926Y-3069701D01*
X-386696Y-3045091D01*
X-336991Y-3054669D01*
X-319076Y-3069701D01*
X-298054Y-3093962D01*
X-298053Y-3093963D01*
X-298049Y-3093967D01*
X-189069Y-3164004D01*
X-64772Y-3200500D01*
X64772Y-3200500D01*
X189069Y-3164004D01*
X298049Y-3093967D01*
X319074Y-3069701D01*
X363304Y-3045091D01*
X413009Y-3054669D01*
X430924Y-3069701D01*
X451946Y-3093962D01*
X451947Y-3093963D01*
X451951Y-3093967D01*
X560931Y-3164004D01*
X685228Y-3200500D01*
X814772Y-3200500D01*
X939069Y-3164004D01*
X1048049Y-3093967D01*
X1069074Y-3069701D01*
X1113304Y-3045091D01*
X1163009Y-3054669D01*
X1180924Y-3069701D01*
X1201946Y-3093962D01*
X1201947Y-3093963D01*
X1201951Y-3093967D01*
X1310931Y-3164004D01*
X1435228Y-3200500D01*
X1564772Y-3200500D01*
X1689069Y-3164004D01*
X1798049Y-3093967D01*
X1882882Y-2996063D01*
X1936697Y-2878226D01*
X1955133Y-2750000D01*
X1936697Y-2621774D01*
X1882882Y-2503937D01*
X1882880Y-2503935D01*
X1882880Y-2503934D01*
X1882878Y-2503932D01*
X1856041Y-2472960D01*
X1837975Y-2425674D01*
X1854531Y-2377839D01*
X1897961Y-2351837D01*
X1911966Y-2350500D01*
X2219746Y-2350500D01*
X2219748Y-2350500D01*
X2278231Y-2338867D01*
X2344552Y-2294552D01*
X2388867Y-2228231D01*
X2400500Y-2169748D01*
X2400500Y-1530252D01*
X2400500Y-1530251D01*
X2400500Y-1526617D01*
X2401968Y-1526617D01*
X2413205Y-1482733D01*
X2454343Y-1453239D01*
X2474291Y-1450500D01*
X2619746Y-1450500D01*
X2619748Y-1450500D01*
X2678231Y-1438867D01*
X2744552Y-1394552D01*
X2744556Y-1394545D01*
X2747674Y-1391429D01*
X2793550Y-1370037D01*
X2842445Y-1383138D01*
X2852326Y-1391429D01*
X2855445Y-1394548D01*
X2855448Y-1394552D01*
X2899560Y-1424027D01*
X2921767Y-1438866D01*
X2921768Y-1438866D01*
X2921769Y-1438867D01*
X2980252Y-1450500D01*
X2980254Y-1450500D01*
X3419746Y-1450500D01*
X3419748Y-1450500D01*
X3478231Y-1438867D01*
X3544552Y-1394552D01*
X3544556Y-1394545D01*
X3547674Y-1391429D01*
X3593550Y-1370037D01*
X3642445Y-1383138D01*
X3652326Y-1391429D01*
X3655445Y-1394548D01*
X3655448Y-1394552D01*
X3699560Y-1424027D01*
X3721767Y-1438866D01*
X3721768Y-1438866D01*
X3721769Y-1438867D01*
X3780252Y-1450500D01*
X3780254Y-1450500D01*
X4090031Y-1450500D01*
X4137597Y-1467813D01*
X4154979Y-1489035D01*
X4156646Y-1492087D01*
X4242811Y-1607188D01*
X4357911Y-1693353D01*
X4357912Y-1693354D01*
X4492619Y-1743596D01*
X4492624Y-1743597D01*
X4552171Y-1750000D01*
X4600000Y-1750000D01*
X4600000Y-1150000D01*
X5000000Y-1150000D01*
X5000000Y-1750000D01*
X5047829Y-1750000D01*
X5107375Y-1743597D01*
X5107380Y-1743596D01*
X5242087Y-1693354D01*
X5242088Y-1693353D01*
X5357188Y-1607188D01*
X5443353Y-1492088D01*
X5443354Y-1492087D01*
X5493596Y-1357380D01*
X5493597Y-1357375D01*
X5500000Y-1297828D01*
X5500000Y-1150000D01*
X5000000Y-1150000D01*
X4600000Y-1150000D01*
X4600000Y-150000D01*
X5000000Y-150000D01*
X5000000Y-750000D01*
X5500000Y-750000D01*
X5500000Y-602171D01*
X5493597Y-542624D01*
X5493596Y-542619D01*
X5443354Y-407912D01*
X5443353Y-407911D01*
X5357188Y-292811D01*
X5242088Y-206646D01*
X5242087Y-206645D01*
X5107380Y-156403D01*
X5107375Y-156402D01*
X5047829Y-150000D01*
X5000000Y-150000D01*
X4600000Y-150000D01*
X4568268Y-150000D01*
X4520702Y-132687D01*
X4495392Y-88850D01*
X4504182Y-39000D01*
X4515942Y-23674D01*
X4837658Y298042D01*
X6020473Y1480859D01*
X6031676Y1490053D01*
X6048624Y1501376D01*
X6109515Y1592505D01*
X6125500Y1672867D01*
X6125500Y1672868D01*
X6130897Y1700000D01*
X6130341Y1702793D01*
X6126922Y1719985D01*
X6125500Y1734421D01*
X6125500Y5715101D01*
X6714500Y5715101D01*
X6721027Y5665515D01*
X6721028Y5665513D01*
X6771776Y5556684D01*
X6821917Y5506543D01*
X6843309Y5460667D01*
X6830208Y5411772D01*
X6825518Y5405759D01*
X6817121Y5396068D01*
X6817119Y5396066D01*
X6763302Y5278224D01*
X6744867Y5150000D01*
X6763302Y5021777D01*
X6763302Y5021776D01*
X6763303Y5021774D01*
X6817118Y4903937D01*
X6901951Y4806033D01*
X7010931Y4735996D01*
X7135228Y4699500D01*
X7264772Y4699500D01*
X7389069Y4735996D01*
X7498049Y4806033D01*
X7582882Y4903937D01*
X7636697Y5021774D01*
X7649239Y5109008D01*
X7673143Y5153624D01*
X7720136Y5172438D01*
X7754061Y5163733D01*
X7754531Y5164817D01*
X7758801Y5162970D01*
X7904999Y5120495D01*
X7905000Y5120496D01*
X7905000Y5675000D01*
X8405000Y5675000D01*
X8405000Y5120495D01*
X8551196Y5162969D01*
X8690377Y5245281D01*
X8804719Y5359623D01*
X8887031Y5498804D01*
X8932144Y5654084D01*
X8933791Y5675000D01*
X8405000Y5675000D01*
X7905000Y5675000D01*
X7905000Y6285000D01*
X7874000Y6285000D01*
X7826434Y6302313D01*
X7801124Y6346150D01*
X7800000Y6359000D01*
X7800000Y7975000D01*
X8200000Y7975000D01*
X8200000Y6775000D01*
X8202716Y6775000D01*
X8250282Y6757687D01*
X8264244Y6742113D01*
X8305448Y6680448D01*
X8371769Y6636133D01*
X8371771Y6636133D01*
X8372112Y6635905D01*
X8402044Y6595083D01*
X8405000Y6574376D01*
X8405000Y6175000D01*
X8933789Y6175000D01*
X8933790Y6175002D01*
X8932145Y6195911D01*
X8932145Y6195913D01*
X8887031Y6351197D01*
X8804719Y6490378D01*
X8796923Y6498174D01*
X8775531Y6544050D01*
X8788632Y6592945D01*
X8830096Y6621979D01*
X8849249Y6624500D01*
X8869746Y6624500D01*
X8869748Y6624500D01*
X8928231Y6636133D01*
X8994552Y6680448D01*
X9038867Y6746769D01*
X9050500Y6805252D01*
X9050500Y7494748D01*
X9038867Y7553231D01*
X8994552Y7619552D01*
X8961792Y7641442D01*
X8928232Y7663867D01*
X8928233Y7663867D01*
X8897464Y7669987D01*
X8869748Y7675500D01*
X8709969Y7675500D01*
X8662403Y7692813D01*
X8645021Y7714035D01*
X8643353Y7717088D01*
X8557188Y7832189D01*
X8442088Y7918354D01*
X8442087Y7918355D01*
X8307380Y7968597D01*
X8307375Y7968598D01*
X8247829Y7975000D01*
X8200000Y7975000D01*
X7800000Y7975000D01*
X7752171Y7975000D01*
X7692624Y7968598D01*
X7692619Y7968597D01*
X7557912Y7918355D01*
X7557911Y7918354D01*
X7442811Y7832189D01*
X7356646Y7717088D01*
X7354979Y7714035D01*
X7316988Y7680585D01*
X7290031Y7675500D01*
X7130252Y7675500D01*
X7102536Y7669987D01*
X7071767Y7663867D01*
X7005449Y7619553D01*
X7005447Y7619551D01*
X6961133Y7553233D01*
X6958167Y7538320D01*
X6949500Y7494748D01*
X6949500Y6805252D01*
X6951616Y6794614D01*
X6943913Y6744585D01*
X6937434Y6734731D01*
X6933186Y6729272D01*
X6930151Y6725834D01*
X6926629Y6722313D01*
X6926625Y6722308D01*
X6913955Y6704562D01*
X6882483Y6664127D01*
X6879567Y6658738D01*
X6879255Y6658907D01*
X6878133Y6656728D01*
X6878452Y6656572D01*
X6875758Y6651063D01*
X6861138Y6601955D01*
X6844499Y6553487D01*
X6843491Y6547442D01*
X6843139Y6547501D01*
X6842787Y6545084D01*
X6843142Y6545039D01*
X6842383Y6538953D01*
X6844500Y6487769D01*
X6844500Y6396693D01*
X6827187Y6349127D01*
X6822826Y6344368D01*
X6771779Y6293321D01*
X6771776Y6293317D01*
X6721027Y6184486D01*
X6714500Y6134900D01*
X6714500Y5715101D01*
X6125500Y5715101D01*
X6125500Y8055233D01*
X6142813Y8102799D01*
X6147163Y8107548D01*
X6792441Y8752826D01*
X6838319Y8774218D01*
X6844768Y8774500D01*
X6875610Y8774500D01*
X6923176Y8757187D01*
X6948486Y8713350D01*
X6949253Y8707757D01*
X6949499Y8705257D01*
X6961133Y8646768D01*
X6968331Y8635996D01*
X7005448Y8580448D01*
X7049560Y8550973D01*
X7071767Y8536134D01*
X7071768Y8536134D01*
X7071769Y8536133D01*
X7130252Y8524500D01*
X7130254Y8524500D01*
X7290031Y8524500D01*
X7337597Y8507187D01*
X7354979Y8485965D01*
X7356646Y8482913D01*
X7442811Y8367812D01*
X7557911Y8281647D01*
X7557912Y8281646D01*
X7692619Y8231404D01*
X7692624Y8231403D01*
X7752171Y8225000D01*
X7800000Y8225000D01*
X7800000Y9450000D01*
X7780579Y9450000D01*
X7733013Y9467313D01*
X7719051Y9482887D01*
X7717358Y9485421D01*
X7694552Y9519552D01*
X7628231Y9563867D01*
X7627887Y9564097D01*
X7597956Y9604919D01*
X7595000Y9625625D01*
X7595000Y10050000D01*
X7066211Y10050000D01*
X7066209Y10049999D01*
X7067854Y10029090D01*
X7067854Y10029088D01*
X7112968Y9873804D01*
X7195280Y9734623D01*
X7228077Y9701826D01*
X7249469Y9655950D01*
X7236368Y9607055D01*
X7194904Y9578021D01*
X7175751Y9575500D01*
X7130252Y9575500D01*
X7101010Y9569684D01*
X7071767Y9563867D01*
X7005449Y9519553D01*
X7005447Y9519551D01*
X6961133Y9453233D01*
X6949499Y9394744D01*
X6949253Y9392243D01*
X6948824Y9391350D01*
X6948791Y9391182D01*
X6948748Y9391191D01*
X6927359Y9346604D01*
X6881251Y9325715D01*
X6875610Y9325500D01*
X6734421Y9325500D01*
X6719985Y9326922D01*
X6700001Y9330897D01*
X6699999Y9330897D01*
X6592506Y9309517D01*
X6526307Y9265285D01*
X6526305Y9265282D01*
X6501376Y9248625D01*
X6501374Y9248623D01*
X6490053Y9231681D01*
X6480853Y9220471D01*
X5679529Y8419147D01*
X5668319Y8409947D01*
X5651377Y8398626D01*
X5651374Y8398623D01*
X5594533Y8313555D01*
X5585332Y8302343D01*
X5584523Y8301535D01*
X5586105Y8285477D01*
X5569103Y8200001D01*
X5569103Y8200000D01*
X5573078Y8180017D01*
X5574500Y8165580D01*
X5574500Y1844769D01*
X5557187Y1797203D01*
X5552826Y1792443D01*
X4451826Y691443D01*
X4405950Y670051D01*
X4357055Y683152D01*
X4328021Y724616D01*
X4325500Y743769D01*
X4325500Y1425500D01*
X4342813Y1473066D01*
X4386650Y1498376D01*
X4399500Y1499500D01*
X4569746Y1499500D01*
X4569748Y1499500D01*
X4628231Y1511133D01*
X4694552Y1555448D01*
X4738867Y1621769D01*
X4750500Y1680252D01*
X4750500Y3519748D01*
X4738867Y3578231D01*
X4694552Y3644552D01*
X4672343Y3659392D01*
X4628232Y3688867D01*
X4628233Y3688867D01*
X4598989Y3694684D01*
X4569748Y3700500D01*
X4569746Y3700500D01*
X4399500Y3700500D01*
X4351934Y3717813D01*
X4326624Y3761650D01*
X4325500Y3774500D01*
X4325500Y3869878D01*
X4342813Y3917444D01*
X4347174Y3922204D01*
X4402206Y3977235D01*
X4447585Y4080009D01*
X4450500Y4105135D01*
X4450499Y4227807D01*
X4467811Y4275372D01*
X4479451Y4286514D01*
X4577922Y4362074D01*
X4577923Y4362075D01*
X4674099Y4487413D01*
X4734555Y4633368D01*
X4734556Y4633371D01*
X4745961Y4720000D01*
X3354040Y4720000D01*
X3365443Y4633372D01*
X3365444Y4633368D01*
X3425900Y4487413D01*
X3522076Y4362075D01*
X3522077Y4362074D01*
X3620548Y4286514D01*
X3647746Y4243822D01*
X3649500Y4227807D01*
X3649500Y4105136D01*
X3652414Y4080014D01*
X3652415Y4080008D01*
X3697794Y3977235D01*
X3752826Y3922203D01*
X3774218Y3876327D01*
X3774500Y3869877D01*
X3774500Y3774500D01*
X3757187Y3726934D01*
X3713350Y3701624D01*
X3700500Y3700500D01*
X3530252Y3700500D01*
X3501010Y3694684D01*
X3471767Y3688867D01*
X3405449Y3644553D01*
X3405447Y3644551D01*
X3361133Y3578233D01*
X3361132Y3578231D01*
X3361133Y3578231D01*
X3349500Y3519748D01*
X3349500Y1680252D01*
X3357255Y1641264D01*
X3361133Y1621768D01*
X3376219Y1599191D01*
X3405448Y1555448D01*
X3449560Y1525973D01*
X3471767Y1511134D01*
X3471768Y1511134D01*
X3471769Y1511133D01*
X3530252Y1499500D01*
X3700500Y1499500D01*
X3748066Y1482187D01*
X3773376Y1438350D01*
X3774500Y1425500D01*
X3774499Y844769D01*
X3757186Y797203D01*
X3752825Y792443D01*
X3029529Y69147D01*
X3018319Y59947D01*
X3001377Y48626D01*
X3001374Y48623D01*
X2985344Y24632D01*
X2985340Y24625D01*
X2975244Y9515D01*
X2940485Y-42503D01*
X2937925Y-55374D01*
X2919103Y-149999D01*
X2919103Y-150000D01*
X2923078Y-169983D01*
X2924500Y-184420D01*
X2924500Y-419754D01*
X2907187Y-467320D01*
X2891614Y-481282D01*
X2855446Y-505449D01*
X2852323Y-508573D01*
X2806445Y-529963D01*
X2757552Y-516859D01*
X2747677Y-508573D01*
X2744553Y-505449D01*
X2708386Y-481282D01*
X2678456Y-440459D01*
X2675500Y-419754D01*
X2675500Y-184420D01*
X2676922Y-169983D01*
X2678919Y-159946D01*
X2680897Y-150000D01*
X2677545Y-133150D01*
X2659516Y-42506D01*
X2631114Y0D01*
X2613994Y25622D01*
X2613993Y25623D01*
X2611974Y28645D01*
X2611973Y28645D01*
X2609941Y31686D01*
X2598624Y48624D01*
X2598621Y48626D01*
X2581683Y59944D01*
X2570470Y69146D01*
X1847174Y792442D01*
X1825782Y838318D01*
X1825500Y844768D01*
X1825500Y1425500D01*
X1842813Y1473066D01*
X1886650Y1498376D01*
X1899500Y1499500D01*
X2069746Y1499500D01*
X2069748Y1499500D01*
X2128231Y1511133D01*
X2194552Y1555448D01*
X2238867Y1621769D01*
X2250500Y1680252D01*
X2250500Y3519748D01*
X2238867Y3578231D01*
X2194552Y3644552D01*
X2172343Y3659392D01*
X2128232Y3688867D01*
X2128233Y3688867D01*
X2098989Y3694684D01*
X2069748Y3700500D01*
X2069746Y3700500D01*
X1899500Y3700500D01*
X1851934Y3717813D01*
X1826624Y3761650D01*
X1825500Y3774500D01*
X1825500Y3869877D01*
X1842813Y3917443D01*
X1847174Y3922203D01*
X1847175Y3922204D01*
X1902206Y3977235D01*
X1947585Y4080009D01*
X1950500Y4105135D01*
X1950499Y4227807D01*
X1967811Y4275372D01*
X1979451Y4286514D01*
X2077922Y4362074D01*
X2077923Y4362075D01*
X2174099Y4487413D01*
X2234555Y4633368D01*
X2234556Y4633371D01*
X2245961Y4720000D01*
X854040Y4720000D01*
X865443Y4633372D01*
X865444Y4633368D01*
X925900Y4487413D01*
X1022076Y4362075D01*
X1022077Y4362074D01*
X1120548Y4286514D01*
X1147746Y4243822D01*
X1149500Y4227807D01*
X1149500Y4105136D01*
X1152414Y4080014D01*
X1152415Y4080008D01*
X1197794Y3977235D01*
X1252826Y3922203D01*
X1274218Y3876327D01*
X1274500Y3869877D01*
X1274500Y3774500D01*
X1257187Y3726934D01*
X1213350Y3701624D01*
X1200500Y3700500D01*
X1030252Y3700500D01*
X1001010Y3694684D01*
X971767Y3688867D01*
X905449Y3644553D01*
X905447Y3644551D01*
X861133Y3578233D01*
X861132Y3578231D01*
X861133Y3578231D01*
X849500Y3519748D01*
X849500Y1680252D01*
X857255Y1641264D01*
X861133Y1621768D01*
X876219Y1599191D01*
X905448Y1555448D01*
X949560Y1525973D01*
X971767Y1511134D01*
X971768Y1511134D01*
X971769Y1511133D01*
X1030252Y1499500D01*
X1200500Y1499500D01*
X1248066Y1482187D01*
X1273376Y1438350D01*
X1274500Y1425500D01*
X1274500Y734421D01*
X1273078Y719985D01*
X1269103Y700001D01*
X1269102Y700000D01*
X1273441Y678192D01*
X1274500Y672868D01*
X1274500Y672867D01*
X1290485Y592505D01*
X1350388Y502854D01*
X1351377Y501375D01*
X1368314Y490058D01*
X1379529Y480855D01*
X2102825Y-242441D01*
X2124217Y-288317D01*
X2124499Y-294767D01*
X2124499Y-419755D01*
X2107186Y-467321D01*
X2091613Y-481282D01*
X2055448Y-505448D01*
X2055447Y-505449D01*
X2055446Y-505450D01*
X2052323Y-508573D01*
X2006445Y-529963D01*
X1957552Y-516859D01*
X1947677Y-508573D01*
X1944553Y-505449D01*
X1908386Y-481282D01*
X1878456Y-440459D01*
X1875500Y-419754D01*
X1875500Y-384420D01*
X1876922Y-369983D01*
X1880897Y-350000D01*
X1860937Y-249654D01*
X1860577Y-246008D01*
X1859516Y-242508D01*
X1859515Y-242506D01*
X1859515Y-242505D01*
X1798624Y-151376D01*
X1781679Y-140053D01*
X1770470Y-130854D01*
X1619145Y20471D01*
X1609942Y31686D01*
X1598626Y48622D01*
X1598624Y48624D01*
X1593085Y52325D01*
X1575623Y63993D01*
X1575622Y63994D01*
X1522483Y99500D01*
X1507495Y109515D01*
X1427133Y125500D01*
X1427132Y125500D01*
X1427130Y125501D01*
X1400001Y130897D01*
X1400000Y130897D01*
X1380017Y126922D01*
X1365580Y125500D01*
X1144768Y125500D01*
X1097202Y142813D01*
X1092442Y147174D01*
X697174Y542442D01*
X675782Y588318D01*
X675500Y594768D01*
X675500Y5120000D01*
X854039Y5120000D01*
X1350000Y5120000D01*
X1350000Y5642012D01*
X1749999Y5642012D01*
X1749999Y5120001D01*
X1750000Y5120000D01*
X2245960Y5120000D01*
X3354039Y5120000D01*
X3850000Y5120000D01*
X3850000Y5642013D01*
X4250000Y5642013D01*
X4250000Y5120000D01*
X4745960Y5120000D01*
X4745960Y5120001D01*
X4734556Y5206629D01*
X4734555Y5206633D01*
X4674099Y5352588D01*
X4577924Y5477925D01*
X4452587Y5574100D01*
X4306630Y5634557D01*
X4250000Y5642013D01*
X3850000Y5642013D01*
X3849999Y5642013D01*
X3793369Y5634557D01*
X3647412Y5574100D01*
X3522075Y5477925D01*
X3425900Y5352588D01*
X3365444Y5206633D01*
X3365443Y5206630D01*
X3354039Y5120000D01*
X2245960Y5120000D01*
X2245960Y5120001D01*
X2234556Y5206629D01*
X2234555Y5206633D01*
X2174099Y5352588D01*
X2077924Y5477925D01*
X1952587Y5574100D01*
X1806630Y5634557D01*
X1749999Y5642012D01*
X1350000Y5642012D01*
X1350000Y5642013D01*
X1349999Y5642013D01*
X1293369Y5634557D01*
X1147412Y5574100D01*
X1022075Y5477925D01*
X925900Y5352588D01*
X865444Y5206633D01*
X865443Y5206630D01*
X854039Y5120000D01*
X675500Y5120000D01*
X675500Y7440194D01*
X692813Y7487760D01*
X736650Y7513070D01*
X786500Y7504280D01*
X816566Y7471469D01*
X831150Y7440194D01*
X846776Y7406684D01*
X927826Y7325634D01*
X949218Y7279758D01*
X949500Y7273308D01*
X949500Y7261035D01*
X932187Y7213469D01*
X931426Y7212576D01*
X917119Y7196066D01*
X917118Y7196064D01*
X863302Y7078224D01*
X844867Y6950000D01*
X863302Y6821777D01*
X863302Y6821776D01*
X863303Y6821774D01*
X917118Y6703937D01*
X1001951Y6606033D01*
X1110931Y6535996D01*
X1235228Y6499500D01*
X1364772Y6499500D01*
X1489069Y6535996D01*
X1598049Y6606033D01*
X1682882Y6703937D01*
X1736697Y6821774D01*
X1755133Y6950000D01*
X1736697Y7078226D01*
X1682882Y7196063D01*
X1682880Y7196065D01*
X1682880Y7196066D01*
X1668574Y7212576D01*
X1650509Y7259862D01*
X1650500Y7261035D01*
X1650500Y7273308D01*
X1667813Y7320874D01*
X1672174Y7325634D01*
X1753224Y7406684D01*
X1803972Y7515513D01*
X1810500Y7565099D01*
X1810499Y7924900D01*
X1804919Y7967289D01*
X1815875Y8016705D01*
X1840619Y8040640D01*
X1865378Y8055282D01*
X1979719Y8169623D01*
X2062031Y8308804D01*
X2104505Y8455000D01*
X1124000Y8455000D01*
X1076434Y8472313D01*
X1051124Y8516150D01*
X1050000Y8529000D01*
X1050000Y9010000D01*
X1024000Y9010000D01*
X976434Y9027313D01*
X951124Y9071150D01*
X950000Y9084000D01*
X950000Y9988500D01*
X967313Y10036066D01*
X1011150Y10061376D01*
X1024000Y10062500D01*
X1376000Y10062500D01*
X1423566Y10045187D01*
X1448876Y10001350D01*
X1450000Y9988500D01*
X1450000Y9525000D01*
X1476000Y9525000D01*
X1523566Y9507687D01*
X1548876Y9463850D01*
X1550000Y9451000D01*
X1549999Y8955001D01*
X1550000Y8955000D01*
X2104505Y8955000D01*
X2104505Y8955001D01*
X2062032Y9101194D01*
X2025163Y9163535D01*
X2015852Y9213290D01*
X2040700Y9257391D01*
X2088082Y9275201D01*
X2134994Y9259062D01*
X2151723Y9245721D01*
X2283794Y9182119D01*
X2426706Y9149500D01*
X2426709Y9149500D01*
X3573291Y9149500D01*
X3573294Y9149500D01*
X3716206Y9182119D01*
X3848277Y9245721D01*
X3962883Y9337117D01*
X4054279Y9451723D01*
X4117881Y9583794D01*
X4150500Y9726706D01*
X4150500Y9800000D01*
X4150500Y9834351D01*
X4150500Y10550000D01*
X7066209Y10550000D01*
X7595000Y10550000D01*
X7595000Y11104506D01*
X8094999Y11104506D01*
X8095000Y9915000D01*
X8126000Y9915000D01*
X8173566Y9897687D01*
X8198876Y9853850D01*
X8200000Y9841000D01*
X8200000Y8225000D01*
X8247829Y8225000D01*
X8307375Y8231403D01*
X8307380Y8231404D01*
X8442087Y8281646D01*
X8442088Y8281647D01*
X8557188Y8367812D01*
X8643353Y8482913D01*
X8645021Y8485965D01*
X8683012Y8519415D01*
X8709969Y8524500D01*
X8869746Y8524500D01*
X8869748Y8524500D01*
X8928231Y8536133D01*
X8994552Y8580448D01*
X9038867Y8646769D01*
X9038867Y8646772D01*
X9041655Y8653500D01*
X9044913Y8652151D01*
X9063793Y8683232D01*
X9110086Y8699500D01*
X9490389Y8699500D01*
X9530394Y8687754D01*
X9610931Y8635996D01*
X9735228Y8599500D01*
X9864772Y8599500D01*
X9989069Y8635996D01*
X10098049Y8706033D01*
X10182882Y8803937D01*
X10236697Y8921774D01*
X10255133Y9050000D01*
X10236697Y9178226D01*
X10182882Y9296063D01*
X10098049Y9393967D01*
X9989309Y9463850D01*
X9989068Y9464005D01*
X9864772Y9500500D01*
X9735228Y9500500D01*
X9610933Y9464005D01*
X9610931Y9464005D01*
X9610931Y9464004D01*
X9530394Y9412247D01*
X9490389Y9400500D01*
X9110086Y9400500D01*
X9062520Y9417813D01*
X9044766Y9447787D01*
X9041656Y9446498D01*
X9038867Y9453230D01*
X9038867Y9453231D01*
X9017200Y9485658D01*
X9005169Y9534826D01*
X9027557Y9580225D01*
X9038257Y9588722D01*
X9045669Y9593563D01*
X9066817Y9620737D01*
X9069843Y9624162D01*
X9073375Y9627693D01*
X9079922Y9636863D01*
X9086045Y9645439D01*
X9101780Y9665657D01*
X9117517Y9685874D01*
X9117518Y9685880D01*
X9120435Y9691267D01*
X9120752Y9691096D01*
X9121868Y9693263D01*
X9121545Y9693421D01*
X9124240Y9698934D01*
X9138861Y9748046D01*
X9155500Y9796513D01*
X9156510Y9802562D01*
X9156862Y9802504D01*
X9157214Y9804914D01*
X9156858Y9804958D01*
X9157616Y9811044D01*
X9157617Y9811046D01*
X9156970Y9826660D01*
X9172301Y9874898D01*
X9178572Y9882034D01*
X9228224Y9931684D01*
X9278972Y10040513D01*
X9285500Y10090099D01*
X9285499Y10509900D01*
X9278972Y10559487D01*
X9228224Y10668316D01*
X9143316Y10753224D01*
X9034487Y10803972D01*
X9034485Y10803973D01*
X8997954Y10808782D01*
X8984901Y10810500D01*
X8984899Y10810500D01*
X8625100Y10810500D01*
X8582714Y10804920D01*
X8533295Y10815877D01*
X8509362Y10840619D01*
X8494721Y10865376D01*
X8380377Y10979720D01*
X8241196Y11062032D01*
X8094999Y11104506D01*
X7595000Y11104506D01*
X7448803Y11062032D01*
X7309622Y10979720D01*
X7195280Y10865378D01*
X7112968Y10726197D01*
X7067855Y10570917D01*
X7066209Y10550000D01*
X4150500Y10550000D01*
X4150500Y14019814D01*
X4150500Y14073294D01*
X4117881Y14216206D01*
X4054279Y14348277D01*
X3962883Y14462883D01*
X3848277Y14554279D01*
X3848275Y14554280D01*
X3848274Y14554281D01*
X3716208Y14617880D01*
X3716204Y14617882D01*
X3652963Y14632316D01*
X3573294Y14650500D01*
X3519814Y14650500D01*
X-3465649Y14650500D01*
X-3500000Y14650500D01*
X-3573294Y14650500D01*
X-3640479Y14635166D01*
X-3716205Y14617882D01*
X-3716209Y14617880D01*
X-3848275Y14554281D01*
X-3848276Y14554280D01*
X-3962879Y14462887D01*
X-3962887Y14462879D01*
X-4054280Y14348276D01*
X-4054281Y14348275D01*
X-4117880Y14216209D01*
X-4117882Y14216205D01*
X-4138378Y14126408D01*
X-4150500Y14073294D01*
X-4150500Y14019814D01*
X-4150500Y9834351D01*
X-4150500Y9800000D01*
X-4150500Y9726706D01*
X-4142782Y9692893D01*
X-4117882Y9583796D01*
X-4117880Y9583792D01*
X-4054281Y9451726D01*
X-4054280Y9451725D01*
X-4054279Y9451723D01*
X-3962883Y9337117D01*
X-3848277Y9245721D01*
X-3716206Y9182119D01*
X-3573294Y9149500D01*
X-3573291Y9149500D01*
X-2426709Y9149500D01*
X-2426706Y9149500D01*
X-2283794Y9182119D01*
X-2151723Y9245721D01*
X-2037117Y9337117D01*
X-1945721Y9451723D01*
X-1882119Y9583794D01*
X-1849500Y9726706D01*
X-1849500Y9800000D01*
X-1849500Y9834351D01*
X-1849501Y12497573D01*
X-1849183Y12502408D01*
X-1844068Y12541260D01*
X-1838862Y12580805D01*
X-1833865Y12599455D01*
X-1806402Y12665757D01*
X-1796753Y12682470D01*
X-1753061Y12739411D01*
X-1739411Y12753061D01*
X-1682470Y12796753D01*
X-1665757Y12806402D01*
X-1599455Y12833865D01*
X-1580803Y12838863D01*
X-1528319Y12845772D01*
X-1502406Y12849183D01*
X-1497571Y12849500D01*
X-1465649Y12849500D01*
X-263035Y12849500D01*
X-215469Y12832187D01*
X-190159Y12788350D01*
X-198949Y12738500D01*
X-210709Y12723174D01*
X-222774Y12711110D01*
X-222775Y12711109D01*
X-237135Y12686828D01*
X-276251Y12654701D01*
X-300828Y12650500D01*
X-563138Y12650500D01*
X-610544Y12644260D01*
X-610546Y12644259D01*
X-714580Y12595747D01*
X-747674Y12562652D01*
X-793550Y12541260D01*
X-842445Y12554361D01*
X-852326Y12562652D01*
X-885421Y12595747D01*
X-893381Y12599459D01*
X-989455Y12644259D01*
X-989457Y12644260D01*
X-1024381Y12648858D01*
X-1036861Y12650500D01*
X-1036863Y12650500D01*
X-1363138Y12650500D01*
X-1410544Y12644260D01*
X-1410546Y12644259D01*
X-1514580Y12595747D01*
X-1595747Y12514580D01*
X-1644260Y12410544D01*
X-1650500Y12363138D01*
X-1650500Y12011863D01*
X-1644260Y11964457D01*
X-1644259Y11964455D01*
X-1595747Y11860421D01*
X-1538059Y11802733D01*
X-1516667Y11756857D01*
X-1529768Y11707962D01*
X-1534459Y11701948D01*
X-1582880Y11646068D01*
X-1582881Y11646066D01*
X-1636698Y11528224D01*
X-1655133Y11400000D01*
X-1636698Y11271777D01*
X-1636698Y11271776D01*
X-1636697Y11271774D01*
X-1582882Y11153937D01*
X-1498049Y11056033D01*
X-1389069Y10985996D01*
X-1264772Y10949500D01*
X-1135228Y10949500D01*
X-1010931Y10985996D01*
X-906667Y11053003D01*
X-857294Y11064155D01*
X-812302Y11040960D01*
X-792745Y10994272D01*
X-799348Y10960010D01*
X-836698Y10878226D01*
X-855133Y10750000D01*
X-836698Y10621777D01*
X-836698Y10621776D01*
X-836697Y10621774D01*
X-782882Y10503937D01*
X-698049Y10406033D01*
X-650860Y10375707D01*
X-620205Y10335428D01*
X-622614Y10284866D01*
X-656959Y10247681D01*
X-659593Y10246389D01*
X-714577Y10220749D01*
X-714580Y10220747D01*
X-747674Y10187652D01*
X-793550Y10166260D01*
X-842445Y10179361D01*
X-852326Y10187652D01*
X-885421Y10220747D01*
X-940406Y10246387D01*
X-989455Y10269259D01*
X-989457Y10269260D01*
X-1024382Y10273858D01*
X-1036861Y10275500D01*
X-1036863Y10275500D01*
X-1363138Y10275500D01*
X-1410544Y10269260D01*
X-1410546Y10269259D01*
X-1514580Y10220747D01*
X-1595747Y10139580D01*
X-1644260Y10035544D01*
X-1650500Y9988138D01*
X-1650500Y9636863D01*
X-1644260Y9589457D01*
X-1644259Y9589455D01*
X-1595747Y9485421D01*
X-1514580Y9404254D01*
X-1509277Y9400541D01*
X-1510736Y9398458D01*
X-1482442Y9370180D01*
X-1475500Y9338888D01*
X-1475500Y7684421D01*
X-1476921Y7669992D01*
X-1478896Y7660065D01*
X-1505152Y7616790D01*
X-1551473Y7600500D01*
X-1614772Y7600500D01*
X-1739069Y7564005D01*
X-1848046Y7493969D01*
X-1848050Y7493966D01*
X-1932881Y7396065D01*
X-1986698Y7278224D01*
X-2005133Y7150001D01*
X-1986698Y7021777D01*
X-1986698Y7021776D01*
X-1986697Y7021774D01*
X-1932882Y6903937D01*
X-1848049Y6806033D01*
X-1739069Y6735996D01*
X-1614772Y6699500D01*
X-1519768Y6699500D01*
X-1472202Y6682187D01*
X-1467442Y6677826D01*
X-1097174Y6307558D01*
X-1075782Y6261682D01*
X-1075500Y6255232D01*
X-1075500Y1123377D01*
X-1092813Y1075811D01*
X-1136650Y1050501D01*
X-1186500Y1059291D01*
X-1216172Y1091270D01*
X-1223575Y1106643D01*
X-1226698Y1111223D01*
X-1226660Y1111250D01*
X-1230104Y1116105D01*
X-1230142Y1116076D01*
X-1233435Y1120538D01*
X-1275483Y1162587D01*
X-1300483Y1189530D01*
X-1315945Y1206194D01*
X-1315952Y1206198D01*
X-1320283Y1209653D01*
X-1320255Y1209689D01*
X-1330277Y1217380D01*
X-1712088Y1599191D01*
X-1714855Y1602288D01*
X-1740123Y1633972D01*
X-1789272Y1667481D01*
X-1837118Y1702793D01*
X-1842019Y1705383D01*
X-1841998Y1705425D01*
X-1847313Y1708108D01*
X-1847332Y1708067D01*
X-1852327Y1710473D01*
X-1909178Y1728008D01*
X-1938623Y1738311D01*
X-1965301Y1747646D01*
X-1965303Y1747647D01*
X-1965305Y1747647D01*
X-1970749Y1748677D01*
X-1970741Y1748722D01*
X-1976609Y1749719D01*
X-1976615Y1749674D01*
X-1982097Y1750500D01*
X-1982098Y1750500D01*
X-2041574Y1750500D01*
X-2101006Y1752725D01*
X-2106519Y1752103D01*
X-2106525Y1752150D01*
X-2119052Y1750500D01*
X-2275500Y1750500D01*
X-2323066Y1767813D01*
X-2348376Y1811650D01*
X-2349500Y1824500D01*
X-2349500Y1829260D01*
X-2349500Y1829266D01*
X-2352354Y1859699D01*
X-2359217Y1879311D01*
X-2397207Y1987882D01*
X-2397208Y1987884D01*
X-2477847Y2097147D01*
X-2477851Y2097151D01*
X-2544443Y2146298D01*
X-2572434Y2188473D01*
X-2574500Y2205838D01*
X-2574500Y2734006D01*
X-2574501Y2734016D01*
X-2589069Y2835340D01*
X-2589069Y2835342D01*
X-2645870Y2959718D01*
X-2735411Y3063055D01*
X-2735415Y3063058D01*
X-2798193Y3103402D01*
X-2850439Y3136978D01*
X-2850440Y3136979D01*
X-2981631Y3175500D01*
X-2981633Y3175500D01*
X-3118367Y3175500D01*
X-3118369Y3175500D01*
X-3249561Y3136979D01*
X-3249563Y3136977D01*
X-3364586Y3063058D01*
X-3454129Y2959720D01*
X-3510932Y2835340D01*
X-3525500Y2734016D01*
X-3525500Y2205838D01*
X-3542813Y2158272D01*
X-3555557Y2146298D01*
X-3622150Y2097151D01*
X-3622154Y2097147D01*
X-3702793Y1987884D01*
X-3702794Y1987882D01*
X-3747645Y1859705D01*
X-3747646Y1859701D01*
X-3747646Y1859699D01*
X-3750500Y1829266D01*
X-3750500Y770734D01*
X-3747646Y740301D01*
X-3747646Y740299D01*
X-3747645Y740296D01*
X-3702794Y612119D01*
X-3702793Y612117D01*
X-3622154Y502854D01*
X-3622147Y502847D01*
X-3512884Y422208D01*
X-3512882Y422207D01*
X-3384705Y377356D01*
X-3384699Y377354D01*
X-3354266Y374500D01*
X-3354259Y374500D01*
X-2745742Y374500D01*
X-2745734Y374500D01*
X-2715301Y377354D01*
X-2587118Y422207D01*
X-2477850Y502850D01*
X-2475614Y505879D01*
X-2432634Y564116D01*
X-2397207Y612118D01*
X-2352354Y740301D01*
X-2349500Y770734D01*
X-2349500Y775500D01*
X-2332187Y823066D01*
X-2288350Y848376D01*
X-2275500Y849500D01*
X-2267256Y849500D01*
X-2219690Y832187D01*
X-2214930Y827826D01*
X-2072175Y685071D01*
X-2050783Y639195D01*
X-2050501Y632745D01*
X-2050500Y-385140D01*
X-2067813Y-432706D01*
X-2111650Y-458016D01*
X-2138936Y-457718D01*
X-2180252Y-449500D01*
X-2619748Y-449500D01*
X-2648990Y-455316D01*
X-2678233Y-461133D01*
X-2744552Y-505448D01*
X-2747677Y-508573D01*
X-2793555Y-529963D01*
X-2842448Y-516859D01*
X-2852323Y-508573D01*
X-2855447Y-505450D01*
X-2855448Y-505448D01*
X-2891614Y-481282D01*
X-2921768Y-461133D01*
X-2921767Y-461133D01*
X-2951011Y-455316D01*
X-2980252Y-449500D01*
X-3419748Y-449500D01*
X-3448990Y-455316D01*
X-3478233Y-461133D01*
X-3544552Y-505448D01*
X-3547677Y-508573D01*
X-3593555Y-529963D01*
X-3642448Y-516859D01*
X-3652323Y-508573D01*
X-3655447Y-505450D01*
X-3655448Y-505448D01*
X-3691614Y-481282D01*
X-3721768Y-461133D01*
X-3721767Y-461133D01*
X-3751011Y-455316D01*
X-3780252Y-449500D01*
X-4090031Y-449500D01*
X-4137597Y-432187D01*
X-4154979Y-410965D01*
X-4156647Y-407912D01*
X-4242812Y-292811D01*
X-4357912Y-206646D01*
X-4357913Y-206645D01*
X-4492620Y-156403D01*
X-4492625Y-156402D01*
X-4552171Y-150000D01*
X-4600000Y-150000D01*
X-4600000Y-1076000D01*
X-4617313Y-1123566D01*
X-4661150Y-1148876D01*
X-4674000Y-1150000D01*
X-5500000Y-1150000D01*
X-5500000Y-1297828D01*
X-5493598Y-1357375D01*
X-5493597Y-1357380D01*
X-5443355Y-1492087D01*
X-5443354Y-1492088D01*
X-5357189Y-1607188D01*
X-5242090Y-1693352D01*
X-5198641Y-1709557D01*
X-5160123Y-1742400D01*
X-5150501Y-1778891D01*
X-5150500Y-2169748D01*
X-5146023Y-2192254D01*
X-5138867Y-2228232D01*
X-5124108Y-2250319D01*
X-5094552Y-2294552D01*
X-5094549Y-2294554D01*
X-5091427Y-2297677D01*
X-5070037Y-2343555D01*
X-5083141Y-2392448D01*
X-5091427Y-2402323D01*
X-5094552Y-2405448D01*
X-5138867Y-2471767D01*
X-5138868Y-2471769D01*
X-5138867Y-2471769D01*
X-5150500Y-2530252D01*
X-5150500Y-2969748D01*
X-5145265Y-2996064D01*
X-5138867Y-3028232D01*
X-5116710Y-3061391D01*
X-5094552Y-3094552D01*
X-5094549Y-3094554D01*
X-5091427Y-3097677D01*
X-5070037Y-3143555D01*
X-5083141Y-3192448D01*
X-5091427Y-3202323D01*
X-5094552Y-3205448D01*
X-5138867Y-3271767D01*
X-5150500Y-3330253D01*
X-5150500Y-3769746D01*
X-5138867Y-3828232D01*
X-5116710Y-3861391D01*
X-5094552Y-3894552D01*
X-5094549Y-3894554D01*
X-5091427Y-3897677D01*
X-5070037Y-3943555D01*
X-5083141Y-3992448D01*
X-5091427Y-4002323D01*
X-5094552Y-4005448D01*
X-5138867Y-4071767D01*
X-5141625Y-4085632D01*
X-5150500Y-4130252D01*
X-5150500Y-4569748D01*
X-5143847Y-4603193D01*
X-5138867Y-4628232D01*
X-5127172Y-4645734D01*
X-5094552Y-4694552D01*
X-5094549Y-4694554D01*
X-5091427Y-4697677D01*
X-5070037Y-4743555D01*
X-5083141Y-4792448D01*
X-5091427Y-4802323D01*
X-5094552Y-4805448D01*
X-5138867Y-4871767D01*
X-5141510Y-4885056D01*
X-5150500Y-4930252D01*
X-5150500Y-5369748D01*
X-5147753Y-5383556D01*
X-5138867Y-5428232D01*
X-5113504Y-5466189D01*
X-5094552Y-5494552D01*
X-5062522Y-5515954D01*
X-5028233Y-5538866D01*
X-5028232Y-5538866D01*
X-5028231Y-5538867D01*
X-4969748Y-5550500D01*
X-4969746Y-5550500D01*
X-4326617Y-5550500D01*
X-4326618Y-5551969D01*
X-4282737Y-5563203D01*
X-4253241Y-5604340D01*
X-4250501Y-5624291D01*
X-4250501Y-5769746D01*
X-4238867Y-5828232D01*
X-4223896Y-5850637D01*
X-4194552Y-5894552D01*
X-4194549Y-5894554D01*
X-4191427Y-5897677D01*
X-4170037Y-5943555D01*
X-4183141Y-5992448D01*
X-4191427Y-6002323D01*
X-4194552Y-6005448D01*
X-4238867Y-6071767D01*
X-4250501Y-6130253D01*
X-4250501Y-6275708D01*
X-4267814Y-6323275D01*
X-4311652Y-6348584D01*
X-4326617Y-6349156D01*
X-4326617Y-6349500D01*
X-4330252Y-6349500D01*
X-4969748Y-6349500D01*
X-4995634Y-6354649D01*
X-5028233Y-6361133D01*
X-5094551Y-6405447D01*
X-5094553Y-6405449D01*
X-5138867Y-6471767D01*
X-5141003Y-6482507D01*
X-5150500Y-6530252D01*
X-5150500Y-6969748D01*
X-5146751Y-6988594D01*
X-5138867Y-7028232D01*
X-5121892Y-7053635D01*
X-5094552Y-7094552D01*
X-5094549Y-7094554D01*
X-5091427Y-7097677D01*
X-5070037Y-7143555D01*
X-5083141Y-7192448D01*
X-5091427Y-7202323D01*
X-5094552Y-7205448D01*
X-5138867Y-7271767D01*
X-5150500Y-7330253D01*
X-5150500Y-7769746D01*
X-5138867Y-7828232D01*
X-5116710Y-7861391D01*
X-5094552Y-7894552D01*
X-5094549Y-7894554D01*
X-5091427Y-7897677D01*
X-5070037Y-7943555D01*
X-5083141Y-7992448D01*
X-5091427Y-8002323D01*
X-5094552Y-8005448D01*
X-5138867Y-8071767D01*
X-5138868Y-8071769D01*
X-5138867Y-8071769D01*
X-5149893Y-8127203D01*
X-5150500Y-8130253D01*
X-5150500Y-8569746D01*
X-5138867Y-8628232D01*
X-5122769Y-8652323D01*
X-5094552Y-8694552D01*
X-5069300Y-8711425D01*
X-5028233Y-8738866D01*
X-5028232Y-8738866D01*
X-5028231Y-8738867D01*
X-4969748Y-8750500D01*
X-4969746Y-8750500D01*
X-4326617Y-8750500D01*
X-4326618Y-8751969D01*
X-4282737Y-8763203D01*
X-4253241Y-8804340D01*
X-4250501Y-8824291D01*
X-4250501Y-8969746D01*
X-4238867Y-9028232D01*
X-4221692Y-9053935D01*
X-4194552Y-9094552D01*
X-4194549Y-9094554D01*
X-4191427Y-9097677D01*
X-4170037Y-9143555D01*
X-4183141Y-9192448D01*
X-4191427Y-9202323D01*
X-4194552Y-9205448D01*
X-4238867Y-9271767D01*
X-4250501Y-9330253D01*
X-4250501Y-9475708D01*
X-4267814Y-9523275D01*
X-4311652Y-9548584D01*
X-4326617Y-9549156D01*
X-4326617Y-9549500D01*
X-4330252Y-9549500D01*
X-4969748Y-9549500D01*
X-5006970Y-9556903D01*
X-5056999Y-9549204D01*
X-5073732Y-9536652D01*
X-7127893Y-7482491D01*
X-7137096Y-7471276D01*
X-7148412Y-7454340D01*
X-7148414Y-7454338D01*
X-7155574Y-7449554D01*
X-7168394Y-7440987D01*
X-7168397Y-7440985D01*
X-7224957Y-7403193D01*
X-7239543Y-7393447D01*
X-7319905Y-7377462D01*
X-7319906Y-7377462D01*
X-7319908Y-7377461D01*
X-7347037Y-7372065D01*
X-7347038Y-7372065D01*
X-7367021Y-7376040D01*
X-7381458Y-7377462D01*
X-9874947Y-7377462D01*
X-9922513Y-7360149D01*
X-9933655Y-7348510D01*
X-10025221Y-7229178D01*
X-10025223Y-7229176D01*
X-10025225Y-7229175D01*
X-10025225Y-7229174D01*
X-10149349Y-7133930D01*
X-10149350Y-7133929D01*
X-10149352Y-7133928D01*
X-10293894Y-7074057D01*
X-10293898Y-7074056D01*
X-10449013Y-7053635D01*
X-10604129Y-7074056D01*
X-10604130Y-7074056D01*
X-10748677Y-7133930D01*
X-10872799Y-7229171D01*
X-10872804Y-7229176D01*
X-10918466Y-7288685D01*
X-10961157Y-7315883D01*
X-11011343Y-7309276D01*
X-11045541Y-7271956D01*
X-11051049Y-7239337D01*
X-11046444Y-7160289D01*
X-11076719Y-6988595D01*
X-11145772Y-6828511D01*
X-11249883Y-6688666D01*
X-11337468Y-6615173D01*
X-11383435Y-6576601D01*
X-11539236Y-6498355D01*
X-11539240Y-6498354D01*
X-11708880Y-6458149D01*
X-11839487Y-6458149D01*
X-11969216Y-6473312D01*
X-11969220Y-6473313D01*
X-12133042Y-6532939D01*
X-12278704Y-6628742D01*
X-12398348Y-6755557D01*
X-12485518Y-6906541D01*
X-12485520Y-6906545D01*
X-12535519Y-7073554D01*
X-12535520Y-7073560D01*
X-12535520Y-7073561D01*
X-12544500Y-7227738D01*
X-12545658Y-7247610D01*
X-12515383Y-7419303D01*
X-12446331Y-7579386D01*
X-12446328Y-7579390D01*
X-12429255Y-7602323D01*
X-12342219Y-7719232D01*
X-12282019Y-7769746D01*
X-12208668Y-7831296D01*
X-12208667Y-7831296D01*
X-12208665Y-7831298D01*
X-12052866Y-7909543D01*
X-11883222Y-7949749D01*
X-11757565Y-7949749D01*
X-11709999Y-7967062D01*
X-11684689Y-8010899D01*
X-11693479Y-8060749D01*
X-11712517Y-8082457D01*
X-11770824Y-8127196D01*
X-11770829Y-8127201D01*
X-11866070Y-8251323D01*
X-11925944Y-8395870D01*
X-11925944Y-8395871D01*
X-11946365Y-8550987D01*
X-11939531Y-8602904D01*
X-11950488Y-8652323D01*
X-11960572Y-8664888D01*
X-12124477Y-8828794D01*
X-12160100Y-8846627D01*
X-12159694Y-8848009D01*
X-12289069Y-8885995D01*
X-12398046Y-8956031D01*
X-12398050Y-8956034D01*
X-12482881Y-9053935D01*
X-12536698Y-9171776D01*
X-12555133Y-9300000D01*
X-14048313Y-9300000D01*
X-14093558Y-9234451D01*
X-14094538Y-9232955D01*
X-14146065Y-9150000D01*
X-14523244Y-8542764D01*
X-14524147Y-8541229D01*
X-14919022Y-7831105D01*
X-14919853Y-7829522D01*
X-15120356Y-7423974D01*
X-15279947Y-7101176D01*
X-15280700Y-7099555D01*
X-15291807Y-7074057D01*
X-15605192Y-6354639D01*
X-15605855Y-6353012D01*
X-15893977Y-5593296D01*
X-15894565Y-5591628D01*
X-16145651Y-4818863D01*
X-16146144Y-4817214D01*
X-16359978Y-4031840D01*
X-16390618Y-3897677D01*
X-16597643Y-2991173D01*
X-16599500Y-2974697D01*
X-16599500Y-2899345D01*
X-16599501Y-2899337D01*
X-16608122Y-2850447D01*
X-16634458Y-2701088D01*
X-16703311Y-2511918D01*
X-16739364Y-2449473D01*
X-16748153Y-2399625D01*
X-16722843Y-2355788D01*
X-16685808Y-2339228D01*
X-16657543Y-2335165D01*
X-16526627Y-2275377D01*
X-16417857Y-2181128D01*
X-16340047Y-2060053D01*
X-16299501Y-1921963D01*
X-16299500Y-1921963D01*
X-16299500Y-1778036D01*
X-16299501Y-1778035D01*
X-16319608Y-1709557D01*
X-16340047Y-1639947D01*
X-16382193Y-1574367D01*
X-16417128Y-1520006D01*
X-16428280Y-1470631D01*
X-16417131Y-1439997D01*
X-16340047Y-1320053D01*
X-16299501Y-1181963D01*
X-16299500Y-1181963D01*
X-16299500Y-1038036D01*
X-16299501Y-1038035D01*
X-16308789Y-1006403D01*
X-16340047Y-899947D01*
X-16417129Y-780005D01*
X-16423906Y-750000D01*
X-5500000Y-750000D01*
X-5000000Y-750000D01*
X-5000000Y-150000D01*
X-5047829Y-150000D01*
X-5107376Y-156402D01*
X-5107381Y-156403D01*
X-5242088Y-206645D01*
X-5242089Y-206646D01*
X-5357189Y-292811D01*
X-5443354Y-407911D01*
X-5443355Y-407912D01*
X-5493597Y-542619D01*
X-5493598Y-542624D01*
X-5500000Y-602171D01*
X-5500000Y-750000D01*
X-16423906Y-750000D01*
X-16428280Y-730632D01*
X-16417128Y-699993D01*
X-16370692Y-627738D01*
X-16340047Y-580053D01*
X-16299501Y-441963D01*
X-16299500Y-441963D01*
X-16299500Y-298036D01*
X-16299501Y-298035D01*
X-16319407Y-230241D01*
X-16340047Y-159947D01*
X-16342325Y-156403D01*
X-16415522Y-42506D01*
X-16417129Y-40005D01*
X-16428280Y9368D01*
X-16417128Y40007D01*
X-16415561Y42444D01*
X-16340047Y159947D01*
X-16299501Y298037D01*
X-16299500Y298037D01*
X-16299500Y441964D01*
X-16299501Y441965D01*
X-16317378Y502847D01*
X-16340047Y580053D01*
X-16345359Y588318D01*
X-16381861Y645117D01*
X-16417129Y699995D01*
X-16428280Y749368D01*
X-16417128Y780007D01*
X-16409136Y792442D01*
X-16340047Y899947D01*
X-16299501Y1038037D01*
X-16299500Y1038037D01*
X-16299500Y1050000D01*
X-5949999Y1050000D01*
X-5949999Y775024D01*
X-5939506Y672304D01*
X-5884358Y505879D01*
X-5792317Y356657D01*
X-5792314Y356653D01*
X-5668347Y232686D01*
X-5668344Y232684D01*
X-5519122Y140643D01*
X-5352698Y85495D01*
X-5249975Y75001D01*
X-5200001Y75002D01*
X-5200000Y75002D01*
X-5200000Y1050000D01*
X-4700000Y1050000D01*
X-4700000Y75001D01*
X-4650029Y75001D01*
X-4650024Y75002D01*
X-4547304Y85495D01*
X-4380879Y140643D01*
X-4231657Y232684D01*
X-4231654Y232686D01*
X-4107686Y356654D01*
X-4107684Y356657D01*
X-4015643Y505879D01*
X-3960495Y672303D01*
X-3950001Y775025D01*
X-3950000Y775027D01*
X-3950000Y1050000D01*
X-4700000Y1050000D01*
X-5200000Y1050000D01*
X-5949999Y1050000D01*
X-16299500Y1050000D01*
X-16299500Y1181964D01*
X-16299501Y1181965D01*
X-16311938Y1224322D01*
X-16340047Y1320053D01*
X-16361827Y1353943D01*
X-16417128Y1439994D01*
X-16428280Y1489369D01*
X-16417131Y1520003D01*
X-16397853Y1550000D01*
X-5950000Y1550000D01*
X-5200000Y1550000D01*
X-5200000Y2525000D01*
X-4700000Y2525000D01*
X-4700000Y1550000D01*
X-3950002Y1550000D01*
X-3950001Y1824971D01*
X-3950002Y1824977D01*
X-3960495Y1927697D01*
X-4015643Y2094122D01*
X-4107684Y2243344D01*
X-4107686Y2243348D01*
X-4231653Y2367314D01*
X-4231657Y2367317D01*
X-4380879Y2459358D01*
X-4547303Y2514506D01*
X-4650025Y2525000D01*
X-4700000Y2525000D01*
X-5200000Y2525000D01*
X-5200001Y2525001D01*
X-5249972Y2525000D01*
X-5249978Y2524999D01*
X-5352697Y2514506D01*
X-5519122Y2459358D01*
X-5668344Y2367317D01*
X-5668347Y2367315D01*
X-5792315Y2243347D01*
X-5792317Y2243344D01*
X-5884358Y2094122D01*
X-5939506Y1927698D01*
X-5950000Y1824976D01*
X-5950000Y1550000D01*
X-16397853Y1550000D01*
X-16340047Y1639947D01*
X-16299501Y1778037D01*
X-16299500Y1778037D01*
X-16299500Y1921964D01*
X-16299501Y1921965D01*
X-16326526Y2014004D01*
X-16340047Y2060053D01*
X-16417857Y2181128D01*
X-16417860Y2181131D01*
X-16417861Y2181132D01*
X-16526627Y2275377D01*
X-16566676Y2293667D01*
X-16657543Y2335165D01*
X-16657545Y2335166D01*
X-16657546Y2335166D01*
X-16685808Y2339229D01*
X-16730426Y2363135D01*
X-16749240Y2410128D01*
X-16739363Y2449475D01*
X-16703309Y2511921D01*
X-16634457Y2701092D01*
X-16599500Y2899344D01*
X-16599500Y2974690D01*
X-16597643Y2991165D01*
X-16550770Y3196408D01*
X-16488399Y3469518D01*
X-15705500Y3469518D01*
X-15705109Y3460559D01*
X-15703595Y3443247D01*
X-15703593Y3443239D01*
X-15676843Y3358398D01*
X-15676842Y3358396D01*
X-15651531Y3314558D01*
X-15620681Y3273829D01*
X-15620680Y3273829D01*
X-15620678Y3273826D01*
X-15543853Y3224207D01*
X-15496287Y3206894D01*
X-15426000Y3194500D01*
X-15425997Y3194500D01*
X-10469518Y3194500D01*
X-10469517Y3194500D01*
X-10460559Y3194891D01*
X-10443243Y3196406D01*
X-10358398Y3223157D01*
X-10314561Y3248467D01*
X-10273826Y3279322D01*
X-10224207Y3356147D01*
X-10206894Y3403713D01*
X-10194500Y3474000D01*
X-10194500Y4050000D01*
X-8297296Y4050000D01*
X-8297100Y4047507D01*
X-8251282Y3889801D01*
X-8167683Y3748444D01*
X-8051557Y3632318D01*
X-7910200Y3548719D01*
X-7752492Y3502901D01*
X-7752495Y3502901D01*
X-7715643Y3500000D01*
X-7312500Y3500000D01*
X-7312500Y4050000D01*
X-6812500Y4050000D01*
X-6812500Y3500000D01*
X-6409357Y3500000D01*
X-6372507Y3502901D01*
X-6214801Y3548719D01*
X-6073444Y3632318D01*
X-5957318Y3748444D01*
X-5873719Y3889801D01*
X-5827901Y4047507D01*
X-5827704Y4050000D01*
X-6812500Y4050000D01*
X-7312500Y4050000D01*
X-8297296Y4050000D01*
X-10194500Y4050000D01*
X-10194500Y4643006D01*
X-10177187Y4690572D01*
X-10141881Y4713850D01*
X-10137736Y4715100D01*
X-10061335Y4765369D01*
X-10061334Y4765370D01*
X-10055247Y4771717D01*
X-10009829Y4794067D01*
X-10001836Y4794500D01*
X-9715257Y4794500D01*
X-9682757Y4786981D01*
X-9626396Y4759428D01*
X-9626395Y4759428D01*
X-9626393Y4759427D01*
X-9558260Y4749500D01*
X-9558254Y4749500D01*
X-8338423Y4749500D01*
X-8290857Y4732187D01*
X-8265547Y4688350D01*
X-8267361Y4654855D01*
X-8297100Y4552494D01*
X-8297296Y4550000D01*
X-7312500Y4550000D01*
X-7312500Y5100000D01*
X-6812500Y5100000D01*
X-6812500Y4550000D01*
X-5827704Y4550000D01*
X-5827901Y4552494D01*
X-5873719Y4710200D01*
X-5957318Y4851557D01*
X-6073444Y4967683D01*
X-6214801Y5051282D01*
X-6372509Y5097100D01*
X-6372506Y5097100D01*
X-6409357Y5100000D01*
X-6812500Y5100000D01*
X-7312500Y5100000D01*
X-7715643Y5100000D01*
X-7752494Y5097100D01*
X-7904855Y5052835D01*
X-7955363Y5056190D01*
X-7991897Y5091226D01*
X-7999500Y5123897D01*
X-7999500Y5433254D01*
X-7999500Y5433260D01*
X-8009427Y5501393D01*
X-8060802Y5606483D01*
X-8143517Y5689198D01*
X-8143518Y5689199D01*
X-8248606Y5740573D01*
X-8316736Y5750500D01*
X-8316740Y5750500D01*
X-9558260Y5750500D01*
X-9558265Y5750500D01*
X-9626396Y5740573D01*
X-9682757Y5713019D01*
X-9715257Y5705500D01*
X-9996328Y5705500D01*
X-10043894Y5722813D01*
X-10046660Y5725253D01*
X-10047650Y5726171D01*
X-10047652Y5726174D01*
X-10124477Y5775793D01*
X-10124480Y5775794D01*
X-10124481Y5775795D01*
X-10172044Y5793107D01*
X-10242327Y5805500D01*
X-10242330Y5805500D01*
X-10400000Y5805500D01*
X-15430483Y5805500D01*
X-15439441Y5805109D01*
X-15456754Y5803595D01*
X-15456762Y5803593D01*
X-15541603Y5776843D01*
X-15541605Y5776842D01*
X-15585443Y5751531D01*
X-15626172Y5720681D01*
X-15626174Y5720679D01*
X-15626174Y5720678D01*
X-15639852Y5699500D01*
X-15675795Y5643850D01*
X-15675795Y5643849D01*
X-15693107Y5596287D01*
X-15705500Y5526004D01*
X-15705500Y3469518D01*
X-16488399Y3469518D01*
X-16359979Y4031837D01*
X-16146141Y4817227D01*
X-16145655Y4818853D01*
X-15894561Y5591643D01*
X-15893977Y5593298D01*
X-15892843Y5596287D01*
X-15733388Y6016736D01*
X-8000500Y6016736D01*
X-7990573Y5948607D01*
X-7990573Y5948606D01*
X-7939199Y5843518D01*
X-7939198Y5843517D01*
X-7856483Y5760802D01*
X-7751393Y5709427D01*
X-7683260Y5699500D01*
X-7683254Y5699500D01*
X-6441746Y5699500D01*
X-6441740Y5699500D01*
X-6373607Y5709427D01*
X-6358155Y5716982D01*
X-6325655Y5724500D01*
X-5765995Y5724500D01*
X-5765989Y5724500D01*
X-5664658Y5739069D01*
X-5540282Y5795870D01*
X-5436945Y5885411D01*
X-5363022Y6000439D01*
X-5350182Y6044171D01*
X-5324500Y6131631D01*
X-5324500Y6268370D01*
X-5363022Y6399561D01*
X-5436945Y6514589D01*
X-5540282Y6604130D01*
X-5664658Y6660931D01*
X-5664660Y6660932D01*
X-5664661Y6660932D01*
X-5765985Y6675500D01*
X-5765989Y6675500D01*
X-6325655Y6675500D01*
X-6358155Y6683019D01*
X-6373606Y6690573D01*
X-6441736Y6700500D01*
X-6441740Y6700500D01*
X-7683260Y6700500D01*
X-7683265Y6700500D01*
X-7751394Y6690573D01*
X-7751395Y6690573D01*
X-7856483Y6639199D01*
X-7939199Y6556483D01*
X-7990573Y6451395D01*
X-7990573Y6451394D01*
X-8000500Y6383265D01*
X-8000500Y6016736D01*
X-15733388Y6016736D01*
X-15605849Y6353028D01*
X-15605199Y6354627D01*
X-15280690Y7099580D01*
X-15279946Y7101179D01*
X-14919845Y7829541D01*
X-14919022Y7831107D01*
X-14870506Y7918355D01*
X-14524138Y8541247D01*
X-14523244Y8542766D01*
X-14094525Y9232978D01*
X-14093571Y9234435D01*
X-13632000Y9903133D01*
X-13630956Y9904569D01*
X-13527077Y10040513D01*
X-13137466Y10550389D01*
X-13136438Y10551672D01*
X-13026084Y10683208D01*
X-13026064Y10683224D01*
X-13018959Y10691695D01*
X-13018957Y10691695D01*
X-12998454Y10716139D01*
X-12998180Y10716466D01*
X-12995442Y10719391D01*
X-12947757Y10765055D01*
X-12934988Y10774855D01*
X-12883777Y10805940D01*
X-12869181Y10812749D01*
X-12812452Y10832014D01*
X-12796731Y10835500D01*
X-12731522Y10842648D01*
X-12727501Y10842867D01*
X-11440433Y10842867D01*
X-11439675Y10842918D01*
X-11389033Y10842915D01*
X-11290599Y10865378D01*
X-11246133Y10875525D01*
X-11246131Y10875527D01*
X-11246126Y10875527D01*
X-11114059Y10939120D01*
X-10999453Y11030506D01*
X-10908055Y11145102D01*
X-10844449Y11277163D01*
X-10811823Y11420067D01*
X-10811821Y11466489D01*
X-10811818Y11466508D01*
X-10811818Y11493387D01*
X-10811818Y11493388D01*
X-10811816Y11527708D01*
X-10811818Y11527711D01*
X-10811817Y11534754D01*
X-10811818Y11534776D01*
X-10811818Y12751555D01*
X-10811587Y12755687D01*
X-10807919Y12788350D01*
X-10804044Y12822867D01*
X-10800387Y12838950D01*
X-10780190Y12896911D01*
X-10773062Y12911777D01*
X-10740522Y12963819D01*
X-10730276Y12976738D01*
X-10682681Y13024633D01*
X-10679628Y13027378D01*
X-10231016Y13387676D01*
X-10229675Y13388701D01*
X-9572274Y13866331D01*
X-9570869Y13867301D01*
X-8891165Y14312607D01*
X-8889693Y14313521D01*
X-8189313Y14725442D01*
X-8187753Y14726309D01*
X-7468337Y15103887D01*
X-7466734Y15104680D01*
X-7385212Y15142562D01*
X-6729844Y15447093D01*
X-6728277Y15447776D01*
X-5975702Y15754190D01*
X-5974098Y15754798D01*
X-5207582Y16024500D01*
X-5205927Y16025037D01*
X-4427311Y16257380D01*
X-4425669Y16257828D01*
X-3636671Y16452299D01*
X-3635016Y16452665D01*
X-2837585Y16608782D01*
X-2835889Y16609071D01*
X-2031837Y16726480D01*
X-2030108Y16726689D01*
X-1588745Y16769488D01*
X-1221378Y16805110D01*
X-1219606Y16805238D01*
X-408031Y16844493D01*
X-406243Y16844536D01*
X406243Y16844536D01*
X408031Y16844493D01*
G37*
%TD.AperFunction*%
%TD*%
M02*
