%TF.GenerationSoftware,KiCad,Pcbnew,7.0.6-7.0.6~ubuntu23.04.1*%
%TF.CreationDate,2023-08-08T21:58:14-04:00*%
%TF.ProjectId,EnviroPuck,456e7669-726f-4507-9563-6b2e6b696361,rev?*%
%TF.SameCoordinates,Original*%
%TF.FileFunction,Copper,L2,Inr*%
%TF.FilePolarity,Positive*%
%FSLAX46Y46*%
G04 Gerber Fmt 4.6, Leading zero omitted, Abs format (unit mm)*
G04 Created by KiCad (PCBNEW 7.0.6-7.0.6~ubuntu23.04.1) date 2023-08-08 21:58:14*
%MOMM*%
%LPD*%
G01*
G04 APERTURE LIST*
%TA.AperFunction,ViaPad*%
%ADD10C,0.500000*%
%TD*%
G04 APERTURE END LIST*
D10*
%TO.N,GND*%
X-13000000Y-5000000D03*
X13000000Y-5000000D03*
X13000000Y5000000D03*
%TO.N,/~{RST}*%
X-11200000Y-10250000D03*
X-2950000Y-4750000D03*
%TO.N,GND*%
X-10250000Y-11050000D03*
%TO.N,+BATT*%
X-12100000Y-9300000D03*
%TO.N,GND*%
X4050000Y5650000D03*
X1550000Y5650000D03*
%TO.N,/VDD_BME680*%
X9800000Y9050000D03*
%TO.N,GND*%
X8150000Y5150000D03*
%TO.N,+BATT*%
X7200000Y5150000D03*
%TO.N,GND*%
X7850000Y11100000D03*
X2200000Y8700000D03*
%TO.N,/VDD_BME680*%
X1300000Y6950000D03*
X1200000Y10750000D03*
X-400000Y10750000D03*
%TO.N,GND*%
X400000Y11400000D03*
%TO.N,/MISO*%
X-1200000Y11400000D03*
X-1550000Y7150000D03*
%TO.N,+BATT*%
X2900000Y-5550000D03*
%TO.N,GND*%
X6050000Y-950000D03*
X-5800000Y-950000D03*
%TO.N,+BATT*%
X10000498Y1600000D03*
%TO.N,GND*%
X6150000Y-10750000D03*
X6150000Y-11550000D03*
X-5750000Y-11550000D03*
%TO.N,+BATT*%
X-3050000Y2700000D03*
%TO.N,GND*%
X-6000000Y1300000D03*
%TO.N,+BATT*%
X-5800000Y6200000D03*
%TO.N,GND*%
X-5800000Y4300000D03*
%TO.N,Net-(BT1-+)*%
X-13000000Y4000000D03*
X-14000000Y4000000D03*
X-15000000Y4000000D03*
X-15000000Y5000000D03*
X-11000000Y5000000D03*
X-11000000Y4000000D03*
X-12000000Y4000000D03*
X-12000000Y5000000D03*
X-13000000Y5000000D03*
X-14000000Y5000000D03*
%TO.N,*%
X1500000Y-2750000D03*
X750000Y-2750000D03*
X0Y-2750000D03*
X-750000Y-2750000D03*
X-1500000Y-2750000D03*
%TD*%
%TA.AperFunction,Conductor*%
%TO.N,+BATT*%
G36*
X408031Y16844493D02*
G01*
X1219603Y16805238D01*
X1221378Y16805110D01*
X1470365Y16780966D01*
X2030106Y16726689D01*
X2031840Y16726479D01*
X2835880Y16609072D01*
X2837590Y16608780D01*
X3635007Y16452666D01*
X3636679Y16452296D01*
X4425644Y16257834D01*
X4427307Y16257381D01*
X5147077Y16042597D01*
X5205913Y16025040D01*
X5207591Y16024496D01*
X5974071Y15754807D01*
X5975703Y15754188D01*
X6728253Y15447785D01*
X6729851Y15447089D01*
X7098302Y15275880D01*
X7466732Y15104680D01*
X7468335Y15103887D01*
X8187765Y14726302D01*
X8189328Y14725433D01*
X8889682Y14313525D01*
X8891189Y14312590D01*
X9570832Y13867323D01*
X9572281Y13866323D01*
X10229653Y13388715D01*
X10231033Y13387660D01*
X10649971Y13051195D01*
X10649978Y13051188D01*
X10654392Y13047644D01*
X10654393Y13047642D01*
X10672466Y13033129D01*
X10674263Y13031685D01*
X10679556Y13027433D01*
X10682627Y13024671D01*
X10730278Y12976736D01*
X10740539Y12963801D01*
X10773064Y12911788D01*
X10780201Y12896899D01*
X10800381Y12838976D01*
X10804040Y12822877D01*
X10811587Y12755583D01*
X10811817Y12751453D01*
X10811813Y12710721D01*
X10811818Y12710678D01*
X10811818Y11471471D01*
X10811863Y11470772D01*
X10811858Y11420089D01*
X10844458Y11277184D01*
X10844462Y11277173D01*
X10908051Y11145101D01*
X10908053Y11145097D01*
X10979071Y11056033D01*
X10999441Y11030487D01*
X11114045Y10939086D01*
X11114050Y10939084D01*
X11114051Y10939083D01*
X11246108Y10875485D01*
X11246112Y10875484D01*
X11246116Y10875482D01*
X11389029Y10842865D01*
X11462323Y10842867D01*
X12727073Y10842867D01*
X12731111Y10842647D01*
X12796705Y10835446D01*
X12812416Y10831960D01*
X12869154Y10812689D01*
X12883741Y10805885D01*
X12934960Y10774797D01*
X12947734Y10764993D01*
X12961024Y10752270D01*
X12991026Y10723547D01*
X12995726Y10719048D01*
X12998486Y10716100D01*
X13136421Y10551690D01*
X13137475Y10550374D01*
X13630947Y9904580D01*
X13631998Y9903133D01*
X14093552Y9234457D01*
X14094532Y9232961D01*
X14523243Y8542766D01*
X14524150Y8541224D01*
X14919016Y7831114D01*
X14919847Y7829531D01*
X15279944Y7101178D01*
X15280698Y7099556D01*
X15605184Y6354657D01*
X15605858Y6353001D01*
X15893975Y5593298D01*
X15894569Y5591611D01*
X15975034Y5343966D01*
X16117943Y4904135D01*
X16145641Y4818891D01*
X16146150Y4817185D01*
X16359981Y4031825D01*
X16389200Y3903882D01*
X16597646Y2991165D01*
X16599503Y2974689D01*
X16599503Y2899342D01*
X16634459Y2701093D01*
X16703311Y2511924D01*
X16739363Y2449480D01*
X16748153Y2399630D01*
X16722843Y2355793D01*
X16685810Y2339233D01*
X16657544Y2335169D01*
X16526626Y2275380D01*
X16417860Y2181135D01*
X16417855Y2181128D01*
X16340047Y2060058D01*
X16340046Y2060054D01*
X16299500Y1921968D01*
X16299500Y1778039D01*
X16340046Y1639953D01*
X16340047Y1639949D01*
X16417127Y1520011D01*
X16428279Y1470636D01*
X16417127Y1439997D01*
X16340048Y1320058D01*
X16340046Y1320054D01*
X16299500Y1181968D01*
X16299500Y1038039D01*
X16323580Y956032D01*
X16340047Y899950D01*
X16340048Y899949D01*
X16417127Y780010D01*
X16428279Y730635D01*
X16417127Y699996D01*
X16340048Y580058D01*
X16340046Y580054D01*
X16299500Y441968D01*
X16299500Y298039D01*
X16340046Y159953D01*
X16340047Y159950D01*
X16340048Y159949D01*
X16417127Y40010D01*
X16428279Y-9365D01*
X16417127Y-40004D01*
X16340048Y-159942D01*
X16340046Y-159946D01*
X16299500Y-298032D01*
X16299500Y-441961D01*
X16340046Y-580047D01*
X16340047Y-580050D01*
X16340048Y-580051D01*
X16417127Y-699990D01*
X16428279Y-749365D01*
X16417127Y-780004D01*
X16340048Y-899942D01*
X16340046Y-899946D01*
X16299500Y-1038032D01*
X16299500Y-1181961D01*
X16340046Y-1320047D01*
X16340047Y-1320051D01*
X16417127Y-1439989D01*
X16428279Y-1489364D01*
X16417127Y-1520003D01*
X16340048Y-1639942D01*
X16340046Y-1639946D01*
X16299500Y-1778032D01*
X16299500Y-1921961D01*
X16340046Y-2060047D01*
X16340047Y-2060051D01*
X16381260Y-2124179D01*
X16417857Y-2181125D01*
X16417859Y-2181126D01*
X16417860Y-2181128D01*
X16499434Y-2251811D01*
X16526627Y-2275374D01*
X16657543Y-2335162D01*
X16676804Y-2337931D01*
X16685808Y-2339226D01*
X16730426Y-2363132D01*
X16749240Y-2410125D01*
X16739363Y-2449473D01*
X16703308Y-2511922D01*
X16634457Y-2701089D01*
X16599500Y-2899337D01*
X16599499Y-2899345D01*
X16599499Y-2974686D01*
X16597642Y-2991160D01*
X16359982Y-4031821D01*
X16146153Y-4817175D01*
X16145641Y-4818889D01*
X15894569Y-5591609D01*
X15893975Y-5593296D01*
X15605858Y-6352999D01*
X15605184Y-6354655D01*
X15280698Y-7099554D01*
X15279944Y-7101176D01*
X14919847Y-7829529D01*
X14919016Y-7831112D01*
X14524150Y-8541222D01*
X14523243Y-8542764D01*
X14094532Y-9232959D01*
X14093552Y-9234455D01*
X13631998Y-9903131D01*
X13630947Y-9904578D01*
X13137631Y-10550167D01*
X13136511Y-10551562D01*
X12612584Y-11172562D01*
X12611398Y-11173900D01*
X12058057Y-11768884D01*
X12056808Y-11770164D01*
X11475392Y-12337698D01*
X11474082Y-12338916D01*
X10865902Y-12877716D01*
X10864535Y-12878869D01*
X10231044Y-13387650D01*
X10229622Y-13388736D01*
X9572304Y-13866305D01*
X9570832Y-13867321D01*
X8891201Y-14312580D01*
X8889682Y-14313523D01*
X8189328Y-14725431D01*
X8187765Y-14726300D01*
X7468335Y-15103885D01*
X7466732Y-15104678D01*
X6729872Y-15447078D01*
X6728232Y-15447792D01*
X6301905Y-15621373D01*
X6251322Y-15623275D01*
X6211350Y-15592218D01*
X6200000Y-15552836D01*
X6200000Y-12083257D01*
X6193236Y-12068752D01*
X6206337Y-12019857D01*
X6246105Y-11991299D01*
X6339069Y-11964004D01*
X6448049Y-11893967D01*
X6532882Y-11796063D01*
X6586697Y-11678226D01*
X6605133Y-11550000D01*
X6586697Y-11421774D01*
X6532882Y-11303937D01*
X6448049Y-11206033D01*
X6448045Y-11206030D01*
X6447927Y-11205928D01*
X6447872Y-11205830D01*
X6444583Y-11202034D01*
X6445377Y-11201345D01*
X6423314Y-11161695D01*
X6432891Y-11111991D01*
X6444627Y-11098004D01*
X6444583Y-11097966D01*
X6447003Y-11095172D01*
X6447927Y-11094072D01*
X6448044Y-11093970D01*
X6448049Y-11093967D01*
X6529468Y-11000003D01*
X7844571Y-11000003D01*
X7864242Y-11212303D01*
X7864243Y-11212309D01*
X7922593Y-11417383D01*
X7922596Y-11417393D01*
X8017632Y-11608252D01*
X8017636Y-11608258D01*
X8062813Y-11668082D01*
X8146128Y-11778407D01*
X8303698Y-11922052D01*
X8484981Y-12034298D01*
X8683802Y-12111321D01*
X8893390Y-12150500D01*
X9106610Y-12150500D01*
X9316198Y-12111321D01*
X9515019Y-12034298D01*
X9696302Y-11922052D01*
X9853872Y-11778407D01*
X9982366Y-11608255D01*
X10077405Y-11417389D01*
X10135756Y-11212310D01*
X10136348Y-11205928D01*
X10155429Y-11000003D01*
X10155429Y-10999996D01*
X10135757Y-10787696D01*
X10135756Y-10787690D01*
X10112522Y-10706033D01*
X10077405Y-10582611D01*
X10061945Y-10551563D01*
X9982367Y-10391747D01*
X9982363Y-10391741D01*
X9969746Y-10375034D01*
X9853872Y-10221593D01*
X9696302Y-10077948D01*
X9515019Y-9965702D01*
X9360989Y-9906031D01*
X9316201Y-9888680D01*
X9316200Y-9888679D01*
X9316198Y-9888679D01*
X9224150Y-9871472D01*
X9106613Y-9849500D01*
X9106610Y-9849500D01*
X8893390Y-9849500D01*
X8893386Y-9849500D01*
X8736669Y-9878796D01*
X8683802Y-9888679D01*
X8683800Y-9888679D01*
X8683798Y-9888680D01*
X8532627Y-9947244D01*
X8484981Y-9965702D01*
X8484976Y-9965704D01*
X8484976Y-9965705D01*
X8303700Y-10077946D01*
X8146130Y-10221590D01*
X8017636Y-10391741D01*
X8017632Y-10391747D01*
X7922596Y-10582606D01*
X7922593Y-10582616D01*
X7864243Y-10787690D01*
X7864242Y-10787696D01*
X7844571Y-10999996D01*
X7844571Y-11000003D01*
X6529468Y-11000003D01*
X6532882Y-10996063D01*
X6586697Y-10878226D01*
X6605133Y-10750000D01*
X6586697Y-10621774D01*
X6532882Y-10503937D01*
X6448049Y-10406033D01*
X6381032Y-10362964D01*
X6339068Y-10335995D01*
X6214772Y-10299500D01*
X6085228Y-10299500D01*
X5960931Y-10335995D01*
X5851954Y-10406031D01*
X5851950Y-10406034D01*
X5767119Y-10503935D01*
X5713302Y-10621776D01*
X5694867Y-10750000D01*
X5713302Y-10878223D01*
X5713302Y-10878224D01*
X5713303Y-10878226D01*
X5767118Y-10996063D01*
X5827786Y-11066079D01*
X5851954Y-11093970D01*
X5852079Y-11094078D01*
X5852134Y-11094177D01*
X5855417Y-11097966D01*
X5854624Y-11098653D01*
X5876686Y-11138313D01*
X5867103Y-11188017D01*
X5855373Y-11201996D01*
X5855417Y-11202034D01*
X5853026Y-11204792D01*
X5852079Y-11205922D01*
X5851954Y-11206029D01*
X5767119Y-11303935D01*
X5713302Y-11421776D01*
X5694867Y-11550000D01*
X5713302Y-11678223D01*
X5713302Y-11678224D01*
X5713303Y-11678226D01*
X5767118Y-11796063D01*
X5851951Y-11893967D01*
X5953558Y-11959265D01*
X5960531Y-11963747D01*
X5991187Y-12004028D01*
X5988778Y-12054590D01*
X5954433Y-12091774D01*
X5920524Y-12100000D01*
X-5520524Y-12100000D01*
X-5568090Y-12082687D01*
X-5593400Y-12038850D01*
X-5584610Y-11989000D01*
X-5560531Y-11963747D01*
X-5556301Y-11961028D01*
X-5451951Y-11893967D01*
X-5367118Y-11796063D01*
X-5313303Y-11678226D01*
X-5294867Y-11550000D01*
X-5313303Y-11421774D01*
X-5367118Y-11303937D01*
X-5451951Y-11206033D01*
X-5539142Y-11149999D01*
X-5560932Y-11135995D01*
X-5685228Y-11099500D01*
X-5814772Y-11099500D01*
X-5939069Y-11135995D01*
X-6048046Y-11206031D01*
X-6048050Y-11206034D01*
X-6132881Y-11303935D01*
X-6186698Y-11421776D01*
X-6205133Y-11550000D01*
X-6186698Y-11678223D01*
X-6186698Y-11678224D01*
X-6186697Y-11678226D01*
X-6132882Y-11796063D01*
X-6048049Y-11893967D01*
X-5946442Y-11959265D01*
X-5939469Y-11963747D01*
X-5908813Y-12004028D01*
X-5911222Y-12054590D01*
X-5945567Y-12091774D01*
X-5979476Y-12100000D01*
X-6200000Y-12100000D01*
X-6200000Y-15552835D01*
X-6217313Y-15600401D01*
X-6261150Y-15625711D01*
X-6301905Y-15621372D01*
X-6728240Y-15447789D01*
X-6729880Y-15447075D01*
X-7466734Y-15104678D01*
X-7468337Y-15103885D01*
X-8187753Y-14726307D01*
X-8189316Y-14725438D01*
X-8889676Y-14313529D01*
X-8891195Y-14312586D01*
X-9570844Y-13867315D01*
X-9572307Y-13866305D01*
X-10229638Y-13388726D01*
X-10231034Y-13387658D01*
X-10864538Y-12878869D01*
X-10865905Y-12877716D01*
X-11474084Y-12338916D01*
X-11475381Y-12337710D01*
X-12056817Y-11770157D01*
X-12058059Y-11768884D01*
X-12254060Y-11558133D01*
X-9671976Y-11558133D01*
X-9641701Y-11729826D01*
X-9572649Y-11889909D01*
X-9572648Y-11889910D01*
X-9468537Y-12029755D01*
X-9404776Y-12083257D01*
X-9334986Y-12141819D01*
X-9334985Y-12141819D01*
X-9334983Y-12141821D01*
X-9179184Y-12220066D01*
X-9009540Y-12260272D01*
X-8878933Y-12260272D01*
X-8749205Y-12245109D01*
X-8585376Y-12185480D01*
X-8439715Y-12089677D01*
X-8320073Y-11962865D01*
X-8232902Y-11811879D01*
X-8182900Y-11644860D01*
X-8172762Y-11470812D01*
X-8203037Y-11299118D01*
X-8272090Y-11139034D01*
X-8376201Y-10999189D01*
X-8468460Y-10921774D01*
X-8509753Y-10887124D01*
X-8665554Y-10808878D01*
X-8665558Y-10808877D01*
X-8835198Y-10768672D01*
X-8965805Y-10768672D01*
X-9095534Y-10783835D01*
X-9095538Y-10783836D01*
X-9259360Y-10843462D01*
X-9405022Y-10939265D01*
X-9524666Y-11066080D01*
X-9611836Y-11217064D01*
X-9611838Y-11217068D01*
X-9661837Y-11384077D01*
X-9661838Y-11384083D01*
X-9661838Y-11384084D01*
X-9668550Y-11499324D01*
X-9671976Y-11558133D01*
X-12254060Y-11558133D01*
X-12611400Y-11173900D01*
X-12612565Y-11172585D01*
X-12715989Y-11049999D01*
X-10705133Y-11049999D01*
X-10686698Y-11178223D01*
X-10686698Y-11178224D01*
X-10686697Y-11178226D01*
X-10632882Y-11296063D01*
X-10548049Y-11393967D01*
X-10439069Y-11464004D01*
X-10314772Y-11500500D01*
X-10185228Y-11500500D01*
X-10060931Y-11464004D01*
X-9951951Y-11393967D01*
X-9867118Y-11296063D01*
X-9813303Y-11178226D01*
X-9794867Y-11050000D01*
X-9813303Y-10921774D01*
X-9867118Y-10803937D01*
X-9951951Y-10706033D01*
X-10034727Y-10652836D01*
X-10060932Y-10635995D01*
X-10185228Y-10599500D01*
X-10314772Y-10599500D01*
X-10439069Y-10635995D01*
X-10548046Y-10706031D01*
X-10548050Y-10706034D01*
X-10632881Y-10803935D01*
X-10632882Y-10803936D01*
X-10632882Y-10803937D01*
X-10641761Y-10823379D01*
X-10686698Y-10921776D01*
X-10705133Y-11049999D01*
X-12715989Y-11049999D01*
X-13136524Y-10551550D01*
X-13137633Y-10550168D01*
X-13367000Y-10250000D01*
X-11655133Y-10250000D01*
X-11636698Y-10378223D01*
X-11636698Y-10378224D01*
X-11636697Y-10378226D01*
X-11582882Y-10496063D01*
X-11498049Y-10593967D01*
X-11389069Y-10664004D01*
X-11264772Y-10700500D01*
X-11135228Y-10700500D01*
X-11010931Y-10664004D01*
X-10901951Y-10593967D01*
X-10817118Y-10496063D01*
X-10763303Y-10378226D01*
X-10744867Y-10250000D01*
X-10763303Y-10121774D01*
X-10763523Y-10121292D01*
X-8235135Y-10121292D01*
X-8204860Y-10292985D01*
X-8135808Y-10453068D01*
X-8135807Y-10453069D01*
X-8031696Y-10592914D01*
X-7980354Y-10635995D01*
X-7898145Y-10704978D01*
X-7898144Y-10704978D01*
X-7898142Y-10704980D01*
X-7742343Y-10783225D01*
X-7572699Y-10823431D01*
X-7442092Y-10823431D01*
X-7312364Y-10808268D01*
X-7148535Y-10748639D01*
X-7002874Y-10652836D01*
X-6883232Y-10526024D01*
X-6796061Y-10375038D01*
X-6746059Y-10208019D01*
X-6735921Y-10033971D01*
X-6766196Y-9862277D01*
X-6835249Y-9702193D01*
X-6939360Y-9562348D01*
X-7010774Y-9502424D01*
X-7072912Y-9450283D01*
X-7228713Y-9372037D01*
X-7228717Y-9372036D01*
X-7398357Y-9331831D01*
X-7528964Y-9331831D01*
X-7658693Y-9346994D01*
X-7658697Y-9346995D01*
X-7822519Y-9406621D01*
X-7968181Y-9502424D01*
X-8087825Y-9629239D01*
X-8174995Y-9780223D01*
X-8174997Y-9780227D01*
X-8224996Y-9947236D01*
X-8224997Y-9947244D01*
X-8235135Y-10121292D01*
X-10763523Y-10121292D01*
X-10817118Y-10003937D01*
X-10901951Y-9906033D01*
X-10989918Y-9849500D01*
X-11010932Y-9835995D01*
X-11135228Y-9799500D01*
X-11264772Y-9799500D01*
X-11389069Y-9835995D01*
X-11498046Y-9906031D01*
X-11498050Y-9906034D01*
X-11582881Y-10003935D01*
X-11636698Y-10121776D01*
X-11655133Y-10250000D01*
X-13367000Y-10250000D01*
X-13630956Y-9904567D01*
X-13632007Y-9903121D01*
X-14093558Y-9234451D01*
X-14094538Y-9232955D01*
X-14428907Y-8694641D01*
X-14523244Y-8542764D01*
X-14524147Y-8541229D01*
X-14919022Y-7831105D01*
X-14919853Y-7829522D01*
X-15207550Y-7247610D01*
X-12545658Y-7247610D01*
X-12515383Y-7419303D01*
X-12446331Y-7579386D01*
X-12446330Y-7579387D01*
X-12342219Y-7719232D01*
X-12270807Y-7779154D01*
X-12208668Y-7831296D01*
X-12208667Y-7831296D01*
X-12208665Y-7831298D01*
X-12052866Y-7909543D01*
X-11883222Y-7949749D01*
X-11752615Y-7949749D01*
X-11622887Y-7934586D01*
X-11459058Y-7874957D01*
X-11313397Y-7779154D01*
X-11193755Y-7652342D01*
X-11106584Y-7501356D01*
X-11056582Y-7334337D01*
X-11046444Y-7160289D01*
X-11076719Y-6988595D01*
X-11145772Y-6828511D01*
X-11249883Y-6688666D01*
X-11321297Y-6628742D01*
X-11383435Y-6576601D01*
X-11539236Y-6498355D01*
X-11539240Y-6498354D01*
X-11708880Y-6458149D01*
X-11839487Y-6458149D01*
X-11969216Y-6473312D01*
X-11969220Y-6473313D01*
X-12133042Y-6532939D01*
X-12278704Y-6628742D01*
X-12398348Y-6755557D01*
X-12485518Y-6906541D01*
X-12485520Y-6906545D01*
X-12535519Y-7073554D01*
X-12535520Y-7073560D01*
X-12535520Y-7073561D01*
X-12537128Y-7101176D01*
X-12545658Y-7247610D01*
X-15207550Y-7247610D01*
X-15279946Y-7101177D01*
X-15280700Y-7099555D01*
X-15329035Y-6988595D01*
X-15605192Y-6354639D01*
X-15605855Y-6353012D01*
X-15893977Y-5593296D01*
X-15894565Y-5591628D01*
X-16086796Y-5000000D01*
X-13455133Y-5000000D01*
X-13436698Y-5128223D01*
X-13436698Y-5128224D01*
X-13436697Y-5128226D01*
X-13382882Y-5246063D01*
X-13298049Y-5343967D01*
X-13189069Y-5414004D01*
X-13064772Y-5450500D01*
X-12935228Y-5450500D01*
X-12810931Y-5414004D01*
X-12701951Y-5343967D01*
X-12617118Y-5246063D01*
X-12563303Y-5128226D01*
X-12544867Y-5000000D01*
X-12563303Y-4871774D01*
X-12617118Y-4753937D01*
X-12620530Y-4749999D01*
X-3405133Y-4749999D01*
X-3386698Y-4878223D01*
X-3386698Y-4878224D01*
X-3386697Y-4878226D01*
X-3332882Y-4996063D01*
X-3248049Y-5093967D01*
X-3139069Y-5164004D01*
X-3014772Y-5200500D01*
X-2885228Y-5200500D01*
X-2760931Y-5164004D01*
X-2651951Y-5093967D01*
X-2570529Y-4999999D01*
X12544867Y-4999999D01*
X12563302Y-5128223D01*
X12563302Y-5128224D01*
X12563303Y-5128226D01*
X12617118Y-5246063D01*
X12701951Y-5343967D01*
X12810931Y-5414004D01*
X12935228Y-5450500D01*
X13064772Y-5450500D01*
X13189069Y-5414004D01*
X13298049Y-5343967D01*
X13382882Y-5246063D01*
X13436697Y-5128226D01*
X13455133Y-5000000D01*
X13436697Y-4871774D01*
X13382882Y-4753937D01*
X13298049Y-4656033D01*
X13231032Y-4612964D01*
X13189068Y-4585995D01*
X13064772Y-4549500D01*
X12935228Y-4549500D01*
X12810931Y-4585995D01*
X12701954Y-4656031D01*
X12701950Y-4656034D01*
X12617119Y-4753935D01*
X12563302Y-4871776D01*
X12544867Y-4999999D01*
X-2570529Y-4999999D01*
X-2567118Y-4996063D01*
X-2513303Y-4878226D01*
X-2494867Y-4750000D01*
X-2513303Y-4621774D01*
X-2567118Y-4503937D01*
X-2651951Y-4406033D01*
X-2718968Y-4362964D01*
X-2760932Y-4335995D01*
X-2885228Y-4299500D01*
X-3014772Y-4299500D01*
X-3139069Y-4335995D01*
X-3248046Y-4406031D01*
X-3248050Y-4406034D01*
X-3332881Y-4503935D01*
X-3386698Y-4621776D01*
X-3405133Y-4749999D01*
X-12620530Y-4749999D01*
X-12701951Y-4656033D01*
X-12768968Y-4612964D01*
X-12810932Y-4585995D01*
X-12935228Y-4549500D01*
X-13064772Y-4549500D01*
X-13189069Y-4585995D01*
X-13298046Y-4656031D01*
X-13298050Y-4656034D01*
X-13382881Y-4753935D01*
X-13436698Y-4871776D01*
X-13455133Y-5000000D01*
X-16086796Y-5000000D01*
X-16145651Y-4818863D01*
X-16146144Y-4817214D01*
X-16359978Y-4031840D01*
X-16597643Y-2991173D01*
X-16599500Y-2974697D01*
X-16599500Y-2899345D01*
X-16599501Y-2899337D01*
X-16625834Y-2749999D01*
X-1955133Y-2749999D01*
X-1936698Y-2878223D01*
X-1936698Y-2878224D01*
X-1936697Y-2878226D01*
X-1882882Y-2996063D01*
X-1798049Y-3093967D01*
X-1689069Y-3164004D01*
X-1564772Y-3200500D01*
X-1435228Y-3200500D01*
X-1310931Y-3164004D01*
X-1201951Y-3093967D01*
X-1180926Y-3069701D01*
X-1136696Y-3045091D01*
X-1086991Y-3054669D01*
X-1069076Y-3069701D01*
X-1048054Y-3093962D01*
X-1048053Y-3093963D01*
X-1048049Y-3093967D01*
X-939069Y-3164004D01*
X-814772Y-3200500D01*
X-685228Y-3200500D01*
X-560931Y-3164004D01*
X-451951Y-3093967D01*
X-430926Y-3069701D01*
X-386696Y-3045091D01*
X-336991Y-3054669D01*
X-319076Y-3069701D01*
X-298054Y-3093962D01*
X-298053Y-3093963D01*
X-298049Y-3093967D01*
X-189069Y-3164004D01*
X-64772Y-3200500D01*
X64772Y-3200500D01*
X189069Y-3164004D01*
X298049Y-3093967D01*
X319074Y-3069701D01*
X363304Y-3045091D01*
X413009Y-3054669D01*
X430924Y-3069701D01*
X451946Y-3093962D01*
X451947Y-3093963D01*
X451951Y-3093967D01*
X560931Y-3164004D01*
X685228Y-3200500D01*
X814772Y-3200500D01*
X939069Y-3164004D01*
X1048049Y-3093967D01*
X1069074Y-3069701D01*
X1113304Y-3045091D01*
X1163009Y-3054669D01*
X1180924Y-3069701D01*
X1201946Y-3093962D01*
X1201947Y-3093963D01*
X1201951Y-3093967D01*
X1310931Y-3164004D01*
X1435228Y-3200500D01*
X1564772Y-3200500D01*
X1689069Y-3164004D01*
X1798049Y-3093967D01*
X1882882Y-2996063D01*
X1936697Y-2878226D01*
X1955133Y-2750000D01*
X1936697Y-2621774D01*
X1882882Y-2503937D01*
X1798049Y-2406033D01*
X1711633Y-2350497D01*
X1689068Y-2335995D01*
X1564772Y-2299500D01*
X1435228Y-2299500D01*
X1310931Y-2335995D01*
X1201954Y-2406031D01*
X1201946Y-2406037D01*
X1180925Y-2430298D01*
X1136692Y-2454909D01*
X1086988Y-2445329D01*
X1069075Y-2430298D01*
X1048053Y-2406037D01*
X1048051Y-2406035D01*
X1048049Y-2406033D01*
X961633Y-2350497D01*
X939068Y-2335995D01*
X814772Y-2299500D01*
X685228Y-2299500D01*
X560931Y-2335995D01*
X451954Y-2406031D01*
X451946Y-2406037D01*
X430925Y-2430298D01*
X386692Y-2454909D01*
X336988Y-2445329D01*
X319075Y-2430298D01*
X298053Y-2406037D01*
X298051Y-2406035D01*
X298049Y-2406033D01*
X211633Y-2350497D01*
X189068Y-2335995D01*
X64772Y-2299500D01*
X-64772Y-2299500D01*
X-189069Y-2335995D01*
X-298046Y-2406031D01*
X-298055Y-2406038D01*
X-319077Y-2430299D01*
X-363311Y-2454909D01*
X-413015Y-2445328D01*
X-430925Y-2430299D01*
X-448405Y-2410125D01*
X-451948Y-2406036D01*
X-451950Y-2406035D01*
X-451951Y-2406033D01*
X-538367Y-2350497D01*
X-560932Y-2335995D01*
X-685228Y-2299500D01*
X-814772Y-2299500D01*
X-939069Y-2335995D01*
X-1048046Y-2406031D01*
X-1048054Y-2406037D01*
X-1069075Y-2430298D01*
X-1113308Y-2454909D01*
X-1163012Y-2445329D01*
X-1180925Y-2430298D01*
X-1201947Y-2406037D01*
X-1201949Y-2406035D01*
X-1201951Y-2406033D01*
X-1288367Y-2350497D01*
X-1310932Y-2335995D01*
X-1435228Y-2299500D01*
X-1564772Y-2299500D01*
X-1689069Y-2335995D01*
X-1798046Y-2406031D01*
X-1798050Y-2406034D01*
X-1882881Y-2503935D01*
X-1882882Y-2503936D01*
X-1882882Y-2503937D01*
X-1893891Y-2528043D01*
X-1936698Y-2621776D01*
X-1955133Y-2749999D01*
X-16625834Y-2749999D01*
X-16634458Y-2701088D01*
X-16634459Y-2701087D01*
X-16703311Y-2511918D01*
X-16739364Y-2449473D01*
X-16748153Y-2399625D01*
X-16722843Y-2355788D01*
X-16685808Y-2339228D01*
X-16657543Y-2335165D01*
X-16526627Y-2275377D01*
X-16417857Y-2181128D01*
X-16340047Y-2060053D01*
X-16299501Y-1921963D01*
X-16299500Y-1921963D01*
X-16299500Y-1778036D01*
X-16299501Y-1778035D01*
X-16308789Y-1746403D01*
X-16340047Y-1639947D01*
X-16417128Y-1520006D01*
X-16428280Y-1470631D01*
X-16417131Y-1439997D01*
X-16340047Y-1320053D01*
X-16299501Y-1181963D01*
X-16299500Y-1181963D01*
X-16299500Y-1038036D01*
X-16299501Y-1038035D01*
X-16308789Y-1006403D01*
X-16325350Y-950000D01*
X-6255133Y-950000D01*
X-6236698Y-1078223D01*
X-6236698Y-1078224D01*
X-6236697Y-1078226D01*
X-6182882Y-1196063D01*
X-6098049Y-1293967D01*
X-5989069Y-1364004D01*
X-5864772Y-1400500D01*
X-5735228Y-1400500D01*
X-5610931Y-1364004D01*
X-5501951Y-1293967D01*
X-5417118Y-1196063D01*
X-5363303Y-1078226D01*
X-5344867Y-950000D01*
X5594867Y-950000D01*
X5613302Y-1078223D01*
X5613302Y-1078224D01*
X5613303Y-1078226D01*
X5667118Y-1196063D01*
X5751951Y-1293967D01*
X5860931Y-1364004D01*
X5985228Y-1400500D01*
X6114772Y-1400500D01*
X6239069Y-1364004D01*
X6348049Y-1293967D01*
X6432882Y-1196063D01*
X6486697Y-1078226D01*
X6505133Y-950000D01*
X6486697Y-821774D01*
X6432882Y-703937D01*
X6348049Y-606033D01*
X6281032Y-562964D01*
X6239068Y-535995D01*
X6114772Y-499500D01*
X5985228Y-499500D01*
X5860931Y-535995D01*
X5751954Y-606031D01*
X5751950Y-606034D01*
X5667119Y-703935D01*
X5613302Y-821776D01*
X5594867Y-950000D01*
X-5344867Y-950000D01*
X-5363303Y-821774D01*
X-5417118Y-703937D01*
X-5501951Y-606033D01*
X-5568968Y-562964D01*
X-5610932Y-535995D01*
X-5735228Y-499500D01*
X-5864772Y-499500D01*
X-5989069Y-535995D01*
X-6098046Y-606031D01*
X-6098050Y-606034D01*
X-6182881Y-703935D01*
X-6236698Y-821776D01*
X-6255133Y-950000D01*
X-16325350Y-950000D01*
X-16340047Y-899947D01*
X-16417129Y-780005D01*
X-16428280Y-730632D01*
X-16417128Y-699993D01*
X-16356743Y-606033D01*
X-16340047Y-580053D01*
X-16299501Y-441963D01*
X-16299500Y-441963D01*
X-16299500Y-298036D01*
X-16299501Y-298035D01*
X-16308789Y-266403D01*
X-16340047Y-159947D01*
X-16417129Y-40005D01*
X-16428280Y9368D01*
X-16417128Y40007D01*
X-16340048Y159946D01*
X-16340049Y159946D01*
X-16340047Y159947D01*
X-16299501Y298037D01*
X-16299500Y298037D01*
X-16299500Y441964D01*
X-16299501Y441965D01*
X-16308789Y473597D01*
X-16340047Y580053D01*
X-16417129Y699995D01*
X-16428280Y749368D01*
X-16417128Y780007D01*
X-16372467Y849500D01*
X-16340047Y899947D01*
X-16299501Y1038037D01*
X-16299500Y1038037D01*
X-16299500Y1181964D01*
X-16299501Y1181965D01*
X-16334159Y1300000D01*
X-16334159Y1300001D01*
X-6455133Y1300001D01*
X-6436698Y1171777D01*
X-6436698Y1171776D01*
X-6436697Y1171774D01*
X-6382882Y1053937D01*
X-6298049Y956033D01*
X-6189069Y885996D01*
X-6064772Y849500D01*
X-5935228Y849500D01*
X-5810931Y885996D01*
X-5701951Y956033D01*
X-5617118Y1053937D01*
X-5563303Y1171774D01*
X-5544867Y1300000D01*
X-5563303Y1428226D01*
X-5617118Y1546063D01*
X-5701951Y1643967D01*
X-5768968Y1687036D01*
X-5810932Y1714005D01*
X-5935228Y1750500D01*
X-6064772Y1750500D01*
X-6189069Y1714005D01*
X-6298046Y1643969D01*
X-6298050Y1643966D01*
X-6382881Y1546065D01*
X-6436698Y1428224D01*
X-6455133Y1300001D01*
X-16334159Y1300001D01*
X-16340047Y1320053D01*
X-16417128Y1439994D01*
X-16428280Y1489369D01*
X-16417131Y1520003D01*
X-16340047Y1639947D01*
X-16299501Y1778037D01*
X-16299500Y1778037D01*
X-16299500Y1921964D01*
X-16299501Y1921965D01*
X-16322415Y2000003D01*
X-16340047Y2060053D01*
X-16417857Y2181128D01*
X-16417860Y2181131D01*
X-16417861Y2181132D01*
X-16526627Y2275377D01*
X-16566676Y2293667D01*
X-16657543Y2335165D01*
X-16657545Y2335166D01*
X-16657546Y2335166D01*
X-16685808Y2339229D01*
X-16730426Y2363135D01*
X-16749240Y2410128D01*
X-16739363Y2449475D01*
X-16703309Y2511921D01*
X-16634457Y2701092D01*
X-16599500Y2899344D01*
X-16599500Y2974690D01*
X-16597643Y2991165D01*
X-16393285Y3885996D01*
X-16367250Y4000000D01*
X-15455133Y4000000D01*
X-15436698Y3871777D01*
X-15436698Y3871776D01*
X-15436697Y3871774D01*
X-15382882Y3753937D01*
X-15298049Y3656033D01*
X-15189069Y3585996D01*
X-15064772Y3549500D01*
X-14935228Y3549500D01*
X-14810931Y3585996D01*
X-14701951Y3656033D01*
X-14617118Y3753937D01*
X-14567312Y3862997D01*
X-14531805Y3899071D01*
X-14481415Y3903882D01*
X-14439721Y3875178D01*
X-14432691Y3863001D01*
X-14382882Y3753937D01*
X-14298049Y3656033D01*
X-14189069Y3585996D01*
X-14064772Y3549500D01*
X-13935228Y3549500D01*
X-13810931Y3585996D01*
X-13701951Y3656033D01*
X-13617118Y3753937D01*
X-13567312Y3862997D01*
X-13531805Y3899071D01*
X-13481415Y3903882D01*
X-13439721Y3875178D01*
X-13432691Y3863001D01*
X-13382882Y3753937D01*
X-13298049Y3656033D01*
X-13189069Y3585996D01*
X-13064772Y3549500D01*
X-12935228Y3549500D01*
X-12810931Y3585996D01*
X-12701951Y3656033D01*
X-12617118Y3753937D01*
X-12567312Y3862997D01*
X-12531805Y3899071D01*
X-12481415Y3903882D01*
X-12439721Y3875178D01*
X-12432691Y3863001D01*
X-12382882Y3753937D01*
X-12298049Y3656033D01*
X-12189069Y3585996D01*
X-12064772Y3549500D01*
X-11935228Y3549500D01*
X-11810931Y3585996D01*
X-11701951Y3656033D01*
X-11617118Y3753937D01*
X-11567312Y3862997D01*
X-11531805Y3899071D01*
X-11481415Y3903882D01*
X-11439721Y3875178D01*
X-11432691Y3863001D01*
X-11382882Y3753937D01*
X-11298049Y3656033D01*
X-11189069Y3585996D01*
X-11064772Y3549500D01*
X-10935228Y3549500D01*
X-10810931Y3585996D01*
X-10701951Y3656033D01*
X-10617118Y3753937D01*
X-10563303Y3871774D01*
X-10544867Y4000000D01*
X-10563303Y4128226D01*
X-10617118Y4246063D01*
X-10663854Y4300000D01*
X-6255133Y4300000D01*
X-6236698Y4171777D01*
X-6236698Y4171776D01*
X-6236697Y4171774D01*
X-6182882Y4053937D01*
X-6098049Y3956033D01*
X-5989069Y3885996D01*
X-5864772Y3849500D01*
X-5735228Y3849500D01*
X-5610931Y3885996D01*
X-5501951Y3956033D01*
X-5417118Y4053937D01*
X-5363303Y4171774D01*
X-5344867Y4300000D01*
X-5363303Y4428226D01*
X-5417118Y4546063D01*
X-5501951Y4643967D01*
X-5588362Y4699500D01*
X-5610932Y4714005D01*
X-5735228Y4750500D01*
X-5864772Y4750500D01*
X-5989069Y4714005D01*
X-6098046Y4643969D01*
X-6098050Y4643966D01*
X-6182881Y4546065D01*
X-6236698Y4428224D01*
X-6255133Y4300000D01*
X-10663854Y4300000D01*
X-10701951Y4343967D01*
X-10810931Y4414004D01*
X-10810934Y4414006D01*
X-10861995Y4428999D01*
X-10902757Y4459011D01*
X-10914690Y4508204D01*
X-10892211Y4553558D01*
X-10861994Y4571003D01*
X-10834129Y4579185D01*
X-10810933Y4585995D01*
X-10810931Y4585996D01*
X-10701951Y4656033D01*
X-10617118Y4753937D01*
X-10563303Y4871774D01*
X-10544867Y5000000D01*
X-10563303Y5128226D01*
X-10573247Y5150001D01*
X7694867Y5150001D01*
X7713302Y5021777D01*
X7713302Y5021776D01*
X7713303Y5021774D01*
X7767118Y4903937D01*
X7851951Y4806033D01*
X7960931Y4735996D01*
X8085228Y4699500D01*
X8214772Y4699500D01*
X8339069Y4735996D01*
X8448049Y4806033D01*
X8532882Y4903937D01*
X8576753Y5000000D01*
X12544867Y5000000D01*
X12563302Y4871777D01*
X12563302Y4871776D01*
X12563303Y4871774D01*
X12617118Y4753937D01*
X12701951Y4656033D01*
X12810931Y4585996D01*
X12935228Y4549500D01*
X13064772Y4549500D01*
X13189069Y4585996D01*
X13298049Y4656033D01*
X13382882Y4753937D01*
X13436697Y4871774D01*
X13455133Y5000000D01*
X13436697Y5128226D01*
X13382882Y5246063D01*
X13298049Y5343967D01*
X13216983Y5396065D01*
X13189068Y5414005D01*
X13064772Y5450500D01*
X12935228Y5450500D01*
X12810931Y5414005D01*
X12701954Y5343969D01*
X12701950Y5343966D01*
X12617119Y5246065D01*
X12563302Y5128224D01*
X12544867Y5000000D01*
X8576753Y5000000D01*
X8586697Y5021774D01*
X8605133Y5150000D01*
X8586697Y5278226D01*
X8532882Y5396063D01*
X8448049Y5493967D01*
X8381032Y5537036D01*
X8339068Y5564005D01*
X8214772Y5600500D01*
X8085228Y5600500D01*
X7960931Y5564005D01*
X7851954Y5493969D01*
X7851950Y5493966D01*
X7767119Y5396065D01*
X7713302Y5278224D01*
X7694867Y5150001D01*
X-10573247Y5150001D01*
X-10617118Y5246063D01*
X-10701951Y5343967D01*
X-10783017Y5396065D01*
X-10810932Y5414005D01*
X-10935228Y5450500D01*
X-11064772Y5450500D01*
X-11189069Y5414005D01*
X-11298046Y5343969D01*
X-11298050Y5343966D01*
X-11382881Y5246065D01*
X-11382882Y5246064D01*
X-11382882Y5246063D01*
X-11426752Y5150001D01*
X-11432687Y5137006D01*
X-11468196Y5100930D01*
X-11518585Y5096119D01*
X-11560279Y5124823D01*
X-11567313Y5137006D01*
X-11573247Y5150000D01*
X-11617118Y5246063D01*
X-11701951Y5343967D01*
X-11783017Y5396065D01*
X-11810932Y5414005D01*
X-11935228Y5450500D01*
X-12064772Y5450500D01*
X-12189069Y5414005D01*
X-12298046Y5343969D01*
X-12298050Y5343966D01*
X-12382881Y5246065D01*
X-12382882Y5246064D01*
X-12382882Y5246063D01*
X-12426752Y5150001D01*
X-12432687Y5137006D01*
X-12468196Y5100930D01*
X-12518585Y5096119D01*
X-12560279Y5124823D01*
X-12567313Y5137006D01*
X-12573247Y5150000D01*
X-12617118Y5246063D01*
X-12701951Y5343967D01*
X-12783017Y5396065D01*
X-12810932Y5414005D01*
X-12935228Y5450500D01*
X-13064772Y5450500D01*
X-13189069Y5414005D01*
X-13298046Y5343969D01*
X-13298050Y5343966D01*
X-13382881Y5246065D01*
X-13382882Y5246064D01*
X-13382882Y5246063D01*
X-13426752Y5150001D01*
X-13432687Y5137006D01*
X-13468196Y5100930D01*
X-13518585Y5096119D01*
X-13560279Y5124823D01*
X-13567313Y5137006D01*
X-13573247Y5150000D01*
X-13617118Y5246063D01*
X-13701951Y5343967D01*
X-13783017Y5396065D01*
X-13810932Y5414005D01*
X-13935228Y5450500D01*
X-14064772Y5450500D01*
X-14189069Y5414005D01*
X-14298046Y5343969D01*
X-14298050Y5343966D01*
X-14382881Y5246065D01*
X-14382882Y5246064D01*
X-14382882Y5246063D01*
X-14426752Y5150001D01*
X-14432687Y5137006D01*
X-14468196Y5100930D01*
X-14518585Y5096119D01*
X-14560279Y5124823D01*
X-14567313Y5137006D01*
X-14573247Y5150000D01*
X-14617118Y5246063D01*
X-14701951Y5343967D01*
X-14783017Y5396065D01*
X-14810932Y5414005D01*
X-14935228Y5450500D01*
X-15064772Y5450500D01*
X-15189069Y5414005D01*
X-15298046Y5343969D01*
X-15298050Y5343966D01*
X-15382881Y5246065D01*
X-15436698Y5128224D01*
X-15455133Y5000000D01*
X-15436698Y4871777D01*
X-15436698Y4871776D01*
X-15436697Y4871774D01*
X-15382882Y4753937D01*
X-15298049Y4656033D01*
X-15189070Y4585996D01*
X-15189069Y4585996D01*
X-15138007Y4571003D01*
X-15097245Y4540990D01*
X-15085311Y4491798D01*
X-15107789Y4446444D01*
X-15138007Y4428997D01*
X-15189069Y4414005D01*
X-15298046Y4343969D01*
X-15298050Y4343966D01*
X-15382881Y4246065D01*
X-15436698Y4128224D01*
X-15455133Y4000000D01*
X-16367250Y4000000D01*
X-16359979Y4031837D01*
X-16146141Y4817227D01*
X-16145655Y4818853D01*
X-15894561Y5591643D01*
X-15893977Y5593298D01*
X-15872472Y5650001D01*
X1094867Y5650001D01*
X1113302Y5521777D01*
X1113302Y5521776D01*
X1113303Y5521774D01*
X1167118Y5403937D01*
X1251951Y5306033D01*
X1360931Y5235996D01*
X1485228Y5199500D01*
X1614772Y5199500D01*
X1739069Y5235996D01*
X1848049Y5306033D01*
X1932882Y5403937D01*
X1986697Y5521774D01*
X2005133Y5650000D01*
X3594867Y5650000D01*
X3613302Y5521777D01*
X3613302Y5521776D01*
X3613303Y5521774D01*
X3667118Y5403937D01*
X3751951Y5306033D01*
X3860931Y5235996D01*
X3985228Y5199500D01*
X4114772Y5199500D01*
X4239069Y5235996D01*
X4348049Y5306033D01*
X4432882Y5403937D01*
X4486697Y5521774D01*
X4505133Y5650000D01*
X4486697Y5778226D01*
X4432882Y5896063D01*
X4348049Y5993967D01*
X4281032Y6037036D01*
X4239068Y6064005D01*
X4114772Y6100500D01*
X3985228Y6100500D01*
X3860931Y6064005D01*
X3751954Y5993969D01*
X3751950Y5993966D01*
X3667119Y5896065D01*
X3613302Y5778224D01*
X3594867Y5650000D01*
X2005133Y5650000D01*
X1986697Y5778226D01*
X1932882Y5896063D01*
X1848049Y5993967D01*
X1781032Y6037036D01*
X1739068Y6064005D01*
X1614772Y6100500D01*
X1485228Y6100500D01*
X1360931Y6064005D01*
X1251954Y5993969D01*
X1251950Y5993966D01*
X1167119Y5896065D01*
X1113302Y5778224D01*
X1094867Y5650001D01*
X-15872472Y5650001D01*
X-15605849Y6353028D01*
X-15605199Y6354627D01*
X-15280690Y7099580D01*
X-15279946Y7101179D01*
X-15255808Y7150001D01*
X-2005133Y7150001D01*
X-1986698Y7021777D01*
X-1986698Y7021776D01*
X-1986697Y7021774D01*
X-1932882Y6903937D01*
X-1848049Y6806033D01*
X-1739069Y6735996D01*
X-1614772Y6699500D01*
X-1485228Y6699500D01*
X-1360931Y6735996D01*
X-1251951Y6806033D01*
X-1167118Y6903937D01*
X-1146081Y6950000D01*
X844867Y6950000D01*
X863302Y6821777D01*
X863302Y6821776D01*
X863303Y6821774D01*
X917118Y6703937D01*
X1001951Y6606033D01*
X1110931Y6535996D01*
X1235228Y6499500D01*
X1364772Y6499500D01*
X1489069Y6535996D01*
X1598049Y6606033D01*
X1682882Y6703937D01*
X1736697Y6821774D01*
X1755133Y6950000D01*
X1736697Y7078226D01*
X1682882Y7196063D01*
X1598049Y7293967D01*
X1531032Y7337036D01*
X1489068Y7364005D01*
X1364772Y7400500D01*
X1235228Y7400500D01*
X1110931Y7364005D01*
X1001954Y7293969D01*
X1001950Y7293966D01*
X917119Y7196065D01*
X863302Y7078224D01*
X844867Y6950000D01*
X-1146081Y6950000D01*
X-1113303Y7021774D01*
X-1094867Y7150000D01*
X-1113303Y7278226D01*
X-1167118Y7396063D01*
X-1251951Y7493967D01*
X-1318968Y7537036D01*
X-1360932Y7564005D01*
X-1485228Y7600500D01*
X-1614772Y7600500D01*
X-1739069Y7564005D01*
X-1848046Y7493969D01*
X-1848050Y7493966D01*
X-1932881Y7396065D01*
X-1986698Y7278224D01*
X-2005133Y7150001D01*
X-15255808Y7150001D01*
X-14919845Y7829541D01*
X-14919022Y7831107D01*
X-14841649Y7970250D01*
X-14524138Y8541247D01*
X-14523244Y8542766D01*
X-14094525Y9232978D01*
X-14093571Y9234435D01*
X-13753779Y9726706D01*
X-4150500Y9726706D01*
X-4132316Y9647037D01*
X-4117882Y9583796D01*
X-4117880Y9583792D01*
X-4054281Y9451726D01*
X-4054280Y9451725D01*
X-4054279Y9451723D01*
X-3962883Y9337117D01*
X-3848277Y9245721D01*
X-3716206Y9182119D01*
X-3573294Y9149500D01*
X-3573291Y9149500D01*
X-2426709Y9149500D01*
X-2426706Y9149500D01*
X-2283794Y9182119D01*
X-2151723Y9245721D01*
X-2037117Y9337117D01*
X-1945721Y9451723D01*
X-1882119Y9583794D01*
X-1849500Y9726706D01*
X-1849500Y9800000D01*
X-1849500Y9834351D01*
X-1849501Y11400000D01*
X-1655133Y11400000D01*
X-1636698Y11271777D01*
X-1636698Y11271776D01*
X-1636697Y11271774D01*
X-1582882Y11153937D01*
X-1498049Y11056033D01*
X-1389069Y10985996D01*
X-1264772Y10949500D01*
X-1135228Y10949500D01*
X-1010931Y10985996D01*
X-906667Y11053003D01*
X-857294Y11064155D01*
X-812302Y11040960D01*
X-792745Y10994272D01*
X-799348Y10960010D01*
X-836698Y10878226D01*
X-855133Y10750000D01*
X-836698Y10621777D01*
X-836698Y10621776D01*
X-836697Y10621774D01*
X-782882Y10503937D01*
X-698049Y10406033D01*
X-589069Y10335996D01*
X-464772Y10299500D01*
X-335228Y10299500D01*
X-210931Y10335996D01*
X-101951Y10406033D01*
X-17118Y10503937D01*
X36697Y10621774D01*
X55133Y10750000D01*
X36697Y10878226D01*
X-654Y10960011D01*
X-4664Y11010469D01*
X24697Y11051702D01*
X73694Y11064415D01*
X106663Y11053005D01*
X210931Y10985996D01*
X335228Y10949500D01*
X464772Y10949500D01*
X589069Y10985996D01*
X693333Y11053003D01*
X742706Y11064155D01*
X787698Y11040960D01*
X807255Y10994272D01*
X800652Y10960010D01*
X763302Y10878226D01*
X744867Y10750000D01*
X763302Y10621777D01*
X763302Y10621776D01*
X763303Y10621774D01*
X817118Y10503937D01*
X901951Y10406033D01*
X1010931Y10335996D01*
X1135228Y10299500D01*
X1264772Y10299500D01*
X1389069Y10335996D01*
X1498049Y10406033D01*
X1582882Y10503937D01*
X1636697Y10621774D01*
X1655133Y10750000D01*
X1636697Y10878226D01*
X1582882Y10996063D01*
X1498049Y11093967D01*
X1418478Y11145104D01*
X1389068Y11164005D01*
X1264772Y11200500D01*
X1135228Y11200500D01*
X1010931Y11164005D01*
X906667Y11096998D01*
X857292Y11085846D01*
X812300Y11109041D01*
X792744Y11155730D01*
X799348Y11189992D01*
X836697Y11271774D01*
X837475Y11277184D01*
X855133Y11400000D01*
X836697Y11528226D01*
X782882Y11646063D01*
X698049Y11743967D01*
X631032Y11787036D01*
X589068Y11814005D01*
X464772Y11850500D01*
X335228Y11850500D01*
X210931Y11814005D01*
X101954Y11743969D01*
X101950Y11743966D01*
X17119Y11646065D01*
X-36698Y11528224D01*
X-55133Y11400000D01*
X-36698Y11271777D01*
X652Y11189992D01*
X4663Y11139532D01*
X-24699Y11098299D01*
X-73695Y11085586D01*
X-106667Y11096998D01*
X-179597Y11143867D01*
X-210932Y11164005D01*
X-335228Y11200500D01*
X-464772Y11200500D01*
X-589069Y11164005D01*
X-693333Y11096998D01*
X-742708Y11085846D01*
X-787700Y11109041D01*
X-807256Y11155730D01*
X-800652Y11189992D01*
X-763303Y11271774D01*
X-762525Y11277184D01*
X-744867Y11400000D01*
X-763303Y11528226D01*
X-817118Y11646063D01*
X-901951Y11743967D01*
X-968968Y11787036D01*
X-1010932Y11814005D01*
X-1135228Y11850500D01*
X-1264772Y11850500D01*
X-1389069Y11814005D01*
X-1498046Y11743969D01*
X-1498050Y11743966D01*
X-1582881Y11646065D01*
X-1636698Y11528224D01*
X-1655133Y11400000D01*
X-1849501Y11400000D01*
X-1849501Y12497573D01*
X-1849183Y12502408D01*
X-1839851Y12573294D01*
X-1838862Y12580805D01*
X-1833865Y12599455D01*
X-1806402Y12665757D01*
X-1796753Y12682470D01*
X-1753061Y12739411D01*
X-1739411Y12753061D01*
X-1682470Y12796753D01*
X-1665757Y12806402D01*
X-1599455Y12833865D01*
X-1580803Y12838863D01*
X-1528319Y12845772D01*
X-1502406Y12849183D01*
X-1497571Y12849500D01*
X-1465649Y12849500D01*
X1465649Y12849500D01*
X1497571Y12849500D01*
X1502406Y12849183D01*
X1528318Y12845772D01*
X1580802Y12838863D01*
X1599455Y12833864D01*
X1665753Y12806403D01*
X1682472Y12796751D01*
X1738636Y12753655D01*
X1739405Y12753065D01*
X1753063Y12739407D01*
X1796748Y12682475D01*
X1806404Y12665750D01*
X1833862Y12599459D01*
X1838862Y12580801D01*
X1849183Y12502408D01*
X1849500Y12497573D01*
X1849500Y9834352D01*
X1849500Y9834351D01*
X1849500Y9800000D01*
X1849500Y9726706D01*
X1867684Y9647037D01*
X1882118Y9583796D01*
X1882120Y9583792D01*
X1945719Y9451726D01*
X1945720Y9451725D01*
X1945721Y9451723D01*
X2037117Y9337117D01*
X2037121Y9337114D01*
X2123261Y9268419D01*
X2149656Y9225227D01*
X2142111Y9175173D01*
X2104158Y9141679D01*
X2097971Y9139561D01*
X2010931Y9114005D01*
X1901954Y9043969D01*
X1901950Y9043966D01*
X1817119Y8946065D01*
X1817118Y8946064D01*
X1817118Y8946063D01*
X1790210Y8887145D01*
X1763302Y8828224D01*
X1744867Y8700000D01*
X1763302Y8571777D01*
X1763302Y8571776D01*
X1763303Y8571774D01*
X1817118Y8453937D01*
X1901951Y8356033D01*
X2010931Y8285996D01*
X2135228Y8249500D01*
X2264772Y8249500D01*
X2389069Y8285996D01*
X2498049Y8356033D01*
X2582882Y8453937D01*
X2636697Y8571774D01*
X2655133Y8700000D01*
X2636697Y8828226D01*
X2582882Y8946063D01*
X2582880Y8946065D01*
X2582880Y8946066D01*
X2582878Y8946068D01*
X2512716Y9027040D01*
X2503944Y9050000D01*
X9344867Y9050000D01*
X9363302Y8921777D01*
X9363302Y8921776D01*
X9363303Y8921774D01*
X9417118Y8803937D01*
X9501951Y8706033D01*
X9610931Y8635996D01*
X9735228Y8599500D01*
X9864772Y8599500D01*
X9989069Y8635996D01*
X10098049Y8706033D01*
X10182882Y8803937D01*
X10236697Y8921774D01*
X10255133Y9050000D01*
X10236697Y9178226D01*
X10182882Y9296063D01*
X10098049Y9393967D01*
X9991551Y9462409D01*
X9989068Y9464005D01*
X9864772Y9500500D01*
X9735228Y9500500D01*
X9610931Y9464005D01*
X9501954Y9393969D01*
X9501950Y9393966D01*
X9417119Y9296065D01*
X9363302Y9178224D01*
X9344867Y9050000D01*
X2503944Y9050000D01*
X2494650Y9074326D01*
X2511206Y9122161D01*
X2554636Y9148163D01*
X2568641Y9149500D01*
X3573291Y9149500D01*
X3573294Y9149500D01*
X3716206Y9182119D01*
X3848277Y9245721D01*
X3962883Y9337117D01*
X4054279Y9451723D01*
X4117881Y9583794D01*
X4150500Y9726706D01*
X4150500Y9800000D01*
X4150500Y9834351D01*
X4150500Y11100000D01*
X7394867Y11100000D01*
X7413302Y10971777D01*
X7413302Y10971776D01*
X7413303Y10971774D01*
X7467118Y10853937D01*
X7551951Y10756033D01*
X7660931Y10685996D01*
X7785228Y10649500D01*
X7914772Y10649500D01*
X8039069Y10685996D01*
X8148049Y10756033D01*
X8232882Y10853937D01*
X8286697Y10971774D01*
X8305133Y11100000D01*
X8286697Y11228226D01*
X8232882Y11346063D01*
X8148049Y11443967D01*
X8071150Y11493387D01*
X8039068Y11514005D01*
X7914772Y11550500D01*
X7785228Y11550500D01*
X7660931Y11514005D01*
X7551954Y11443969D01*
X7551950Y11443966D01*
X7467119Y11346065D01*
X7413302Y11228224D01*
X7394867Y11100000D01*
X4150500Y11100000D01*
X4150500Y14019814D01*
X4150500Y14073294D01*
X4117881Y14216206D01*
X4054279Y14348277D01*
X3962883Y14462883D01*
X3848277Y14554279D01*
X3848275Y14554280D01*
X3848274Y14554281D01*
X3716208Y14617880D01*
X3716204Y14617882D01*
X3652963Y14632316D01*
X3573294Y14650500D01*
X3519814Y14650500D01*
X-3465649Y14650500D01*
X-3500000Y14650500D01*
X-3573294Y14650500D01*
X-3640479Y14635166D01*
X-3716205Y14617882D01*
X-3716209Y14617880D01*
X-3848275Y14554281D01*
X-3848276Y14554280D01*
X-3962879Y14462887D01*
X-3962887Y14462879D01*
X-4054280Y14348276D01*
X-4054281Y14348275D01*
X-4117880Y14216209D01*
X-4117882Y14216205D01*
X-4138378Y14126408D01*
X-4150500Y14073294D01*
X-4150500Y14019814D01*
X-4150500Y9834351D01*
X-4150500Y9800000D01*
X-4150500Y9726706D01*
X-13753779Y9726706D01*
X-13632000Y9903133D01*
X-13630956Y9904569D01*
X-13508691Y10064574D01*
X-13137466Y10550389D01*
X-13136438Y10551672D01*
X-13026084Y10683208D01*
X-13026064Y10683224D01*
X-13018959Y10691695D01*
X-13018957Y10691695D01*
X-12998454Y10716139D01*
X-12998180Y10716466D01*
X-12995442Y10719391D01*
X-12947757Y10765055D01*
X-12934988Y10774855D01*
X-12883777Y10805940D01*
X-12869181Y10812749D01*
X-12812452Y10832014D01*
X-12796731Y10835500D01*
X-12731522Y10842648D01*
X-12727501Y10842867D01*
X-11440433Y10842867D01*
X-11439675Y10842918D01*
X-11389033Y10842915D01*
X-11306933Y10861651D01*
X-11246133Y10875525D01*
X-11246131Y10875527D01*
X-11246126Y10875527D01*
X-11114059Y10939120D01*
X-10999453Y11030506D01*
X-10908055Y11145102D01*
X-10844449Y11277163D01*
X-10811823Y11420067D01*
X-10811821Y11466489D01*
X-10811818Y11466508D01*
X-10811818Y11493387D01*
X-10811818Y11493388D01*
X-10811816Y11527708D01*
X-10811818Y11527711D01*
X-10811817Y11534754D01*
X-10811818Y11534776D01*
X-10811818Y12751555D01*
X-10811587Y12755687D01*
X-10809589Y12773479D01*
X-10804044Y12822867D01*
X-10800387Y12838950D01*
X-10780190Y12896911D01*
X-10773062Y12911777D01*
X-10740522Y12963819D01*
X-10730276Y12976738D01*
X-10682681Y13024633D01*
X-10679628Y13027378D01*
X-10231016Y13387676D01*
X-10229675Y13388701D01*
X-9572274Y13866331D01*
X-9570869Y13867301D01*
X-8891165Y14312607D01*
X-8889693Y14313521D01*
X-8189313Y14725442D01*
X-8187753Y14726309D01*
X-7468337Y15103887D01*
X-7466734Y15104680D01*
X-7385212Y15142562D01*
X-6729844Y15447093D01*
X-6728277Y15447776D01*
X-5975702Y15754190D01*
X-5974098Y15754798D01*
X-5207582Y16024500D01*
X-5205927Y16025037D01*
X-4427311Y16257380D01*
X-4425669Y16257828D01*
X-3636671Y16452299D01*
X-3635016Y16452665D01*
X-2837585Y16608782D01*
X-2835889Y16609071D01*
X-2031837Y16726480D01*
X-2030108Y16726689D01*
X-1588745Y16769488D01*
X-1221378Y16805110D01*
X-1219606Y16805238D01*
X-408031Y16844493D01*
X-406243Y16844536D01*
X406243Y16844536D01*
X408031Y16844493D01*
G37*
%TD.AperFunction*%
%TD*%
M02*
